<mxfile host="app.diagrams.net" modified="2023-02-09T15:08:07.869Z" agent="5.0 (Windows NT 10.0; Win64; x64) AppleWebKit/537.36 (KHTML, like Gecko) Chrome/109.0.0.0 Safari/537.36" etag="WvwqZi2lvpbdLEyF9hEM" version="20.8.18" type="github">
  <diagram name="Page-1" id="p6gYxSVcAoh7GOFqSfuz">
    <mxGraphModel dx="1222" dy="662" grid="0" gridSize="10" guides="1" tooltips="1" connect="1" arrows="1" fold="1" page="0" pageScale="1" pageWidth="850" pageHeight="1100" math="0" shadow="0">
      <root>
        <mxCell id="0" />
        <mxCell id="1" parent="0" />
        <mxCell id="45ThTg6IiLnNjAhNWhUz-2" value="Adaptive Card" style="text;html=1;strokeColor=none;fillColor=none;align=center;verticalAlign=middle;whiteSpace=wrap;rounded=0;fontStyle=1" parent="1" vertex="1">
          <mxGeometry x="397" y="199" width="190" height="40" as="geometry" />
        </mxCell>
        <mxCell id="45ThTg6IiLnNjAhNWhUz-5" value="" style="sketch=0;aspect=fixed;html=1;points=[];align=center;image;fontSize=12;image=img/lib/mscae/Azure_Boards.svg;" parent="1" vertex="1">
          <mxGeometry x="806.77" y="477" width="53" height="53" as="geometry" />
        </mxCell>
        <mxCell id="45ThTg6IiLnNjAhNWhUz-10" value="" style="endArrow=classic;html=1;rounded=0;" parent="1" edge="1">
          <mxGeometry width="50" height="50" relative="1" as="geometry">
            <mxPoint x="718" y="324" as="sourcePoint" />
            <mxPoint x="767.9999999999998" y="324.41" as="targetPoint" />
          </mxGeometry>
        </mxCell>
        <mxCell id="45ThTg6IiLnNjAhNWhUz-11" value="" style="sketch=0;aspect=fixed;html=1;points=[];align=center;image;fontSize=12;image=img/lib/mscae/Azure_Pipelines.svg;" parent="1" vertex="1">
          <mxGeometry x="980" y="297" width="50" height="50" as="geometry" />
        </mxCell>
        <mxCell id="45ThTg6IiLnNjAhNWhUz-12" value="Build pipelines" style="text;html=1;strokeColor=none;fillColor=none;align=center;verticalAlign=middle;whiteSpace=wrap;rounded=0;" parent="1" vertex="1">
          <mxGeometry x="957.5" y="350" width="95" height="30" as="geometry" />
        </mxCell>
        <mxCell id="45ThTg6IiLnNjAhNWhUz-16" value="Teams Channel" style="text;html=1;strokeColor=none;fillColor=none;align=center;verticalAlign=middle;whiteSpace=wrap;rounded=0;" parent="1" vertex="1">
          <mxGeometry x="540.6" y="344" width="90" height="13" as="geometry" />
        </mxCell>
        <mxCell id="iZ3yDexl_o7XQbrObsBM-16" value="" style="shape=image;verticalLabelPosition=bottom;labelBackgroundColor=default;verticalAlign=top;aspect=fixed;imageAspect=0;image=data:image/png,iVBORw0KGgoAAAANSUhEUgAAAeEAAAEGCAYAAABSCy00AAAAAXNSR0IArs4c6QAAAARnQU1BAACxjwv8YQUAAAAJcEhZcwAAFiUAABYlAUlSJPAAAEi8SURBVHhe7b0NfFbVne/7y/s7SSCQJxqQ4MsICCWUHknUMzXWaYWOdwzHno9wO5+jeDxjw5xPj2DPWNLOrRPq52ri6XRM7XWMzu2cxHvHS9pPK+E4lljHmqBigtIKAhIlYJ5AIO/Jkxfy3P9/7f285skrCQ+E3xd29t5rr7X2WmvvZ//2/7/W3juirb3TDUIIIYRcciLtOSGEEEIuMRRhQgghJExEuAV7mRBCCCGzzLmOLnuJljAhhBASNijChBBCSJigCBNCCCFhgiJMCCGEhAmKMCGEEBImKMKEEEJImKAIE0IIIWGCIkwIIYSECYowIYQQEiYowoQQQkiYoAgTQgghYYIiTAghhIQJijAhhBASJijChBBCSJigCBNCCCFhgiJMCCGEhAmKMCGEEBImrlIR7kDNf81CREQElj3TaIeRS84fypEvxyAi62FUO+2wy4GOGmzLknJFLEPZATuMEEJmgSmL8C5zcRp/Wvs/wiNsTf+8CVnB5bkxH5u+U46a4x12LMWFDqd11W9yucz8kiHCc5e24Y0iPKfssIth2In6V3bh4YIVdt2zsOLebSj75WG51bjM6elAvc6d7XANm5DLAylXizk9mi6vchFC5hxzyhJ2flaNUQbV8XpUP78NG2/cgF37L7HghsB5uA61WsjjFTh8sSLcVoviO7KQv7kYFW8etuvuxOHflGNH4QqU7zcBhBBCLlOmLMI7W9xwu62pparQDi1EZbMvvOG/5drhF0uj1/Le8uooeR2HEtTZZWk/9CI2OzSsHsVPVoptE14cy/NRoOW5YSuWZ1th06MJVd+5S24sZNFRgJ01Lei369zftA/PPVgARFsx5yrOV7dY3o6sXXKmEELIlcdlbgmL5Wpr73Tdgmm3bMW2/2yv7HWOtpQvNbcUYZ/eyBx7EYUXIcKuNyuw/VVdcqDohd0ouceBeLMFiF9agKKX9mHnOjtgrjJsezbkoIbfx0EIIVNn9kS45zCq/+5h3LXKGgBl+ma/V4XDQR2VzjfLfP2ZEufhZ+qtvsz9uyRdPopNLKB6s53P92pn7YLrOlKNsu9s8pXZ7l8t/71/oT2DurLECu3A4Vd2YKMdf1newyg/MEFP7BiDkcZshzFo/H2FfUOxBYV3p5mlcXHWovw7G7HC06eftQIbv1Nuuca9jFO3DdtQcVBa3hzXLXY+y7BRj2mPndxwGOV5um0Lqk91oP4ftCtA17Utd6DqyGSOnpVuU94ys28t610PlfmV1Ymqb0Uga3O1vV5stWnEXag4bgdNmIeHDjS+LGU09bTLeKjd3kYIIbOM+yJoqSp0axZAobuy2Q5UuuvcJes1PMS0vsTd0G9Fa/91kdsRIs72f5UI75eE3IbH97nt5KOoe9ITr8RdZ4e115e6N9hpHU940ra4K++34z7piekXNmrKc5c22tH84uXckBMUT6egtgimvmRUvHHbISR+Zb2/UtbGp1/2mReUt3dyFLifm2zdJG5BiOPqa1dFjr0Jz3XnrXeMigvHZvduT/uEaAu3+4S78tsh0unkTdvi3v3tENtR4H7x2GTzsGh4Ni90PHsqqbcjEkLIDNHW3umdZsUSbnq1BMXaV3n/izjRb/cVtzeg9B4J21+MijcsG+/wwXLLmnt8n9WfOdSCfU8Xikkq1tK6nWhx10Eu6IbCqhYrn6cLvG7XsfFYRhFIz9uBGg26YSvKHxkvrQO5334OlfUn0O4p89DHeO5u3VaPyjdH9zo2HXegqPqEKXv7+6UQsReqsad+lLk1LuO2w0VzGBX/rdiMQnZ8+0U0nLXq1t+8B9vXSKBYyNteqBlldQfUrXYnTC+/xK39bDNeFEtRbh2w7wdW37/zqdoQfbKNqP+sAC82alzJ4+0SyI2ARK5Cyatj9+AaN/s/S2us2Yl9dlm1PXY/Krcp3rQOFP7Cf0yCZwzAPmy9YbJ5CB01qHjMjM9G7uN70DIk8do/RuVfm5ISQsisMwsi7ETjm0b2gFcfxrIESwwj0tdix14ruPzgYTN3ZFuyhWceNo8RVf8ByH98N0r/fBLu1UmSs74QRU/vxsfvv4jCpXbgGCy/ZxMc75dh6wbbLRyzAtvesLY19oQQxB+U4bn7coywp60rRKERbBGBKfZfz2o7HK9DtRkl7cC272xFboYJRbzss+g7BdbK840i1UH41+3OjdhkhaLwWWmfW7RcaSjY4Ak9jKYQI70Lny7B1jVWHdJu34xt95lFNDY22a700Rzeb7vZD+7CXQvtcycmC5uet1I01ntGgY/NpPM40ohyE1KAokc2wKED2dKWY/P3tsEj74QQMpvMiiU8kQGXl2ZdmHMerESdWHw5aELN89uwKTcLOQViuX5mNl8EvtHRJ+p347nHC7F8Qj1rQsW3cnHXfxUR9D7uMwEx9tyQgIRpaubU2yEeabaY4u2m8Ud8tzlRaxbykRM0ECwheZwCB9RtmkQn2AtKDnI8g+bHOUFcw+O3vMORNqEnZOp5pCFhokwJIWQWmN3R0U/WWa7AoKnur5fbEdKQJxbfif4WNFSXovAGsaPfLDODfSYlgjPJwWqU/1L3movtv/Y87tOCyvutzbPLVNshDWvvsG0153PY/cY4dz3x8ZYrGXWjrNX+HtsJ7VBZnwWG++0FRW4WPF7ojImFFPdXoiXovNGp5acbpPaTZCp58KUchJAwMAsi7MDyr9gmz8+eQ8VBX29jx5EalH3rLpQdtNbrn7oLO15pREe0A7n3bUfp92xhOdaCFmvJS9NnVogrYCTuDDLssveZjpwc63GfjoN7sOdtEzirTKUdPDj+vAjbRTzV/V/2l5uw602nd9S461Q9Kh67C9t+I21/cy422PGe+1mFd3S663gVin9o2ciOB/PguS2aSaq/V4yKP1g7dP6mHKW/NIvY8JXlYwrp8lu2WguvPofn9o5Rp1E0WW+4Egtb4086j+wc2+1cjef+2R6N3nEYFT8slhBCCLkEiGUwbcYcHd28273ZMXqkqTV5RrD6j2YOnPKebbAiuNvdex4N2v7t3WOOBg41Ojo0IUZH99e5S9Z40oeYQo2i9oYpvvDCqnHGK4cYETxxO4RGRz0XjNnOcBf9ut3EO1G1OfRIc53Wb3fvO2uiCWPVzTPiOahuIUc3++KGnNbLsem2o4ZK398w9sh6mQJGjDeWuuV2z2+7w13yvoRPOo9+977HQ42iznPn2ek5OpoQMtPM3Ojo+HT1ZMq1LwtpySbEIrsQlYcaUPnkVhTcYmJInOUoeLAEuw/tNiNYlbxH6/Dcoxuw3I6ig6i2V32MGu8bt9Kw4ck6lD6w3N7Pcmy4w14OQXx8jrWwPm0Cl2U80hxWLo5o2zEan4edv9yDEv99PV6Jfb8oMuveeKHS2sR7shrvTVXJadYoYcnHE2/idghN/Pqd2NdYF9jOyEHe/UUorf4YJfbArpwHKnH47edQdH+ebLVw3FKArU/uxsd7S1Hg6V8es26ybIIdSPcPljgmP0d6yDoXvlSHfU9vtusl5XqwFHW/2Yk8z7kSoi0Qn4udb5zAnp8WoXC9p7RWnZ6rbUHp3X4FWFOEyqrt2GCfTznrtyJXlyedRzwKnj6MOm8ZHVj+QAn2NNWh/F4NkGm8Y0kIIRdJhKqyvUzIDFCPXfZLVvSxst0PGHUjhBBic66jy16a7YFZhBBCCBkTijAhhBASJijCZIZJQ9p6nQf1HxNCCBkF+4QJIYSQSwj7hAkhhJDLAIowIYQQEiYowoQQQkiYoAgTQgghYYIiTAghhIQJijAhhBASJijChBBCSJigCBNCCCFhgiJMCCGEhAmKMCGEEBImKMKEEEJImKAIE0IIIWEiLB9wOHeuHYcPf4JPj3+GQx9+jBMnTqOt7Tzc7mEsWJiOZUuX4trF6bj++sWYNy8V2YsXIyvrWqSkpNg5EEIIIVcm/h9wuGQi3N3Vgzf+9Xd4550PcEQEeHBwGMODQ/i86SSiY2LQ39+PSLHLs69bioyMNAwNDWLpsoXIXLgIzae/wODAIPLzv4y8227FzTevRFxcnJ0zIYQQcuVwSUX4nFi4L1f8P/jV7v+F4QsivDJFiNpmZWbi1MlmnGlpRWxsHAYGXFAVXpC5EIuXZKKr0yWWsRuLHPOx+DoHkhJjkJwUi/iEWKSlzcPtt+djac5NkpYfrSWEEHLlcMlEeO+ef8XTTz2P9vOdiIqOFmt2AL19fVi4aCEuDA9L+HlERUQhMipaYruRmJiIuKRoLJLtfX0usZZHEB0VBUQNY4kI8/wFKYiKjJLtaWY9KjoKeXl34Jprllo7JIQQQi5zZl2EnU4n/unlKtS904iOc53o7e2XqRcDrkHExSeINRuPC0MXkJKSiAUZaYiIjoEYwyLO6cAIkJQci0SxejvOuzAs8fr6B9DT04/z585LvGisXn0jbro5G/PnpyIpIQHX33CDiPKNsi3BLgEhhBByeTKrH/X/9NPj2PXk03i3/hB6uwfQ1dWD7u4eXLjgRrRYw4mJ8UhOScDSnEzkfvl63HbHcnz1zpUyrca6dTfitttuRl7+Ctx660rc/WdfxtdkKrhrDdbn/QluWZWDxIREnD51Fq3ONiPs3T3dOH7sKI5+0ijrHXYpLpbDKC+IQEREFra86rTDlCZUbLDCdx2QWM/fJcsRyPrLagTE+seNVvhTjXDt3YEsWY7I24VGlx1BcL1hh2vanhrsyNJ88yVfv0g9tXb4FlT774AQQsicYEYt4ebmz/CTsufxYcMxuAaG4BartqurGzExMUZ8E5LiMC81EZlZ6cjJyULOddfKeoJsj0ZMbIx6pDEycsH080bZLuqRkREMDw9hcHAI58534I+HPsep5rPIunY+MjPTjGUs1RBr+DosvS4bixYtEZFfYMpzMXT8ZhuW31sOp2Mn9jWVoCDeL+yeF3GiZity2mqwbdVGlDsd2FnbhJI7JZI3bANePLYHW29oRFneWuzYD2x46QT2PJgjuXvCfOka/0c+1j5WD3jy1lh2mOOJfWj6cQHY+00IIVc+s+KObm8/g8r/+Qp2/8sbaPnivHE1L1qUgZR5SSKK8cjISMUiR7pZ1oFVCxbIcmKiCHCUSR8ZGSmSewEjFyJkTa0/kWApmVuUXCdLjAdx+vR5fHDgiIh7rxH29PnJiE+IwZIl12DlyhuRmjoP6elZSEqeb/KdPmr1LsPDez3i2WELZy5K6uuwc70liWr1LnukxiueHbZw5j5Zh7of5BnhVKs358/KvIK+9g1bzO+vRMu/bIZDM1Kr98a7UOYR9FW1tpgXorJ5NzZnayRCCCFXOv4iHPV/CPbytOnv68ahP3yA/XUHjUDGxMRi1Zob8aXc67F85XW48eYlWHbjNci+JgMLF87HgnSrLzcqOlLENsIIcGSkCq81qQir6HrQ7RER1hQtou1yDeLzz5xoP2+5uaOiI8RyjsT8+WlISU7E0JBLwmKkHBdjO6ZjxfUxqKmoxdvvRmNx0q+x7f86DMejFfi//8tyr1WavnIZYvZUoPb37yH62gT8etsLOOwoQsVL/wXLE6040devxjUfl6H6vbfRtmAxmn7yA+x15qG08if4M6PAQmwOVl97CGW738fbZ9KxuPnv8YMaJ/KercRPvp5lRyKEEHKl0+8asJdmwBIeHhrA6VPH8MfDR/Db19/DhwePYcniTOTdvhILF6UhPj7euKOjo6PMyGbtFzbLIpoRIryRIqwqwMbqhVi9tvZeGL5gW8Ju80iT4hZh7u3vR1PTaby7/wiOHfsCsbFRWJqzEJmyr7y8L+Hmm5cZd7amzVh0nSxfzGAtJ6q+pf3C9io8LmZ71cb5yiZkba621yTWC2I5/2d1KPtw7d+F/LxiNNrrjsf3oenpIBezqx678vJRfNBed2zHvmOlKEi21wkhhFzxzOjArK7OMxgYGETL6TZ0dfXh+hsXI/+OW7B0aSbS08TiTUxCXGwsoqOibYtWU6nui7gat7PfJMXRuSW8MteoBqPGcsug8aTQURGIjpW4Mu/q6ce5cz1ijQ/KDcGwSetJ03G+xV6eLg4U3L/ZXhZu34D8IAFWHHdugS9WHjbkBQqwEr9+AzbdbK8Im+5YO7qPN17Sfmu5vSLcV4C1FGBCCJmzXJQI9/acN67f/n4Xjh49iY72XixevAiLlziQkJCEmOhYy+I1AqsaarmafZMHS4RDouGqwbJoxFnW4+NjkZKSgMSEOGNJ93S55EZgGBdG3DKNQGYm7sBAn5Sp1cpnOohlWvHjKllwwKFu49+XoPw3wSOwXaj/xxKYWCZSPUp+VoPgWM5XSlB8xBMHKP9xhdcq9nKqCiXfP6yRrH7i50tQ4bGKCSGEzDmmLcIXLgyhu+ucMVBdrgE0nWhGb28fUtOSRYDjxeqNEuGUf9q3a6xYO6GGyaonWMVS+389fcAeS9YIt5k0haJ/fSKcnp4klnayGdwFdwQ6OvrQ2dmLoeFhjEBd2Vb8jnaneQXmdGj6ZxFOEUHHE5Woe7ZQQpyjxfN4JUp+KCGOnah8uwwmVrB49tSi9DF1V29AyRvVKFkji/tLUREg6C7U/nQ7TKwf16L6yVxZqkfpC6MFnRBCyNxg2iKsVrBHHkfUAh0eMdZpaloKIsX61W1GXHVkswiira2jhFcHVuljSbrsEWDFt2xZ0VY6ICoyEnHxMUhNTURGRrLZpw7W0tHSp06fNS/1GLkgQmxGVVuGtArxlGmrQdkPa2RBhPOhAuQ8UIxSI547UPKKJ78O1DxbDBPrx1tRcMNmFD9tiecOsaA9sRr/sRhlsuJ4Yju23JKHoh9ulVAR9B+Wo97zWPDBchQ/o5F2YvsDy5H3aDFMrOeLUb7f79lhQgghc4ZpibCKZl9vh+njVXdzTHSMeeTIcc0C87iQiqYKs/Vokc49y5bQWqJ7QQTYmjSOSKzZ5rOYLQFVzFaTh0yyHBsTg/nzU3DttQtEiJPMs8JDQxfgbDkrFnG3ZQ3bIq9pOjvPyn6GTV6TpVGs4HLRxNwni7HF9APnYuuTRcZNXP10hSWeBytQ8rxEWiMW8wNWP3DugyUo0kiviqWr4iliXvF0vQQUouw71kCstPuKULpeFg6KsP9SpVrE/IVSkW6J9ew280wyMgpR9GyeLDSi+NnAl4EQQgiZG0xLhF2ubkSJEEZFx4oVqq+YTETWNYvEOk1CdHSkLZiWJWqh6565tWwmq/NWQ00sFWC1e03/sL2saBrFDkZ0VAzSUtOweHGm7DcdcXExuOCOQKdYw52dXRjS/uHhC9YHI3SUteynq7PN5DEpOkQ49cUZDrFsH7Se9VXS/nwrdtji+dxvjopw7hDhdGDz97cizxMpYwO2fs8Wz5/V4Lf/LJasKGjej4tR6H3WVwT9+7agP1aBRhHzYhXz9SLm91l9xkrut4ttQd+OigMmiBBCyBxiWo8odXedwYWRIRHFKETKpN8H3lvzBs63t2PlqmVIT5snpnCgeFrPAusgLXuglky+Z4Ot7eaRJZlrP7IOsNK+XrWS/V3Vus1yb+vAq0EcO3YSBz74FC3OdqQkx+C++/4UX1q9Qm4GJK6KuyaT/BMTxXLO/hOTByGEEBIuLuoRJXUjq6pFR8YjKjJWBDTafNs3fUEqYmJFaEVk1fL0Caf/o0iWAHvFV9VR8zRWswqmzkVk1U09NIzB4SEMXRiS7eqyVhfzsBFWTx6xsdGmD1ot4eSkeKSn60f/R9Db2yUW8LDJXQU+KirKPM+sr78khBBCLhemLsIikCq8EZFRMrdEVb8HvGjRAsSJKOqnCUVJjVirsBpt9Zij9l+jzYotxKK7GBocNm/C0seNWlva8XlTC44e+xwnm7/AyZOn4Gw5g77efiPSHnQE9ryUJCxYkCyWbgyysxdK5hfQ3NwsVrK+kUTFPtK8JEQt7IGBXishIYQQchkwZRG+YFvClsBZk37zNzEuQQRYB2mJQKv5abAsYRVOfaRJ3/08pNPQoLFUPQOz1ELt6enDZ59/gZq9dfhfr+/HW//2IT5q/BRHPv4MTU1OfPLJSXxy5AROiShbAqsjpWW/ibGYNy8ByclxmD8/WZaTjMh7BoSZopoyuDE40GfSEUIIIZcDUx+YJYJqaawImwqdTGqR6pux9PWUEmKsTmPhigaqYJ4/344vTrfg88+b0dLiRF9fvwixfhlJxNgMnhpGZ1cnmk860drajrZzXTjf3mM0XIU1IzMF12QvQmraPIl/AZ2dnUZkLSs8Binz4nHNtfPNazL1Aw7z5qUad7Xl2vb1IQ8N8lEfQgghlw9THpiljybp4z4qsh7cGMGZM068++4HSEqKx4KMedAP+be2nhPRPY+zZzrR2dFrRNXhSMWfrMjGgvmp5tGmaJkuiFCqUJ867URP7zBGhtRyjkJM3LAI6jwkJEYhOSnRfDVJnwnWR5SSElNMX6+iabu6uowgZ2QsMO+nTklJQUJCnLkR8FjsMTFxWLJ0pUlDCCGEhIOLGpil7mNjAXu02whcpAhlkrFC9RWWw8MjaDrxBT54/xg+PnQanxz+AsePnsK5tk6xggdw7mwXOttdYplq/zKMC1tdy2Y5NhrdPT04feoL/OHDz/D+/k/w6dEz+PyzVrGkWyV/7WuOFEtY+4YtqztJBFontX51xLR+i1ifX9Yy6qRlVqu7t0+sa0IIIeQyYcoibPp7PZOu22GxMbFITkkwVnJvrws9fb1Y6EjGn6xchFtWZ2PFihykp88TS9qFL8Q6PnnKKYI6iNi4OBHwOESKcEaLELsHh7AoKx13fWM9UlKTkTo/BUtvyMJIxKCU1upbjpT9qfhae7de3qEWc8aCDCTE66hta8CYYv7aNwwXhqf2wg5CCCFkNpmyO7qn+7yxQo24GaGzkms2zaeacfjwH0RsU9F+vkOsz2GcOXMOx46eRMupDnR2Wx/iTxMxXpiRjuU3LxaBvl6EMxHn288Zi7Vb4ujXkeaJVd3d1SP5jiAuLhb6eUK1dM2nEI3VbFng6pJWcdV+XxVg7ZNWa1ofm7IelxrxWu46qGzFqnxTXkIIISQc+LujpyzCvT3t5jElW4WNDnuszo7ODjR9dhwXhoYkXi9Onz4rAvw5kpJTEBMTjc8+O4nF12WZ101iJApxsZFYmpONlJR56OnpMZ87HBoeQkdHhxm8paKsVm9MbIyIt/YJ6xu5tB/Ys1/rBSA6sMvtvmC+XWx9rzhaLOxYjWWEN8K8OEQHaAE3r7zVlJUQQggJBxfVJ6yiZyYVQGONWhapTslJycjKyjIi6HK5ZOoTqzcZ6fMTcd3Shfj6N/KRu+YmOBwLkL14gfnikhbB6t+FGfmsQrxo4SIsWrQI8+enS9p0pKWlGYH1vuTD3qe1ro8j6Us+ZC5CayxhfaWmWMtqJevgrygRbu0njosb9QXfOc9H//RdfPefPrLXwkzrG3jqu0/hjYv4uuTkacUbT11GdSeEkBBM2RJ29feaflmRPzVIjZvXtzwC12AvzjhP4+Tn+n3hbhFAHXSlg6TUEhWRFUFMTk42ojkw4EJqapqsJ5qBU2oFR0ZEm/1Y4uqxuHVm9QMbARbx1Qx0OTIy2gzG0r5o/cSh5h0fn2DeLx1h4ms8t7GCY6LjkZl1vZXhZFHheGqPXNI9ZGLjE0/g7kx79TJHRfglPISf/KfVdogPs61lI5544m6plY/W15/CU3sRop4f4aXvvgQ89BM8NDq7iTFteQDrJtt+o9reYvWk9q8i/BT2ZIWu+9jY6fx2Orn9eZhcetP23s9dBp9Tk8gjuG0yRx9HQsjlycVZwmJdqiB6lNsjwBqg1mlsrL44I1WmFKTMSzJv0YqI1I1u00+rbmWNpwJrDa6STSKqarWqFeyxdHVd4yeIoCYkJIiwxplHkNStbUZTi5hrPEXjWovaZxyDaImj21Xw1QLWMlufQEw08SfNRy/hu3Khy5QL4E9+Yk9PrMOBp14SOZpNVOzkIj3LRtzqtXJVbz2Aj4JUrrVFA1px4GDQho8krlzmF1/SK70KlF/7yzStG4BJ4Sfcnv3Jzj56afLWe+vrL+HA2ie86Z+4J3NUeu/NjzcOsEf264kzcR5yfjzVjI329p/85CGsbt2Dp2j1E3LFMQ13dJSqrS16gj03VqdMUZH67K8+zxuLhMR4JKckYd68FONSTk5KMqOo1Y2sCVU81ULWybJY9YMN+p7oEdPPq5axvk3Lel+1yr7GMbs37nCRX5OPx5i3hNfzuJOW0Rq4FRkRY8oZG5dg4k0OudCJCmbe80TgRT/zbrl4ykXPXr2iWb1O6hEsth/JurXU2vCRz9ISjDhnSpq5am61St2liubmxIPdRs3+DTEOmV9/Ak983ddAmV/fGNjGYsHukfZdvdFntQbHmTAPWXso4BxcjY0i1DioN0mEkCuJKYuwippJpVas3+QWkTMyKfMosURj42ONVaqWqPbRxsbGmgFWapXqyzn01ZVqRauouyVRlLqPjQhb753u7u7B+XYdUd1jBmkNDAxJGk2nr7nUR5WsEc8q4PJH8olEvFjOnueDLVPdEmcpkgixWtZJZn1SGKtPLm5+F8NRqKX8XbGKzfy7MvlbM0/ZYdY0yqr1prGmp163E3ryNItB2wTTx+tNN9pCC9g+oWVkWbWW5WvT2iqXe7nI651Ha7Mse2jFRw2tyBSB8rTIhHVUl6l3++iyzgQTtYcSUM6n3vCrUxCZmaZuH8nNh5eZtv5Nm67GuoC7OFlfI5uCbnqmgnWDtNh7bAghVwZTFmFrQJS6jS1xs8J8k9jDxhqNjxMRVlewWs4SpsKoAquvq3S5+k0+0SLOahWPiKBqSs1X30MdH6eDsCJx7lwXTp1yovXseXR2WWKsH3lQQR4cVCt52Dx+pKjY6351zTNAS/engq/r0dEJRugni7kQT+qiphazdpOqW9Dq11NheKphndfdOMqlqUIr2z3uRt3euvcla/tqdYVaVo72Axp3pLkRUFepCJ3279rpLDemzzVu3JwH1Uqytj8ksX39jqHIFKtP8vazoFpluVXrbeoulqFXjyxrMDPLapEJ62j3WeIe262qbvyXRvfvTp+J28Nw8CU81bLRjjOR29a++ZA0Rqz1OMmdxeqHLmIMgLmp8bVbwA3PZAnKYxRSTj3O/tY1IeTKYMoirKi4GmG1LU0zsyedqYDGxMSagJEL+oH9YSO+/SK+Xd3dGJTluPg4EeIIDMk218CAPbnQ53KJ4EocEdnICDc627tx8nMnmpu/EFE+j97eHjOgS0df63upVYj1GWEVczWA9WP++miTTmbfMmmc2Lgp9gdPgdUP+bsG1Z2biY0P+V0QV2/Exkw/d6IKrf9gocm4PI2rVETCL53lpvQIpe43sCyr/5MIsVhY45G5Zp2UUy7y9r5VJIy1mynWmVTAKxq2Z8Cy4CauoyXmG/GQx5OgbvwnNk5DJFpFWENYuxO2h80a/7aehNtWj42WU8VaTXupw0bfLqaI3Cjojcck8hhTYMfKw9/LEKrbhBByRTAtETauY/PPSu7RYEWtY8sqVavTbT7QoKLb398v4tqFs2fPoaurF+3tXca67e3rRWenfrDhPM6cPYvjx5tx6NBRWe9ExoI0EYMMuMWaPX3qDE40nRYh7jDia30AYsCMqlb3tVd4R0Zs0R+U/cp2mQYGXUhMSjXlm3mCXJXGahktHDrS1d8KCnTlBllvoTBuTGvAVnA6k6/Z7zTcpsYF6xFPS8gtQbCsZI+L1HgGRLDNdX4SdTRzyWeqxRlN8MAs2yqdqD3GwKqblH6MKGrhf9c76Mm2nKfpStcBVntag25WxmCsMo+Zhxmb4GuTdQ16Pk3iPCKEXFZMS4TVgjWu3Qh1Pnsms8FM1qNEVt+sWqIqln19fTh/rhPd3SLGHT1i3bbi+LFT5p3QbWLhqjjr+6b/+NFJWe+UfFTWI5CcnGCEOC42UdL3oK2tS4RVXz+peV8wIq8WsFq7+iUmtZI1XEVa5/rGrNTUhebGYCqYi3VAn+hUCBYOe7ItMusRoEyv29jjfp4Yn6vZf/IfxDN1/Pojjbj6+iutNhCrUcNbPALmYfw6XhpmuD2MW1fr5Tkemv8TxsLfs3eK8iZ5PbVXWnMqruzgm5ZJ55GJu02ZP8Iev/EDhJDLn2mJsGIsXVU/FUsjmIrOreeGVaitgVNWP7C+QUu/pOQeUaF2m3dIn2puw9HDp3BShLj58zM4fbJd8o3Aosz5xl1tPf+rr8h0m/dDJyTEm2eNVVwVfceHbveIbkd7Bzo6Ok2xrJHSMebNWWnpU78oW27aINfmpBnftWysHo9VOSXGtuA8Fu1kR/H6Yz2q1IyPPP3BdrjXTX5QXb+ZItb+7Tj+voxgSz2nUZwpME57jIFlcUpbhTglQm+T9Sx7cbJ4+5JHP04V+rzy90DYjJPHeATeKBFCLnemLcIqsjrqWRXPesxIlE//qw7LtoiIKBHGEQwOaJ/sCHp6+kWIB+ByDZn4cfGRSEq2BkqdE+u27WwnEpLiceOfZCNjQSrckmbANSiWczeOfvIZTnzabNzOSUkJIq7RsmwN6DIjrfW7xMMqzBFo+eKM7HcY8XEJiI2NQ1pa1pQGZHnJvBsPmeczg0f9qgt0HLefpNsoluVHLwXGMYOm/AP8+iU/+qfQ+QW4KO0+1z0v+Y/utZ5rtVyllkXrv1+zz3EHZtkYsRUrSqwu/9HP3jz3ap+kxPFsmEQdjdi07sFLHsss+OUSit2vGdi+k2TC9rDRgVle69Cu4z3adzwaj0AGWJNSRn2kyCtuE5VZt8vGMfto7b72j/b4yt36+h7Zq99I/InyUIEOGuVtnUM+LwYh5Mpgym/MCsY10GfEMRA3ujraceTjP+CLL74wwtzZ2Y0zZzpFjF3QMVvzFyQjPiEW/X3DYhUPiOUaiUR1PS+cjygR8YTEBBH5aBHo8/jkyOdiBSciMSXWWMlpqWmyC7GoRcwjoyJEiIdEmPXFHDEiwmexJnclUlNTkZKShgULl9hlmia2ReJD3ZW2e9Bsa/Wt+xEsgIEWjSUW3jcirRFBadmD5o2+OJbL2oqgF2PfCGn/Nyn5lcUQuN1cxGGPDh7XTexLF2x5ecsRMMDJYvw6CgFtp67ddTjw3T1Y7Cmzio39MpSQYmO2j/eGrfHaw9qmL73Y2PKUr5wh6hHAqOPt3/7CBGUe+8ZH6+9xcweX23/b5PIYHScwD0LI5ctFfcAhGBXgflevteLJSvRxwNWPE8eO4sgnh2U10rzI4/z5Lhz75DScznMiwkm47Y7V5m1YaiknJSVhxD2ALEeWGVilVmxfb68ZrKWPGumbtjq6OmV5xLyNS/PU0dPqntZvGCeJFa0vCfms6TS+LOZATEwkVt5yq+Rz9b0v+krBCIncJlzafuSL40osMyHk8uKiXlsZjD4HHCdCJ2qu2msmdUurq3qeWKPJKSKYspfEhHgsWpSGJddl4KabFpuP8A8MDIs1HId58xLgyFyA+WlpSIiPM2l1MFe/yyWCm4SFC9NFhGORJNbx8JD1nHFffx+6+rrR2dMNlz4zLELd0+tCtIh3RFQkFi5aQgG+nBGLco8+03wlidmVWGZCyGXNRVvCHoaGBjA06LLXlBF0dXXh6CdHcPp0s3nfs7qOXf0DsiXSPBesb6/UgVNxIropKtamnznSPOtrvqgUrQIvoioRNezc+Q6cOXNGhDZW9qXPB+sgLcuKXrhoPk4c/0Is8AvY8u1vYfHiHLschBBCyOXDjFrCHmJixIJVy1MlXXRdpT1RLNeMjAzzEQZ9y9WAaxj62ku1ilNTU8x7pWNFdPU+oLe3F/391jPDagFrBmaEtcldvws8InkMSB5DON/WjTPOTrSd6UFfr77UI8KMnk5Jicdf3LeRAkwIIeSKYMZEWFEhjo3Tx4hGzOskdYT0woWLkLHIAX0zpb4RS4X0wvAgYvQVlWbSN2tFYHjoAvr7BtDT3Yfurl4RZZd59ldVXT/YryOeXYP9YkW7Jd4g2tv70SnTiD7CFKlWdw++/OXbcPPyW0xZCCGEkMudGRVhJVqEOCFxnvlQg1qz8QkJYpkuMe5mfe63p6dPBFaEWMRTzVwddDUo4foyD303dF9/PwYGh0TAfS/80DgqyMNDI+jtGUb7+V4MDV4QqzoS+lxxVlY2vv71/w25a3PtUhBCCCGXPzMuwoq+nUpfExmjVvHIMFJT5+HGG280VnJPnwvt6nIWq1j3HiEiGhcfa1zX6p5etGghrrnGgXmpKeblHJrXBRHigWHrK0pdnb0y9WFwcNi4qm+/40584xv3IS1tvrVzQggh5AphxgZmjYU+wjQwoB9d6MUnR4/hwPsfmbdapaUnIeuaDLFkYxFrXnOp46pHzCsv9WP++iiSflVJ34bV5+rDuY52nGxqw6dHW9Hb3Y+/KPwGNnzzbsknzdoRIYQQcgUwo88JTxYVVaezGQ0ffIAPDhw0/cdZ16SLBTvPPJakGqwfXTD9yrEx6sk2631iOZ9rb0dHZw/6eqKwatVqfO3uO5CSkmznTAghhFw5hEWE/bFeRXkc7e1n0dvbgegoFelhM2hLfdRqDevLOfT90fod4HmpC7A4+zrMX5BuZUAIIYRcoYRdhAkhhJCrlVl5TpgQQgghU4MiTAghhIQJijAhhBASJijChBBCSJigCBNCCCFhgiJMCCGEhAmKMCGEEBImKMKEEEJImKAIE0IIIWGCIkwIIYSECYowIYQQEiYowoQQQkiYoAgTQgghYWLuifD+XYiI2ISqU/b6jONE1bciEPF39fb67OJ8ZZPUZxcuzd6mSj12RUhb6DRL7XFJ63+qCptm9dwh5FJjXa82veK0168mLu21erpMWYS9F92Q0+UqFmQ2qP+7fBQ/WQf9Gqb7B3m2iEVg1347woxz+f6o6v/O+g3M/sVucm1g3bzwhmL6XBkXcHLlM2UR3qkXXHuqe1ICPBdhM+2EXIqniWVVzd4FnMwsTjQdAgpvyLHXr2bqUfvDQpQ8WYjqX9ZKy1xajOB+q+qS75cQcvGwT5jMHNmbsVtuxnaut9dnHAc2/4ttdV9O7K9F8f2bsPXBTSh8dTdqZ9X6nFwbOB7YLTfFu7E52w4gU+QyPdfInGMWRNivn1Cn4Dt022UZ4L42/bj5KJbF4jxrW2i3ns9a9rj/zDSRy8jk74sfkLfZJuUIKNfk3HiWy89OM6oMtjvLm2eQqz5UO4zHROUL2C7TqPKMd1w87RpY5jFdq2ZfWdjyKlC9OcuXpz15vBleCy2g/UfXNaAd/dKPJshFGFxnnfzrNVGbTNSmk6T+jWIU3lcAR3YBNt1fjd1v+7WbvY+AOoUat+A5D83KeOeOfxtYy1mbq4FXtyDLG98z+fYxuWMRdI7Y0+jzIOg4eDB19avXqOMzVj18mN+1N8xzXvrKFfKc9LSdt27jlMGTd6jjIvi8CuOUz5vf6P1M7TgHY+/Tm//o9tL6j3/tC8xj0ytNdvg4BJwTQW3sLW/gueFfT2+bBbR1YL09ceq9v3Vf3QLb1G//Ex4jJeic9YZfQbgvgron4caTdfaa0FzpLpQsS+rtdXeLu/J+/zh17hL/7Rp/rG0hseJosQurWqwge5/e9foS2V7ormy2Vs26fxlDbTd5lkjuFqZefuuB2HUarwwmjt8+ptQOgbRUFU5cvuA62fkHl2+i46L78cax22Xs42Hl4auzELQfb9nvr5TYJsTar3fdiuOfh5XGV7fA9eBy+xNU50m2SfB6YJrJEHgsTXn96ucps38dreMXIszUS+OPd+6MboPR+xSC6m+1o6Qb81gEtc+o9UCCj5MSUI5R55yn3uMfS187mDVThvHPQyHEb9gw7jkQav9WWOjto+MHtoF/Wovxj3Mwmn4Sx90/v+Bz2BMn+BgHlSEAbSP/8gS3mbdtg8+lEOeWX/sHHmu/OEHnqYnnHxZQp+A2UKwwa7seT/9jHnzOhkp/edDW3umdZlSETUMHV9gcRLuhQvwwfVgNOO6PbVQjWwQcyFE/vGCC9hMqvinnWHmEPrBj/7gsTNuMc4EaC+vk9T/RhKD0uu/gNvHf34THJWS7+p/soQixPahcIcsesN8QBLV9YB5j/6j866tMqk384hvGPe5jEFyfEOdT4L60DoXukiclzFuP8dt6dPoQv7vgugSVw8QZ71iEqPu453TQsQ6uQ+i0/udZ6GMZmM6KP2YZPJh6jP49TfkcCGiDoPKZbcHnbeC1ZPRxmtpxDmZ0fhO0V8jzd2r7DK5TqPPZE8eTZ8hzK+j8sOIE5ROyvIH5BbaBMEYaD4HnT+g2uxzwF+EZdUc3Ha8Gfpgf4FqIyFMncwOa1DWRvRk7nvS4nMdyyUydnBvkcL/ahLEcL8Z94S2T5faefQLdJMZl6OFi2yE7B2tl1tCkjhdrgFSwW9hyUVptMuFxCTMB7qjFW+DXUpPjVBWKpL4lj22GwwRMsk1W5djxp4sTVc9KOz5Z4BuQuL4AJVKDLS/7jqojR46W5/w8VYvdr65FgfYf/7DWOvYmrBCb7vCUZpxzZ7Yw55S/K10Hm8llc6yBd55z+A27nvsrsMVbh7EG7eUg5357cQpMbvBfIXIC+r8nPgccdwT24Tvf3o3q+zehIFQ/+qkmaZ1i5Pvl5bmWWL/D6RznYC7yuJsyrg1qh4mZ+vXROo7Vx01NQxNwjfIQVLYxymva0WbCYxTgAo9AvpyzVxoz3yccMFraM/kGiOT9QNdbUHm/fUKP6tOYWfQEy9q8FnIvZJelTi6Ss43+mPLRUNVi79MNuaOzt1nMdDvIXal3X77Jb7T6BMclXKgA5x+qhNzpWmVqrpTL6dSof1mEW+oXPCBswja5WMxFVeYBNzj2Rcxz4VWMMBejVvu29MKjom0uUlZY4IVl4nNndrAvrF7RknpIm+5+YOzblLy75Zdk11P7xTGWgIWRcc+BgD58J2p/6X8jF4oSv+uIb/K20ZSOczDhOe7huT5OgfGOkQqw3LSvrfcdC7GErzhmXoQPNUlTTYQ98rDe9yO+GIxVc79cROx1f8w2f0vlUiA/wAaRkrHveD1Msx1M/nJfmePLf9y7UmVSx+VSY1tMOqjJDpky+3fJ3W8hKh8cfYTHaxPjPbnINjEX1VAXZnMjYV+MDXkosK1GM4jLWHZWmFoKeo5622DS584MY24oguoy0chgW3RKX6kyVnOwgI1uf7ES5abFOm8dyFllhc4m4/8u5Pf3WIn1WJld/4JxR/ZP5DmawnEOZiaOuwh+4YRlDGR610frOI7roQhxjQrN6PI6mySl93o+zjGSfejvb/xjdvkzoyKc96BcfF7dgiL/0XV6t+IZsaYj7fwsPuvuOVA8A90XodG7de+IOcm/NMQFIAA/gTMvmLCXZxc/157tLvUyiXYIRKxlv1F/xvK7vxJbzclnnaRqjY0amWnvY8LjEmZ8z9Y6UfXYVNzRYj3kycWuqjzIop+4TSw3l1+b2HfVAfvWMLEKQ47IlbLqXXnIC5i5e/dz1QrGajxUi9pDvguthlX/skjO3+CL7zjnzlh43KAXRbC7day6e7AEpnrzFknpfzEM3f7mt+c9b+0boYDf5ky6Eyc+Bwx6I6Huzrdty9UOHsX6ragUi2zLY/6/GR2JHDgKeGrHOZhpHHd/bKvRV0Ytn/UUw7hMeH2UPBf7us2cr5Sa470jwEsy3jVqDEK1qV3vgOv5uMfI72ZXji3d0fqcqFgB8O+HeQwo/xe7QdfvRB18rrv8H8qdt2ebNO3WqkKvO2y8H39hVR1ynrXzlwsnqlrGfDY17wd+Ll/dJypl3d44W2g7iHXrde0t3o1NVfLj9DBuO4RATuaWx5q8j6CMii/5qTXtebzLTG8U+CyZiY5L2JAL5b/UyQ/M83hNFnbfVyk/70miz+fKLLDfz75YTKZNAo5RE3ZMxRVnu6JL7g512Xag4L5AgbEuJMVSXj93pAmrDnRRTnTuhMDxwA4pt+ccn+ZYC+M2LURls58lbJ8zASIWhLnB04Xgi2OI9jfdDn7nnD7LXPek77dZekPLzLpgJzoHDHojIUKwWWQl5LH0oOeqXEvg/yhYEfBsUJfOZI9zMNM47qMZ/Xtqemx8F+3kro9yXtTnoNSOk7UZcp4Ed+vINWm8a1RIQrSp7V4OvJ6PcYzk+Or54j2+sqnyknTdzCwR8mPTkYVXCL5+k/H6qgghU8P0Df5yU4BITur3ZnsQRl84yZxAPQd5DSK6Y48f8fUrz+B4iznOuY4ue2lWXtZBCLkiCXrbl+V2HN+F6ukXv9L75QgJFxRhQojtGta+P9u1J5PldhxvBH09KrTfcsoDewghHq4wdzQhhBByZUN3NCGEEHIZQBEmhBBCwgRFmBBCCAkTFGFCCCEkTFCECSGEkDBBESaEEELCBEWYEEIICRMUYUIIISRMUIQJIYSQMEERJoQQQsIERZgQQggJExRhQgghJExM+QMOJ06csJcIIYQQsmzZMntpcvh/wGFaIjzVHRJCCCFzkeloIr+iRAghhFwGUIQJIYSQMEERJoQQQsIERZgQQggJExRhQgghJExQhAkhhJAwQREmhBBCwgRFmBBCCAkTFGFCCCEkTFCECSGEkDBBESaEEELCBEWYEEIICRMUYUIIISRMUIQJIYSQMEERJoQQQsIERZiQS8YIGn/xGiIe/jWK3xuywwghVzMUYTKncP3uTSNyEX/zPprsMC8jTSj7rmx7+LeobhtA/c90+dfY8W+ddoRZZuQ4an4/Ir+6VBR8KcYTiI4jB7Gr5DUs03LLtOJv3kLVkW57OyFkLkMRJnOK+NwMFOlCWxtqm02QjyMtqOyReUYqJNolx/VuC54TDXasykR+nIaMoKmmFmtLT6L4M1k2sYDDbZ3YUnoQ9fb6XMRZ87q54dhS02aHEHJ1QhEmc4vUJShYqgtDqPkw8ALfdKgTjTLfsC4bOYhD3nfuhfvFe1H671OtCLPKAOoOdMIpS1vX5SBeg9r/iLJf9RnxzfvS9Wgp/6aU5x60fz8HOy9FkcKJ3IwoLntOyNUKRZjMMVJRcGuiWaref9KInsUp1B7QftgYFN6aZUIaX7bcvz5rbAQd772LbY9b4RGPvoaHXz6KDiMUbaj+kYa/hrKPTWShBRV/Y4WVH7ODJF5VsYa9jirfzkWDj8tNgcwj07HxVmMGo2nfKZRr3hlZqCxaCUec/hxjkLZsFUrK7kCeiaXu6gbs+JvXkOV1V7+J8vfazValscLe38dHUfa3Vrysor3Ysa8VruaD3rRZRb9FxbE+O9Wn2PWIpPtRAxrfq8OWIk/eb6Hm9ACa3ngLGz1hP34fhz3JlL6TqP7561ih6e00VWPk+7Bx//8ayx7XfLWyVjtm/WrAxK7+VZ3ZvuMdXe/D4df89mvKQpUmcxuKMJlzpK3LwFZdcJ5HnUernGdQo8sZGShYbAW5LB3wWmOuhnew4YVWlHvSDI2g4p0j2PDyp3AhAzk5+nMZQc2hU9Z2Zwss/R5BdYMd1tmCOhXfxBQsd1hBSsfvW1Am89y8bOSZX50I3WlrcFZBbhZM1iFwfShlKj2FsrYR7w3F4bZubHvhHez60KqAy2QzgC3PHsEOES2N5xwYQtkr7yLn70560zoH+vDwPxw03gDggmWNNp/C2hfkxsFuC3WFb/zR68j/fztR4wk70YIt/5/tLB9pRdUzB7HpwAAO2+1m3OfPvI1qU8DAfCvU/S80tUu+//CBWP0xiDdugBAcOogtv/Lbr5blN8etFULmKBRhMvdIz8EG45LuQ22DNejKeeAsqmVuuaJDIRZadTvq5Sexc+udxk3tLluJ0nSgvv4k6kQYctfNR67ErD10xoia69NOk6fiDftDG8plnivCqnEtOlFbr5ZiJLasu84KQjecZ62ltKSxVEnK9KqWScp920q0vyBlev5PsW+tdTNQ/LvjcnPgR3Iq9vz4Hrh/ejN2Ws4A4NosfFz2Tbh/lI1CXe/rxmEjlj6MK/z5e9H/SKpVZhHRgrvXyP6+iRPftKz2xqPt1k3AwaPYrn3tjiyckDTqPm8plJ2NDKD8LftGxMaTr/u/Z2KDBoioHu5MxYb/fi9a/sLKt/Av8q0ugdvi4GzuNjcIBV9dhX7Zd/uOLGy1ohEyZ6EIkzmIzyVdfuAkOkQE6w6qeeVzRY/mPJqMyoxgV4U9wnr7H7HDWMWDcOr85gxs0l+MWNgNnSNoPNQtv6BEFKng+4cJm77kEVuhvQk1n8k8cT4KVvl+cvH2AOmO3gAp9cNTpjhsued6pGnSGKnbV62bAZwdkLr5KPzaSmxYJJkm3oCNN1th2/78K1ieKgmvXYJNfpa5jzhsu38lHJIsfl2WJZZIx7b/uET2F4mc9Qst8bZxftFnibGzBcseVbfxXmRVW67o2nZ/n7UvX9yYjnwTdgEd/WYhJI61mdgsRa393SEkFL2O4gMpKPnfb7K3EjI38V0RCJlDeF3Sx9rQ4DyJWhVBP1f0VInXX0rkdchbqWtiYf/hOOq0b3hlFravUXNNwz7Hx5/q9hSJ5/tpOd9pRYXMC25b4mcde9zbIjqNLaMfp7ooJN/p/LIlTYK9OB0cMVH20jRxrEHlM1/Bnq+myM3AEMp/dxS5f9tgbyRkbjKdnyohlz9el3Q3ql5qNS7isV3RSiIc6TqPQelf/anljvZOX0fhIt0Wh/x1KbqAyt82oU4Mv803ZiJnhVi4Juyo1e+8apH9CJLShtr9lhW+OT/bCrJR97YZfNXWgm0VR+Ac0M7UEbhOH0FZ8W9RfcZTpgHsflMset081IaaN84bt60jOxkhjdtZJC091lpYtsQeze1rp5at11vbpkBHtzTiyIDp13a+9ia2ve1C/n+8E3t+ugqlyRJ2xvbZEzJHoQiTOYrPJV1xQt2k47milWxsvDNORG0IO37+luWO9kzFDZYLVoi/xXoO2dk8gGrJs+DmDBGkDGyQXVlhQNEt2dYjSEpzEyo1cSgrfMUalK2zfoI19UeRVaRv03oNCX97FDskTXxcNjZ9Q4RYtlfvO4h0HXX8aB02HhI1joxD2Z/fYNJeSuLXLUGJiCNOnLTL62unXVMwWuMTLKu5VuoV8cjr2PqGjnAbRPmvDiFd3dyPHsIOHdSVbN30EDJXoQiTOUvaukwUec7wECLo6ZM1rmbBsaEAjVszsDU1MtDCjPH7maRm+fJJno/8ZbogVve/s+NEJmLDWt9Dvk3viuUq88Lbc0JY4YnI+6sCnPhLKWeGb595jhQ898iXsUGySbvrT60yqfDZ5C3NwL6SAmy+1tpncD0C8PMQB8aTDXb8Uelk3XsTERlpLXvaIO567PzRGlSuikOenZ8Xs69Q+Y4OS7tzFXbfGGm1SUwM8pfOh6NgueQbg+V2HK1nXfF6a4WQOUqEW7CXJ8WJEyewbJm58hBCxuUUKh5vwMPtidj9zNdQaFzLhJC5xHQ08VxHl73kvT8lhMw4H5+0njkWi66AAkwICQFFmJBZ4nCDNYCq6PYcpFlBhBASAN3RhBBCyDShO5oQQgi5QqEIE0IIIWGCIkwIIYSECYowIYQQEiYowoQQQkiYoAgTQgghYYIiTAghhIQJijAhhBASJijChBBCSJigCBNCCCFhgiJMCCGEhAmKMCGEEBImKMKEEEJImJjWV5QIIYQQYnExX1GasggTQgghZPrwU4aEEELIZQBFmBBCCAkTFGFCCCEkTFCECSGEkDBBESaEEELCBEWYEEIICRMUYUIIISRMUIQJIYSQMME3ZhFCCCEXwSV9Y5aK8FR3SAghhMxFpqOJfGMWIYQQchlAESaEEELCBEWYEEIICRMUYUIIISRMUIQJIYSQMEERJoQQQsIERZgQQggJExRhQgghJExQhAkhhJAwQREmhBBCwgRFmBBCCAkTFGFCCCEkTFCECSGEkDBBESaEEELCBEWYEEIICRMUYULmLCNo/MVriHj41yh+b8gOI4RcTlCEyVWD6723sEwESUVpWcWndugcZuQ4an4/Ir/yVBR8KQY49i7y7fp7pqyivdj2P4+iQ6JNjjZU/0jTvobyY3YQIWTaUITJVcIA6t7tRJMsOeSsb3r3C9RPWniuTFzvtuA5qaNjVSby4ySgexD11iYvzoEhlP/uCApeOAqXHTY+Q3AN2IszRGOFdUOw60M7gJCrCIowuToYEKtQL/I3ZqNspcxH2rHn3RlWk8sKuek40AmnLG1dl4N4K9DCkY2WF++F+4Wvo+WBFORKUOOB06ibVHNkYfOPJe2L30TRjXbQReLyeMov2HNCriIowuSqwHXgDMpkXrhyCQrXpZiwigNNAdafZZG9jqpjJ1H193st1/Wje7HjtZPeeFOK03AIO7bL8iNvoqZTNox04/Brb2FjkW7X8New8f98F/VtapK3o7rECi+u91PD5vexUeMWNxhBRd9JVP/8dax4xIq74m/ekrL0magBeG46ItOx8VY1g0MQGQfHv8/CBrMyiA4tozLuPjpRU2qF+yzXEXS89y62PW6FRzz6Gh5+OcjFLXlqe3ny3Pj3B9E09Cl2yXr+AStK8c90215UnLDWCbkaoAiTqwC1CrtlHodN6zIQf0sGimTNeag1wPqzLLIBbH/mILYcGjKuawwNoexXH6GswYo4pTg/b0KZEV8RuP4BNL78Flb8SkTMs8+REdQca0V+yTtoHEhH7s0xJtj/5sD54XnUyDz3pnQ4RlpRJfvddGAAh22BO9zWiS3PvI1qo9A+On7fYm46cvOykTfWr3xkAE17PkeFLmfMR+4iDZtoH0Po6DDBXsvV1fAONrzQivJ2ax1DI6h45wg2vPypVQ87T20vT541h06i+I1+xAeY6IRcfVCEydyn8yiqD8k8fT7yHDJPXYKCpTIf6UStLZwBXJuFhmfugfv5r6BysQaMoHj/52aTl0nEcSamo67sm3CXfxWb8UeUmE7oGJT+9Z1wqzv4mZuwM1GCetpRKaKXc2uGsUqdh86i0YhVG2r3a/kisWVdDnDwKLY3y6ojCyeeV5fwPWgplAxETMvfOqUJbKRe9Wq5arrrrCB/nKeQpRbrI69j2WsDcEZKmbashOxhCvvw0Ibq6nbUy752brXrVbYSpelAff1J6ybHk2diKvZpm71wJz7+RiKy4hZj+0/vRd06kxFKvmPtb+sya52QqwGKMJnzdBwQK00X2lvs0dFvYdNnZhN2vXc8wCWt5H85B7npYpXGZKHwa5brGl/0WO5gm8nEKfzacuSlyk8sLk629aJaAx2Z2PIlO376zWKZWz/Bpnax1BdnozBDVkbaUXtQVNh5Ers1w8T5KFghq1/0Wfk7pR6PWq7brGrLTVzb7ueSbm9CjdZP062a+Ce++d412L5K7wamsA8v59FkEoxgV8WbxtUcsf2P2GGs4kE4Ze7Nc0UWCrTNIlOw/D98DaV3pWooIVc1FGEyx/FYhWNw6MwkByRdCkSk1lku6efk5sB56LwR7oLblpjBU+PhiImyl0T03mk1LuYx05mBWd9E+45MFMpq1a8+QNnHtp94HPz3MVnieYUhZFz4EyFzG69VmIEGdZV6p6/gRbU60Y2aA4EqXPdBEw53iigNtaD6t9qXLAKUkwr1ZHuYTJwA0uJRoHPnWew+YsXHmUOoPGCJ39pr5pt5zu2WMDo/bkFpg948xGDzV7LNtrT0WDPHsiVoKf+mX13uRcvW661tXhe2pMu30oUmEmk3fwXFt+klYASlv/kjtKt3cvvwJxGOdJ3HoPSv/jQgvvvFr6NwkV+eUqfadu0wH4Lz397CttfarHCblh6p79AAXBPfDxAyZ6AIkzlNx4E2YxU6VmQEWYVideZaVmfZ748aAfLgbG7Biu2vIeLR97FF+zLlZ7Ijz/SYeplMnACW3YTt5pGeAWwrtd22329CmeiOY3E2Nq+xf4qOJdikSt7XiTJ9GUZ6BgrsPtL4dUtQkiwLJ04iq8h6E5Zn2tVgxUFzEyrV95sh6Uxf9XhEIveeayzRP3YKu6Uek9pHANnYeGec3HwMYcfP3wqI7xnR7c1T6nTX43tl215k/aITLSa9bE+06l7+i99Ke76OMu2/J+QqgSJM5jR1H1qu6G3/7gYz9ydn7Xzk6cKx82jwPKsqFH51CZ67NtJYtY64OJQ+chu2rwj8qYwXJ97S9iBXbCo2PJaPfbclIs/ejphIbL3tJjR+fy1yvHFFPPNV1Cw23JptDZhS4q7Hzh+tQeWqOF8eHmxPcdO7bWY0deHtOb50HiSOyVf268WxEkVf0oUh7Ppt06T2EYxjQwEat2Zga6rVHl48+9E8i29G6dJIq0yRkdiwKhslBcYVgdz/cBNKMzxtmYLcJSaYkKuCCLdgL0+KEydOYNkyDl8kc4/6n1vPrBb+RT52f9MSiGAmEyd8nELF4w14uD0Ru5/5GgqNm3iGGWlBRfH7ePiMNZp551o7nJCrlOlo4rmOLnuJljAhc4ePT1rP6i4Va3o2BNjZgE2PWAKsfcG5obqICSFTgiJMiE28/WKp8Ub0TiZOuDjccB6NMi+6PQdpVtDMEhmJdK13TAy2P7AKG/iEESEXDd3RhBBCyDShO5oQQgi5QqEIE0IIIWGCIkwIIYSECYowIYQQEiYowoQQQkiYoAgTQgghYYIiTAghhIQJijAhhBASJijChBBCSJigCBNCCCFhgiJMCCGEhAmKMCGEEBImKMKEEEJImJjWV5QIIYQQYnExX1GasggTQgghZPrwU4aEEELIZQBFmBBCCAkTFGFCCCEkTFCECSGEkDBBESaEEELCBEWYEEIICRMUYUIIISRMUIQJIYSQMEERJoQQQsIERZgQQggJExRhQgghJExEtLV38t3RhBBCSBigJUwIIYSECYowIYQQEiYowoQQQkiYoAgTQgghYQH4/wEwhjnHimnB8AAAAABJRU5ErkJggg==;" parent="1" vertex="1">
          <mxGeometry x="329.4" y="34" width="317.6" height="173" as="geometry" />
        </mxCell>
        <mxCell id="iZ3yDexl_o7XQbrObsBM-17" value="" style="aspect=fixed;html=1;points=[];align=center;image;fontSize=12;image=img/lib/azure2/identity/Users.svg;imageBackground=default;" parent="1" vertex="1">
          <mxGeometry x="337" y="66" width="30.66" height="33.53" as="geometry" />
        </mxCell>
        <mxCell id="iZ3yDexl_o7XQbrObsBM-21" value="4" style="ellipse;whiteSpace=wrap;html=1;aspect=fixed;" parent="1" vertex="1">
          <mxGeometry x="769" y="258" width="30" height="30" as="geometry" />
        </mxCell>
        <mxCell id="iZ3yDexl_o7XQbrObsBM-24" value="5" style="ellipse;whiteSpace=wrap;html=1;aspect=fixed;" parent="1" vertex="1">
          <mxGeometry x="840" y="390" width="30" height="30" as="geometry" />
        </mxCell>
        <mxCell id="iZ3yDexl_o7XQbrObsBM-34" value="1" style="ellipse;whiteSpace=wrap;html=1;aspect=fixed;" parent="1" vertex="1">
          <mxGeometry x="447" y="468" width="30" height="30" as="geometry" />
        </mxCell>
        <mxCell id="iZ3yDexl_o7XQbrObsBM-36" value="Test Plan&amp;nbsp;" style="text;html=1;strokeColor=none;fillColor=none;align=center;verticalAlign=middle;whiteSpace=wrap;rounded=0;" parent="1" vertex="1">
          <mxGeometry x="567" y="526" width="120" height="30" as="geometry" />
        </mxCell>
        <mxCell id="iZ3yDexl_o7XQbrObsBM-37" value="Azure Boards" style="text;html=1;strokeColor=none;fillColor=none;align=center;verticalAlign=middle;whiteSpace=wrap;rounded=0;" parent="1" vertex="1">
          <mxGeometry x="350" y="530" width="120" height="30" as="geometry" />
        </mxCell>
        <mxCell id="Ebmc-VcEYs3Wesn4mwOp-1" value="OR" style="rounded=1;arcSize=10;dashed=1;fillColor=none;gradientColor=none;dashPattern=1 1;strokeWidth=2;" vertex="1" parent="1">
          <mxGeometry x="541" y="280" width="167" height="85" as="geometry" />
        </mxCell>
        <mxCell id="Ebmc-VcEYs3Wesn4mwOp-2" value="" style="shape=image;html=1;verticalAlign=top;verticalLabelPosition=bottom;labelBackgroundColor=#ffffff;imageAspect=0;aspect=fixed;image=https://cdn0.iconfinder.com/data/icons/logos-microsoft-office-365/128/Microsoft_Office-10-128.png" vertex="1" parent="1">
          <mxGeometry x="558" y="298" width="48" height="48" as="geometry" />
        </mxCell>
        <mxCell id="Ebmc-VcEYs3Wesn4mwOp-3" value="" style="shape=image;html=1;verticalAlign=top;verticalLabelPosition=bottom;labelBackgroundColor=#ffffff;imageAspect=0;aspect=fixed;image=https://cdn0.iconfinder.com/data/icons/logos-microsoft-office-365/128/Microsoft_Office-07-128.png" vertex="1" parent="1">
          <mxGeometry x="640" y="296" width="47" height="47" as="geometry" />
        </mxCell>
        <mxCell id="Ebmc-VcEYs3Wesn4mwOp-4" value="Outlook" style="text;html=1;strokeColor=none;fillColor=none;align=center;verticalAlign=middle;whiteSpace=wrap;rounded=0;" vertex="1" parent="1">
          <mxGeometry x="618.5" y="344" width="90" height="13" as="geometry" />
        </mxCell>
        <mxCell id="Ebmc-VcEYs3Wesn4mwOp-10" style="edgeStyle=orthogonalEdgeStyle;rounded=0;orthogonalLoop=1;jettySize=auto;html=1;" edge="1" parent="1" source="Ebmc-VcEYs3Wesn4mwOp-5">
          <mxGeometry relative="1" as="geometry">
            <mxPoint x="830" y="460" as="targetPoint" />
          </mxGeometry>
        </mxCell>
        <mxCell id="Ebmc-VcEYs3Wesn4mwOp-16" style="edgeStyle=orthogonalEdgeStyle;rounded=0;orthogonalLoop=1;jettySize=auto;html=1;" edge="1" parent="1" source="Ebmc-VcEYs3Wesn4mwOp-5">
          <mxGeometry relative="1" as="geometry">
            <mxPoint x="960" y="324" as="targetPoint" />
          </mxGeometry>
        </mxCell>
        <mxCell id="Ebmc-VcEYs3Wesn4mwOp-5" value="" style="strokeWidth=2;html=1;shape=mxgraph.flowchart.decision;whiteSpace=wrap;" vertex="1" parent="1">
          <mxGeometry x="790" y="288" width="80" height="72" as="geometry" />
        </mxCell>
        <mxCell id="Ebmc-VcEYs3Wesn4mwOp-8" value="Approved" style="text;html=1;strokeColor=none;fillColor=none;align=center;verticalAlign=middle;whiteSpace=wrap;rounded=0;" vertex="1" parent="1">
          <mxGeometry x="880.5" y="301" width="59.5" height="17" as="geometry" />
        </mxCell>
        <mxCell id="Ebmc-VcEYs3Wesn4mwOp-12" value="" style="sketch=0;aspect=fixed;html=1;points=[];align=center;image;fontSize=12;image=img/lib/mscae/Azure_Test_Plans.svg;" vertex="1" parent="1">
          <mxGeometry x="602" y="476" width="45" height="50" as="geometry" />
        </mxCell>
        <mxCell id="Ebmc-VcEYs3Wesn4mwOp-14" value="" style="shape=image;verticalLabelPosition=bottom;labelBackgroundColor=default;verticalAlign=top;aspect=fixed;imageAspect=0;image=data:image/png,iVBORw0KGgoAAAANSUhEUgAAAVoAAACTCAYAAADPwdG+AAAAAXNSR0IArs4c6QAAAARnQU1BAACxjwv8YQUAAAAJcEhZcwAAFiUAABYlAUlSJPAAAEOhSURBVHhe7d13kCZHff/x77M5h9u9090pBySEokEgAUYEk6MBY+yywWCwy6aMcZXtKttgY2z4x0W5XA4YjBPJPwMGY2OCiBIgklAAFECgdKecpdPFTb9+zW5Lo4dn7/bu9tnbFf2p69vneWamp7tn+t3f/nZPT2Pnzp1zUVRUVFTUNnUs/C0qKioqapMKaIuKiorarALaoqKiojargLaoqKiozSqgLSoqKmqzCmiLioqK2qwC2qKioqI2q4C2qKioqM0qoC0qKipqswpoi4qKitqsAtqioqKiNquAtqioqKjNKqAtKioqarMKaIuKiorarALaoqKiojargLaoqKiozSqgLSoqKmqzCmiLioqK2qwC2qKioqI2q4C2qKioqM0qoC0qKipqswpoi4qKitqsAtqioqKiNquAtqioqKjNKqAtKioqarMKaIuKiorarALaoqKiojargLaoqKiozSqgLSoqKmqzCmiLioqK2qwC2qKioqI2q4C2qKioqM0qoC0qKipqswpoi4qKitqsAtqioqKiNquAtqioqKjNauzcuXNu4XNR0YOanZ2N3bt3x/T0dPV5X+rs7Izu7u7o6Oiogu9FRUXzKqAtaimQve222+L++++vPu9LQ0NDMT4+Hj09PdHb21sFwC0qKjoI0M4kI2dqJuLmO3bHnXfviV1Tc8nyeWQzu6u7I3r7OuPwyZ6YGOmK7mS0dTQWNj7CdPfdd8cFF1wQP/zhD+Pmm29e+HVxASvYDg8Px+TkZBx99NFV2Lx5c3R1dRXoFv1U64BBu2P3XNy3Yza+8d374/s/2h7375hJ3cw1DNq5faS90Yj+oe4YneiNsx89GKce1RdjA43o7kqbFnZ5JGnLli3x7ne/O774xS/G9773vYVf9y4wHRsbi+OOOy6e8IQnxFOe8pQ4++yzY3R0NPr7+1MRPkJbpaKifeiAQfuDLbvi/Eu3xYWX74grt+yOqUgW7cK2taaOmenonk7d4wTbuYTN6ehIeXkICh2djegZ6I6RicGY3DQaR67vipMP745nn9QVm0Y6Ksv2kaatW7fGv/7rv8bnP//5uPjiixd+3buAlOtgcHAwJiYmKuCeeuqp8aIXvSge85jHVL8Xy7bop1H7DVo7cxtccNm2+Kf/vSMu37Intt41k/rVacNK1yFgnDt4vHfOzETX1K6EVqCN1Gh0LoA2fUtg6OrtjuF1AzE2ORxj64djoKcRx0x2xItO7YpTN3fG4aMdkVjM6H3E6MYbb4z3ve998bnPfS6+/e1vV78NDAzE4YcfXlmo3ARzVfnP3z67du2K7du3x6233lr5dQ2ijYyMxFFHHRWvetWr4mlPe1o8+tGPrgbMiop+2rTfoAXZnVNz8YkL74+//MAtsX33bKpUacOhgMzcdPo3tfDlwAWwoJ314Ce/JQute6Q/Nh45EQPDfcm6NaoeMdwTccL6Rvzs8Z3x7JO7o7erEV2PIGOtFWhB8xWveEWcddZZlbU6kxoogW655Zb48Y9/HJ/+9Kfj+9//fmzbtq36nc/2Z3/2Z+N5z3tevPKVr6wAXVT006b9RkO22hJvojd1mUEpo862tgU2ZgJrPcTsTAXJgw0PJd7f2sf039B4f0xuHIu+wZ7oTCT1G/7uSJm+/s7Z+O7W2fjGNdNx+7a16jhZurgFNm7cWA1yHX/88XHCCSfEiSeeWIWf+Zmfiac+9anx8pe/PJ75zGdWQDUtbMeOHXHFFVfE5ZdfHvfcc8+SZjAUFT3SdEA2GMgO9zfiqImu6OvtiN2z813u5VGKCcl+Iswm63XPwwLQLqvSafL5Gh3JQu3uitHxoVi3YTi6e/hGHpIZF3dsj7jylpk4/+rpuOGu2crSfyRPvOBf7evrq1wI/K2sVe4B4YgjjogzzzwzXvayl1XWq6le5tJOTU3F9ddfHz/60Y/irrvuqlwMiwmYWciOsV/qbVWg9heg/c4lkd0Vi0kc9svB930dY3s+fz7O970dd6DH5DzKk/zlPO7Zs6eKY2/HZ+V48nkF3+uSFr/ncvO96NCo8y1vecufL3xempJF15HMuo5EpdGBjrj5nunYctd09CQwsfYOSunmmZtlqaYwl26aeqhukn3fgHtXOj5HUaW1luDq5n4o/oGR/lh/7GHJoh1Illy2ex/av7J603/TKVn370xgTt9N9Vo32FG5Eda6+Fm/+93vxjXXXBM33XRT9ZsBLrMIWLSmcLUSH+x9991XTQt74IEHKr8tmeZ1xhlnVAAG6GaBANjce++9lZ/XrAfnvu666+L222+v4hIAA+wXeyBCPM4vOLcA2tJlmtliAiPA4/IQHAdmGheh1YwJYGw+xvmlzf6LHWNfc5TlkbvFX99zWZkqt68HPsRjCl4uYwFoHeu80mGbXoTyU27yId4yILny2m/QunUAxbSmdcOdcdcDs3H/9tnYvlPLPg+g/RLAGdCqQJf+slLz93pYFLL59/qJ/Za/146r4slK2x+2S/ovbWfJ9g31xfD60RjdNBrdyWK32/zgWD5gXvIKtNwIU9PJupmZi/GBdHwCbV/3w/ddazoQ0KrgYAaWV111Vdx5550VDGjTpk2Vxbt+/foKtnUBgfNccsklcemll1Y+XuHKK6+MH/zgB3HttddWMAJdc3oBBARZ1c1AAyBuClPS/AV8/mZWN3fGYtAUvzQ7P1fH1VdfXf1uWtpi4BOvMnIewTGALq/N55Eu55AnPm/pE+TTcfIvPr5ujQRo6jmIpxUYNUbnn39+dbzegjLSUBmsVP718pQf15OUgfwUraz236JdUHd3R4wOdsVwbyP6031w1ZY91bzarv215rgEZhKpKss1A3epmofjg6pu7IXfqmSk//YnvpSGzpT+iaOSJbthpIJG5cWdm/fmtlKu6PfumIv7UzAgpkwOG13bVsOBWrR0xx13VNACRRAl8OHHZdmKp66LLroo/vd//7cafPuf//mf+NrXvlZNKbvssssqkEiHfS688MIKHjfccEPlLzYgB4B1S5WF+fGPfzw+8pGPVHF96UtfqiB40kknVe6NbPE16ytf+Up87GMfq477zGc+Uz2sAeSHHXZYrFu3riWcpOeDH/xgdZ5PfepT1TFAZ/CvGY7K87zzzouPfvSj8e///u/VvvIkb/Ior9/61req34BTGvnBgbvVTA0Affvb316Vm7R/5zvfqazWJz/5yVXjJD3vf//74xOf+ERVnixb5eTamTVStLI6YBqwakH12M298aRTB+P5Zw3FY47sjV27+a0WdqprdroC6k+EyoJdgOP+QLFSSsSDlSbHsfA1q9r+kxXrYUrHzU7PRN/wUIwfsSH6Rgeii0924bClpIrFe8+uBI0bZlKYjqtvm6lcCj+N4ntkmWUrisCCVanbzxoFBdamubrg9uUvf7kCKCCw6HR9WXSOAa3sDhAvOIHiO9/5zgq8uctOAMU1wRLVRRcfy5o1yQrM+zUL3FiaGhXHsApZ0CzF5gE81ibrUXysUWkS75FHHllZ680gF698/t///V+VXukRv0Yhu0GkVf64EFi9Zns4BjSVVbPflqtDHDmt4vJZPr7+9a/HF77whSrtuTzFL83NftyildFBm13rx7rj9OP64wVnD8XZJ/ZFf+oys//m3NAV+IRktQJqAutPBP7YJaFsMdVBKp7muBaDbE7bfFA3BsaHYnTzZPQOek5/seNay/47pxtx1W2zccnWmbhsy1Tcvm2mcik4xU+DwEAXWcXWDQYAAkpAYRkCoMpuH1Yc6+6Tn/xkBU+wYG0BFguUT5cV7GEHU8uyy0HcQPKe97ynggo4gRGBFqtSyJYuKLGu7dcMWt+l2QMaoCkNJC9ACv58vHXQST+4G9wTL4B5Ik5aWc1ZuSy++tWvxgc+8IHKinUeZcBSZrGefvrpccopp8QxxxwTGzZsqCxnvYBvfOMblbXMvQCSewMksMu3ho1l+81vfvPBp/n0PASNj15AKzdEUft1wK6Dujo7GzE23Bk9qd/claB67wO74877dkdnA2yzS6C1JbH/AsaFjw9qXyRrsV2FS5DnV+3s7YrRyeEYnhiJ3qG+yk/bZJQsSW54Yeeeubj53tkY65qJ0d5kmfV1Rud+gvtQ60BcB6AFgio7EGb/LMv05JNPjmc/+9lVHMCnO+vxXt1l5wIA20wRe9Ob3hTPf/7zq2li5557btUV9xcogBB4gFVZ5661qWYAlq1lEGRJgiR4cV2A4KMe9aiHuRr4ewFYenXh6+I6kE8ABdIMKRau+MFQPpwP2J/xjGdUT8KZAke5QciPMUuLPILrL//yL8frXve6+Lmf+7l4+tOfHs95znMqtwpgcr3Ip3ISF6ueb7vuvmCtmrMM5PJsX+XiWgkaNnErN+nPrhPuljKXeeW1LM1bd1cjJke747Tj+uJ5TxiJM9PfjaNd0ZhrJJYlyGX3wJJl30WCP82/LaqF7c4tDbXA4naDdvV1xeBo6qKuH60g63HbA4FsFst221QjbrhnLi7aMhOXpmDAcPfU3tK5NqS8WGlAkwNrLluwQAUs2Seo8oOayg1wuVttG6sLkFm94lT5+RdNDQOsJz3pSfH4xz8+Hve4x8UTn/jEB2Hk9wwKVp5udu6OSw9QsRaBz/nASfxG98Gp2TIENG4FkAJsYM0+TDDNg1PizvLZ7xoScWtgQJmF6vgMe8DzCLM0Oo/47fOCF7yganRA0JoQ55xzTpW/Zz3rWdX6ENmXzGpWpvKnnBeT84G49HB3APZLX/rS6jzPfe5zq+AcroFGr2jltaz9iCM29MQzzx6NnztjLM48dig6u3piz+x+LgQAinsLewXrImJVN7ks5mYSaKMzhtcNxthhYzEwORrd/T0LBxycwHauozO+eWMjzvtRxPV3zcYDuw4g3atMIAUYrMAcgBJ0wMCgEL+iARrgIpYVWLKEgQ+UdI1BFoAAiQCKlWddBBYc6zULrIEMjMAjuxCkR1ecH1MagInVCZS64axYUAYh1rlBsXy+LOkEYDCVVpZx7v4Dl/hBvA46ZcDSzwN9JH0aFBZrbpA0PnzP5hFLl3xxh3gkmYXfLI8oA60HQORRPNKsrORtX3IOgNYb+LM/+7N44QtfWIFcgyWwtltNrStqv5YVtADT290Rjz9lMF7wxNE467iu2JCu6+6p2VTB6qBZgGarcCAgrYuLYiZVpnrgJliQU/jal6A6OTEUw+Mj0T00EHPJ0pJE6VyWkE40PduIm+6L+L8rZ+KSG2crl4JHmNeqWHhG5N/1rnfF2972tioY+TYolR/X5dNk8YEEywpgwUMlB09xsLq4CzL0gIV7gB8WsFi9zfIb14A4Wb6OIbAFfLDU5c7uBLDNft1sYYIlaAJlFljy8wI1KHu8WDebNAryIs31gT3gzoNmLGjde37l3EBIk/j4bx3vu7Sb3sYf63PdfZEFkuLQQOR0A6xGQJr1EPYmVjxLlqtAOYovu1YE52xVtkXt17J7xl3Hk47uj6ecORRPOa0/TtjMP7mwEeUeVIZqc9gfpf3FWQ8omh96yGHBP5y2VjdaR2dXqlT9Mb5+JPrHhqJrwZJ1Yy9naKR8370r4mvXzsbFW2fi+ruTZWtWhoSsQanwoGTE/73vfW8VWLAf+tCHKn8hqxb0WE1gASysUPAy2KOig5OuOlhlsQTtwxpsBaAsUDOgltdayAIhgM8+YfsBlm66/bOAlj82g9Y1Al7pBlxwYnGCIVCDJsvUMfJO4At+ddCygPmtHe87qBtIqw+++V3+/DUzgBXeHPwuXsdkf7DzO5/g894E+NwEuREqWj1adtBmrR/viReeOxnPOms8jt/QHYNdyarVIrvx5ok3v+PBCLGaXAKVm2ARzSYLs6urOzYkS3Zkw1h0bRiPzgRZN3W7gmyycC/ZMh0fuGh3XH37TLVIeqrjjzjJr0Ejgz2vfvWr4zWveU31SC4rNAuwAKgOWoACRFbXvmQf+zomC4BYnSCfldORB6YIrECeuwNk8wASy9M2FiDL9LTTTqssbL5e6QRxaXaM77mxAHbgPPbYYyuXQ24kgNI5WMEZtOLnRvi7v/u7eOMb3xhveMMbWoa3vOUt1SwMVn+WdIqvbom3EteH/JbBrtWntoG2v7cjjt3UF+ecMhwveOK6OOGIgejrTRXpQGcgIFPTgNbDZjQ8GBYjWCMa3V3ROTgQ/ZPJWhkbjI6+lB7+1HRMuwL5e/sDs/H9ZNV+47rpuOLW2diTkr7WpAKDkEEcg1b1wLcKqr/4i79YdV8N9rA8s6WXlS003eksgNOdBq19yT72dUwWmOmi1/2vBn2cO/tzCYgNigEleLFmuRtYuixglqn9WeP8pWANrNlPS84DoCxg8UmPLrtjc0MhPY4DxnwPOB93Ar+0gUAzFloF1rXz1V0V4lBuzf7lLL001need1wvm6LVobaBNvGreub/zBOH47UvOTwee/JErBvpcxem3jxA7qdJB6LN1ivYLlUpPR39fdE5PhQdk2PRGExpSWJw/IR/dZkDqSOeHvvCD6fjyz+aqqzatSaWJIC+/vWvjz/4gz94WGCJveMd76gGYX7rt36rGuWuW5NZIASyGUDEEgQKFvG+ZB/77s3FQPYxJapu3YGXubKsX+AySKWrLi0sWQNUGgXAAk+fgdWglmPIcQAL1kAKtMAs5DRlMIJrPZ/tUvZfSy/ILqXBKlpZtQ20WT0JtuODnfGMs0bi2eeMxbrh1KVucCPwny5yE1ZQTdsPFKpN0n33vq+xyaFq8e6OlCYVYGbmIatzJcRZ0pfq4s6Une8kq/bGbWsLtiw2swNYb7rK9QBUfJAgpaLPu03k+OHym+31bSw1UMrd7L3JPvatW3fOBTB1+AItP6u06tqDEDiyGPlPxQGg2Y9q4Ixv1n6s2mzRAi0Ys0Ydz43A4gRS5+CP1gDV59nKm7IScj7tZ/rWb//2b8db3/rWqkF685vfvKRgvq2pWdK2N7Uq76LVobaD1kDYQG8jHveogXj6Y4fjlOMGqsVo5q0aXf1FQjWQleD6oJsg/XYgSvdeV29X9A/3x3CyZgdH+qsKga8rBVmn6UpGhnIYGeiI6VQhrro7Ysv9c7Ftj9kJCzuucgEkCxFYTJ+qB3ACgqVYmhnGWbrZrMS6O2Ex2YfrAQCznFO6+CizxO88QGsWgbTxx5qWlf25Bp/4Wt0HLFgwYxmKC5yB2jb+Ua4Dwf7AC9Tg6TiWs/gzaP0Vj5DhpyHID2382q/9WhX4sZcSTNOSD/kpWptqO2iJG2F0sBGnH9sfr33+xnjSqSOJPmlD8zSsHA7Cen2Y0nkr0I8Px/gxR1TTuFZaFdCT5T6aIHv0pFHzrugY7Io7dzXi2nvm4mpzbBNsf1oEXlwKdT8iS9GAFODuSwDLIs2zAAhgDbiJu1ks7cc+9rEP89Xq8rNkLeBi8RsWbfbNSpfgu/jADTjB3XlBln+WRQ1+XCQGzerWq/0dy1+af7M/wIvH76z/5sZqsaBhA+1641S0trQioKXuzkb1iu7Hnjgc554xHk8/c7RyKUzvmU4gqlmyVVge8HT2dMfg5FgMrhuL7mTRdjArV1Csoc6OuRjsb6SK1xFj413R05es+VT5dqe25NYdET9Mlu31983FnTvm1uy0r/0RaIAfcGTpilv3APz2NrLOijTS73FWlmUW0IpT3M3yG+u0fj7HWh3MeQ2EZStd9591LOQ4TUvz2aAZt4PBNJ+BkyXLSgXVercdEG0TMhw1EKBuIR2wJfEuFrIf2vHiBu/6OYrWllYMtNTX0xkbJ/vjaY8di1c/Z0McPtmdKs/ygbVZ3emGHT18c/RP8J8d3KO1ByLZwvaxkWThJMgOjHXFXGpwqrHAtJ1Ve/W9jbjijrnYev/smn6YYaliyYGXrnYGB3gZcffQgQGrVi4dv4Ewv6rlCQ1qkTjEVV90pi7WI4sTvLLMWbW0IAvT7/zOQGtfcAM1oDMPNz9gwJJ1DFhm0AIziNcH3EgcrHYhAxLQgRrg+XvrMxKa5Xfxs/AdB9KL7Vu0NrQsi8rsryxCMzjQGb09qcVOANxy265qlSu/L4vSjT2wfl0MHzYRfSP90Ujxuk3dq8sd5k+3kO703RNh1e8pDKTescV2Jia6YsibF3rmYc+dkR/iYMXyHHg1js/dXB2rYNFwwNvfRWWWolxWIAcioKXrLjgnAAFY/s2gk9912z/72c9W66xayNqxgGYKmcVTrIFQH5DKYhHy63qMFeDEZx9WJZ8rGHpDr+PlK0s6pZGVDa78tNwVjvEXBLkNTG1zXmCuyznsl1f3kgcCTHmWpuw+8Vm6xJnn9VoQx6PMtgF5s1+7vqiMtIrLgwoG3Iovd/XpkIC2J9FkaKA7Roe6o5FuyK237qqmO+1J1q2bZqEu7qcS4FLF5B7o6euN4Y2TMbBuNDp7UsVL8fGTztN2mYPIF9Jc/ZQqkqquToDseLJiR0e6UkVIls383tW+ef/qrcLTjdgz04jdqbFJxRIjvamrmLYLh0rtAi1YZGCACwuV9QZGYAqAoAVofKGgAyrgauFsc1BBjyXKf2mhGU+feVKsbrVm8Z0CtsVZxCVfXBAGw0DdjAmwNMugOU/SArasUGlxrN/EZyDMfGJgA7k64N3D8ug8QMkHDfKOc04uC5+zKwTM5d10M9a9ubZ5dbM8R5d7Ql6yCmjXlg4JaMl7x4aSVVuF/p64d9tUXHvjjmr1LN38/RXIzkztjt7BvhjbuC510z1a6wGJBQuzrUonqJI8P22sO3HEDIMNG7pjfDRZ7V3z+UlJrMCaQ90ny4Ny355G9Kd9B5Nx1JfKQTyHSu0CLbFEQRI4gCbPS80DRs6rm279Vi4Fr2wRuAuky37SYFUvD0pYMCUPWrUSoAE6eOepWX4DOzMSwBrMwLNZ0iUt+fFeYsF6VNcaDhbMcV6waxbw8/OCtCe9uAAElqv0cCXII6iCOYvdal8ec7aYjLIwkKcR4BYpoF27OmSgdV9aXrEvWbcjQ13Jmp2LB3bOxs7dM+lmnKmAu1TNznjxXETvcH8MTYzF0Pp10dnfvonbldVd+XxTqOBa/VpZoOA4MtQZkxNdMTK8YMkuZMVu9VDJh7RdHFPJqvXZdK+BzrlgjJuHfCgEfiwrQACZDMcMWtA9UAETCLFc+UV9dq00UtmdAHDOKwCkYH9dfYumsCa5DDxmK12LQZZYlfIDXCxGwMrndzxYy0/uymdJD5CBHjhKo2NzOYAgP24ryJIy0+233V++3mzhsmxZ5vLnr7Sxam2zj/RY8Fw+gdbx9fs5g1a6bFOO9mPd1wf+ilaHDhlos7yufONETwKK0dWO2HrLzrjr/j3pppoH2d41j6vZmanoTIQb37whhtdPRE+yZjs4QXFrIY55GC6PWNzzg2sPj9spE98TZLtj4wYrJ0nA/LaWSsd5H9lDuzSqebX37Y4YMluhK/3tc56FzSsoIMhzTn1mJZn+xHpkpbUaeNpfsQzBRFzgkC0+FidIZbAoZxB0XgvVvOQlL6m6+9YjaDWlq5XEAZrmzubpVQbRwPLFL37xolagvHM5sH5zA8H6dW5gM9C2mJxTHuxv9TLHakg0Xn6XR+C2H7iKX5q4C1jKFojx1/e8X5YHJ7gWHKPxMZjHOreymfMUrS410oVfRgQduO68dyqu2boz/uvLd8aF370nfrhlW7X6lSe66vKbKWAzC10/GhkZiuGx4eg5bDI6B/sTdJsnzS+v+2D+fs83/XzcnYmyA/0dsWGyo/LNGuzbK2SzpOuhqKrPsryhby4eva4RZ29uVK8HWmk3AsCwmnR7WVzKmuWkMnMbtOpmH6hYq/yUgMai4x4wKARKBD6A6pwACbjSsFTISjuLlgvEjAMCKL+Li4VctxazbAdnU7JYnhoBQFQOZhuArMZiXxKPY/lpuS5Akq83NywsZ9DV2MirhsDUMHOD5dP5pLcOWnHxV2uUWOaO1xBai6LZMi869Fo1oKUHdszEly/eFl/49p3xmW/cHg/smomZdBO6v9yMANtIlh6yTacb1M3X09sTEwmwg5ProjE6FHNeQ3sIcjSUzM+x0c44bH1nZaXnWQUHo2MTR87Z2IjNQxHj/ck6SuVQq2ttlfLmx6zKfUEqerNltVzK5+N/9RfgwIgAltXregPigaYB8MRdlzjFt5gcI03LVQ7iAleNiMZM15+ym4E1Km7Bb4tpsbw4ph3Xp+jgtKpAOzM7F3dvm4lvXn5//L/zbokrr9seN965O0HLjILpZMU+9OSQwa/hkeHYsH4iOifGozNBtpFMQZmpZhisoNzXR2zujfUTySoxY2CJxuy+ZCxvLPUCzzmsEY9ZFzHQk2C7DABfqupwyWpnJXa+HFiOYELgmi1O5z+YNBxInpazHHL+5E3IcYsvW631sDctZ7qK2qtVBVoJMZnfvNrvXLUtPn3hrfG1y+6OHXsaVes9W4GWhZuA050syMmJWH/05kSkvpjrSS250agUSasbsC1Kp+nv74jR4c5YP9lVDYKlupLSt7D9ICU7wHpCsmxPSqA9aWy2mvrVqptbVFS0erWC9tG+hU98kUdv7IsXPmUyzjllKI6c6IzebiP78/QC2Y4Emp7+/ug26DUxEmFd2SSW7EpBVmqA0CIxmzd2x/Cgbu3yQZYYdHumGvHj+yIuvmMubts+Hbs82VBUVLSmtKpAm8UXaS3bcx+7Pl79kmPjmM0D0dUFoHPRlSzZ/pGhGDtyU+WXPSRKSelJidw83hEbxjoW3AXLSNisFGWjMZes/Ebcu6MRl97WEdfctyovWVFR0V60Kmstq9CY1glHDsW5j5uMJ58xHicePRw9Pd3ROzwcgxPrYmBiLLoH++f9sdmInWdx2wJj2Zo35v9aKGZirLNyF3gggXXbFqV4Wek7piKuu78jbri/Effvnn9kt6ioaG1oVZtHPakrvnldd/zSczbHC5+yKQaG+mNow2QMbdoYnb09FWRnpg2UIeBDIGxbsB7BzFwM9DVibF1n9I12R0f/CvhLE2xTNuOe3Y24LVm2Nz4wF9sfPuBcVFS0irWqQcuy9fryo9b3xPHHjsSRJx0eI+tHo7OvxRSW9LX6qR1hQcmgThZsR4yPd8bYiOX05ouvAvwKhJnZRvWorgHDFZ5YUVRUdBBa1aAlnLPC1+DIQBx2/MYYGvdM+8KGFKoHGDIMF74vZ8hyzv6+jliXIDueIDs0aIZBOqFBupUKSf43E6FtroqioqJlVw0lq1Pbds3Gly7fHeencPtdM7FzF1dB4s4KBS4JswnMKmDJHra+u5rSlWdBrJRY69Ix1BOxvs9g4cKGoqKiVa9VDdrb75+Ny2+aiW9cMx1X3Zwgu9uCyPrRaeMKBKBlyfb1NmJ0JFmyo13RP2Dwa+WLjb/6iMGIzSkM96bvq76JLCoqylrV1fXKW2bjvCun4/u3zsbt20HP0zMrY0lWftHZufB05tBAIybXcRckM7Lqxi/stIIa6pqLM9bNxYljCfxdK/uEWFFR0cFpVT0ZlnXXA7Px4ztm44IfTMW3rp2OO7fPVYtir+TjhZ4yA/UNE50xsa4zRhJku1b4zQfzg2BzceRoI44bjThlYi42JOgPJgv7UMvjo5YctCCMJ9VcG8FCL9YlsJpUeYKtqGheq+sR3JQSb1r4wa0z8cWrpuLi66fjmttnoyMBjiFb+UxXSN2pb97f3xmHb+qO9eMPAWPFCiudyBoP3Sk8fmMjTt3QiE2DjWTNLmw/hJqenn+flfVQvfnAAih5wRerYXltt2UB18K6qBoyITcURYdezU93PhKuy6oCLchedctMfPOaqfjClVNx946InVMKOm1Mwd/qGrQ5xWYbjAx3xqZNPTEyYDWu+Qv94PvA2qwqi+k/q3adMhlxwrpGHD7UqAbA2vEA2v7KkoGW+vunf/qn+OpXv1pBlqwc5SWJ3jzw2te+trJqV7s0GlbTstTg3lbxKlo5Veua1BYU2tsqZmtFqwa096dk3HLfbFzww6m46LrpuOJmSyTO+2UrtRm04hW/3q61ZMfXdcXG9d3VW2xzg2ofsG2nxO6lCsM9FpJpxNmHN2Kiv1F9Xy2ypqs30X7gAx+Ib33rWwu/ulYd1fqp3nzwx3/8xxV0V+PaqJZgzC9bzOvgWgDcWrsqdW44ilZGoGpdXdfE+seCBtCC5tbY3dvi6mtFq+aOum3bbFy2dSq+kkD7/ZtmYi7R7WEDX4lAebrVcgs7qwVp0ueuHu/66ooNCbReIyMFlm8U2g1ZMm2sK+XbWrQnJoPwiOFGNaVrNcmi097l5ZUzdakw+b1cAJbXk11tAtaLLrooPvGJT8Tf//3fxx/+4R/Gl770pWqN2GxJFa2cQNVC716d9MlPfjLe9a53xT/8wz9U12TLli0Le61tHXLQ7tw9GzfdvjsuvmZPnP+Dmbh928p0z+tisRr8GhvpjE0bumNk0OLS8y9anG0H2Zskv7MJsML6gbk4eWIuTl3fiCNH5mcX1JqbQyoQslg1kAKV19zww7Jc8zvE7OMNCd5KALarUd/73vfiYx/7WHzhC1+ofMzevmD92+KjPTTi7wdUr4T/zGc+U72xWIOt/j1SeheHLBfwZWGUux+Yictv3BMXXz8Vl26dift2pS0rfL+DmRW4vCFh/UR39QSY6+vtDisB/bmUYVn2Cpvslz1uvBGTA/O/rxbxneneAa030up6e/XKySefXL3XKgu4rrrqquplg6tRXtHjzbPetuv1NrlCCwW2Ky/3lUZZ4+xtwN6ppnfBP/tImbly6ECbemj3bZ+NK26Zi09cEXF5Mn7y6O9KzZWl2dm56k0GR010xORwR7X2Lbr5fSXV2zkXk/2zcfxYI05Y1xGDKzyVbClieXhtdt1SNZXLiwrNNMgCYFYJF8NqFD+swa/ii109Uu+bG7lWv61VHZK34M4kyG7fPRcXbZmJr187M2/JGpNjzFaFu7BjGzVvqSbI9jVifKQzNkx2RW9fZzS65l0GK4VZWe3qbMTGoUactj7ihPGOOGxwfjrbahNXwQUXXFC5DViF5NXjv/ALv1DBC1hZJ4BsJN+ruL3ldimWia47Szi/R0sQl+P2BkT+PedyHCvIZ8e5ho51P3FniDtv51++7LLLqu+Opyc+8YnVYFiOz/kpW7mtKrw0O5eGxQCO7m9++SKrzG+22Yf2lRcSZ86LkMshD9LJi16F3oJGzzlZ5dw19svvMms+T06jtDlGcD35RnO69nWNyPmVEf+72Sfy6fw57/zffPe2uwbS3SpeceTr4YWc8sKNoydEGnDXw4CYF2Dme8px8tcqTufL7q2ctuuvv75Km3szp8s+ymkp+V0uHRLQ7kn3tocQPnzxdFzwI3My5yFL8zf1/Od2qlpaMWlivDPWTXTH8Gi6QRPwuAtWUoAK9idNNOJZx3TExCpzF9SlQn30ox+tIKXi0gknnBC/8iu/Uj2ooDKwdgUVGIRZuvmlg3uTUWfwUPlBQ/Ab18Ri065ULJUPREEEgJwXrIDDjAd/VU5xq3zSaKbE5ZdfXn22jU4//fTK/aHyi8/5QSJXyFagBTYVV0UGiG9/+9tV1/eSSy6pLHqNkXNKJ192fvHi3iTP/JPgIz/SIY3KUHrkDZT4mU2tcy6Acj2kEaCcw751gaD9pFFDeemll1YgUl7i9rr1pbymXFqUmzTKH7+q+0F80mRGCrjZRxq8WLNVvMo5Xy/XzmvguQ48BEOOMyfbFEHps6+yln/XY7HZLK6Je0g80pYbVenSyICwewK8V3JGzIpO78K2qZm5+E6yZC+4eiq+c9103HRPMm/rA73tpkxKA5aaGzs02BGT6+ff9dXbm1q3xkrOk50f6BpK1/pnNkScPNmI40fNOJjfZ7VJhQeRt7/97VWFcsPyzZrK9bu/+7vVdlO+3ve+91U3OD372c+Ol73sZfG0pz2tgu7eBOL//M//XFW2LK/0/o3f+I045phjFn55uFgmYMHXahBFZVR5QNMrxM8+++yqsqvI0mVUWyVzjmuuuaaCgYpLHrBwvgxVQdqf/OQnV5WdqyELiPN5lUluIMAOKLMF6xgNhUptitKZZ54ZZ5xxRhVsa2VRieu8886roOgcpLF61ateVcHNK8ZBA9xBPJ/LK8o3bNhQDUw+4xnPiCc96UnVOez39a9/vWpYwAzAcwMDgIDm1ebnnHNOdb1YkK1e4w6M8giorq905gZBfNKRGzigl2fp0aN53OMeV5VjPc/SAoIaKNeCteke0CCQdMmL9Ch/19qA6ymnnFJdV2VYl3QoL3EqH/Eon3rDK13KybV49KMfHWeddVbVk3HP7KsBPFitqEW7c8/8XNmvJMh+5oqpuOcBC3ezYhd2aKecYwGifMAjw8l6nOhMF7Qrevrm355bV1t5myIH2tHU0B81EnHWpkYcM+x9aavXmtUlBNjPf/7zVSVTYVSec889t7ppVVpwYi2xuIiVxJI78cQTq0rXyirMEv973/ve+OIXv1gBUWVRuZ/5zGdWla2VVL48VeuDH/xgBQBWlorjGOd1TukFcU+yiZvFDQwszSwwNsDnvDloSMSh0gO2/VVclpEK/bnPfa6Kk/Uqz7ZJM4hpiIBJekCFhaUxkh5WpzS2enJO2sTJRSNIh3j1HIDdbAkNhXyLD+x8Bhnpch4WIJhIg2M+/OEPV5YvoGkkNEjOo1wcA3b2dZx50EKzWJPy6Pr/13/9V9XAyJe4HJt7FuAG7qxaeXcekNPQynO2bqXly1/+cnW9DUxKv/xkabDA1zldM2mUV/fUEUccUbmlCESBXjlpUEwPO//886t71f65ERC3tIhPupQZuU9cB/G2UytqP92xbTbOu3RXXHrNdDywbS5mE2TTNWi/Uv12g6tXelTrxkC2K7W63p+fIDubtgkL9c40qwd/a0MQP500HvGMoxuxebCxqiFL9QpJylPlAQAViAVz3HHHVZU1y43NMnPDqzh1sDULyFhS9eOXIpU4W6FZrbrOyyFgBzkW57/9279VFRpo5A2M+RRZ7z//8z9fWYes5GwpATBrEAgcq1xaST6kXb6ylCO4ffazn60Apsyf+9znVr0JZZ4lHdLDPQCu//3f/12BDGzBRMMoXY9//OMry65upbN4zV11jVsJsPg5WZ3S47tr7kEPjeFLXvKSypLOD30Q+IIaV40eh3soq1U+9yX7NlufGgDxKtd//Md/rBoUZeBauT9Z9i94wQviqU99avXd/SXtytH1cy00GO3Wili0Br+uvn2meuLrwmTNbr1nrnq0dh6A8/u0XQluXen6VO6CBNmhoa500VzkBL/5PR5MzHKvNZvz6DxgM9rbiEdPRJy+YX6xGKtxrcbBr7pMHmdhualVIJXkxS9+cXUjg0yutCoqS4R1w5JQoU477bTYvHlzZTUsVrF0/b7yla9UXT5QItbGC1/4wkUtWmXJglKZWZjOqRKyQlV4f6VLpZMWFU13EZh181lDGf5+BwrdXPAQPErMcpJuVqoKDBhAy4r1XVxcAioyyIIYwAIgny/L0rnBSblpqOTVE0/yBRz1RkGcgAwELE6SfnljCevqOpd0yp9uNfeE7bmbDLjKBRSVpXS4TnofrkXukttPOYjffs4t/UCu3OrXikWYFxFyTZ/whCdU8Zlxwk2jS8/1Il4Ql2cWvb+C8+TrQsrTtcruDuXhfI4hEOce4CZwHZxD2nL6uBHkVTnpWbg/NSjKWFyOcT2kjyvJ9XD95Ut65EeZybN0O8a1yK6N5VbbQes+3jU9F5+9cio+f9V0/PDWudi+J7VOXKIrBJd0HyVLMtINmbptY52xfrIneno7WwLVnNbllDx28P3Of0uJiTh6JOL5x3fEUaON6OtemcG/gxEYffzjH68m+KvMKqYb9hWveEVV8fPNaT/b3cAqgL9+41pQ2VWOxW5k8NGVBPLlAK3At6mryooBQ9Yc60ZlZlGqlCo88QX//u//fjzvec+rrMVnPetZFRQ0ItIsbuDi61UOIAU44n7Na14Tv/qrv1pZdkCmUjsWcPk+HcfSItaUhkj3XHkATb3bquLbVxc3gxZQgEH63/zmN1fwATblCjq60rrO2afLygN23zVwv/7rvx7Pf/7zKzBKF5eIOHSflZ00OUduFIGv2eJ1XTWCYCQOPmM+bA2UdMhzdrUod3nW5ad8PygLoCQgFQ8rWyOgQQJjDRiB4i/90i9VA63Kl/UOnspU2bn2roGy8iSZnobrCdbO8cY3vjGe85znVPenMuIrzveqvEife8d9J7+ug3jlrx1aut1+gLr2ztn49Pen4hIDX3fNpAs6D50KfvP0aZvEPzujy9GIngEjjV3pBuqungJ7yIxtr6o0JKDLb2f6ctrkXDx2Q1T+WYt5r3a5+XWtdBtVdmBSCdzE9YcUyE1spNjgVbbSWA+sXMHnQ6HcTRV8biWAVskEgBHqjQIo8QGCZBawaGzABtDqlimJA7BYVq9+9asrIGYBKQtMpd+XAEADAY7cK/Wuc3bZgJvrkdPg3Cw11pxgwCvL8axgUATWOuhZ3Nnar0s+NFbyohFynVuVp3ilR7ygqKHK0oDme6hZ4mmOK/8mNF8/cQC/hoJ/XdzOrYxyg6JsmiVNrNw84AfYroWGSoPTLrUNtJ76umf7bFx1y3Sc/4Op+NEtM3Gfwa8Ennp5AtFyhayHfU/n6umbf0PCyEhXDPTP+/Nqu7ddINuf7v9NQxGPmWzEo9Y1YrBnbSzercXnv2NduZlZs4ChwrFC6mJNAA4LgaWnYrA6DDIBreObK/BKCTTr4GyWbbky1yu1iijP8s96YgVlAQorM1fq5vh9BzFuCFZyfZCJtcmqBrVW4KmLewAcQEJ80pblu+vAxeG65DQArd80Bq5HHXj2YelrMKW9DlrXiEUs33XZRwPKMmRN1/Mr/QANomAlfcAsv/VGIbtODuQecK58PtJo50E353WfaSQBXnBuZWC/etA70sAAre2kEdWTkvbmfC+X2lbVH9g1G9/dOl1N4frelpm4Z4envlTG+eCzPIHQcoRcPvU4qTN1za1hsHljasUHFl6ouIKq0pNalyNHIp58VEecMNkR44Pzj/iuBemCmraVu7Gkm8VHV7eSCGizz802Foabm2+PxZBHgdeSVDx5YDXpCmt4sgCOtdjKcqpLWYCe8sgSn5F35ZsHGBcTyIEDP2IrAZAyFzKEQcQxGoM6oOqSfrDNMwEoA6kZOK6tOFvFBczuD/nReJi3CoDKqt6IAGyruMlvzb+3+i1LvOAIthnc8q6MQBZ4pYvboh40JOK0j8bAZ/tx2di2r0bvQNWW6n77fbNxxY0z8dWrp+PK9HfHblZB2rDAOGVXt2p9zt9bfW71W135u3jzdfFbd7IavYJmbKwz+nuNTjt4fvtKyEX0aO2Ro3PVo7XHp/o4mqzraunFhX1Wq1hxLBAgMFUmD1JQ7r7ZpnLloAvGxZAHJFgNygBIdLm5IOoW4VqQ9IMDaOiqygvYsNjlD2SzZbSYbLc/n6xjlB8QiEslV157E6vQQFjd8qwLBG0D8nxtQAdIQd72VmIBOq4OT/l17f1tlrg1lgbrrHxmOp7Vz4z2/8u//Eu1bOZ//Md/xH/+539WMw3At543cbaK90Akje4l96XPpBE3xc8MjXe/+91VuvytB2soG29wLV0DAmA9C8e3q8e1rKBVhtPJervODINrpuJrP5yOa+5IhYBvC1asMqmXtd/q94HvC/fKg9uE+m/1fSh/r8dtsG1goCM2HtadLNqu9H3lB50aKS0j3XPVDINHpXDY0Op4Q8JS5OYFAeDU9dc9y/K7ri93gPmU9cCa0RXT3WUxZPFF2p8lt5akHIBW+qVdZQQ+ecuzLRYDWV3Ax9pXLhmG4hbfvkArftOz9gZ08Qs5bvAEZw1B/q1Z4rXfYtvrAiAWn96JubQg9hd/8RfxR3/0R/GXf/mX8bd/+7cVbD/0oQ9VTw+a26xxzTBbbik796TrkkHr+6c+9akqLX/+538eb3vb26o01sM73vGOeM973lP1TuwP/Bo8n12HNWHR3r99Oq67eVdcePWeuPDamdi2Z95dQACYIeivssm/LZRTpVb75X3zb/V96MHvC79poNdPpG5Egmyv18WmNBiEW8ngMbgjR+bi9MMacephqUs9sO+beTVJBQFT0HQz1ysMCzdbMm7aHFgM5mK+//3vrx4PZTVk6ZoZUWYFryWpiCCTKzMBFOgB22qVdIPGcoGDK8A1Fzw0wRXEElQuLGcDZU9/+tPj5S9/ebz+9a+vZmAYjFvMCv9p07KA1qO1XkOz9a7Z+MbVU3HplgTcO2erNQ2yHoThgpo/5++tPrf6ra4H90mf3fssWTMMRpMlW/WKbEuJXKnQlUzZgWTJHjvWiJMmG3HEcEeMrIIXKu6PWFpGdPnAmrtU4GvOqyd6jMTXA8DmRWd0x7LAWuXMczvb1UVrh5q7u+Ci4WHp+ryU7rB98jF1gfZSLOIDUXMDcSCSbtdRr8YTa+ar8sNqZPiATbkCVYN9psaZjmd+tZkYBp725VY5GDWXHV+zgToDhwZrgX8pQR742vVSWvmgl0PLcoWtX+DNtd/ZMhsfvHgurrnr4V37lZJzDiTLcf1kZ/Qn2PpuucOVXvJwIN1bhydr9lEJsseOJeunPfWordKdYoHyvS4FJPsS60e3E7j51drVpVxu6VaDSr1C62LqFgPQUkFrP42Ncsj757jbVbmXQ2DtHtCL0UORB75dMHvDG94Qf/M3fxNvfetb4zd/8zerqW4e+vBwgYE54GqX1a/suHDEn10fXCWve93r4p3vfGc1t3ap4a//+q/jd37nd6pZFfWBweXUQSPAcodbkiX7uSum4pvXTsdd21O3sz1ujsWV7lv36siIBxJMLemqHml1Py8DI5Ys07UG+hpxzHgjnrC5Mw4fbES1Vs3aMmYryOri82PVu/+6iCaRmwxuIZnFwpve9Kb4vd/7vXjlK19ZTR5XAVRYlnH27fLz7kvZclys+wtYeSCjXRYyCKp8BpWM4PPLOi/L1LkNyOyr0QBmPkBBGRAIKU8DZPXZCKtNrkGeZyq/GhxpZwGyWs2mMH9X+fA/G+yTH/u5JsvRSLeS+J1LWuqNoPNxVwA9cC4l2Ne10IAsxV99IDpg0Co+ZXhnsmSvuGk6Pv3dqbj4hkPTHVQ2PT2NmBg3w6ArBgfmB79W0pKt0tCVQD/UiBMnOxJo55c8XIsCBF18lkye1qULyOfG//Ynf/In1RNKi4W3vOUt8ad/+qfVE0m6cAaBsoDWRH0+2+ZKCGrNlQaQuRpaSUVmWRqkOlhfpHO1goL0GIgyi0K3VOXOAvg8E6HVsVkAJY32B1r7AqxKroKbkbBaBbR6IVxBGhdWpMZGoyP9zRar/e2nTFi/bRtcStcF2IV8z2jwNArS67x7uyZku/QK+9r3YHXAoJ1OTN2+Z64a9Prk5dNx+wP8k/PbpHklw+BQgtpYZ/rbGd0Jdl6k2O6Ca5bzbhhuxJM3RZy492mVq158sHxyKkuWSeCeuOF3YzGAz2KBBcg68PACONUnywOtmQnNcyxVYHMbWb9ZeZRbepqVLWTpZHnvjysiV7C6pEUczb9nAaPJ//U5s9LGbwm2e6vYrEELmNSntnmyyuT/1WzNkjy5DwRlwzoHUN+b/c1kW74mzffQ/kh5iiv3AJrlfgF7jX+GvQbNOhQW0tGotUpfXfKiwXecz4td++XQAYPWa2iu3Dodl97g1eCzsWMXuC1sJJ/bHHTV+dpHEmhHkyXbtzBX1oBUtc8KyPMP3BSHj1goJoXxRqzvX5uWrEoFYMABDvXuvefFjSzneaNu9MVC9jvqTjqONQi2LA/+WZayaWNu8AwncYIPCy9331jW1l81bSw/Agy+KhHLxaBbnhy/P6DVCABc3TfKVcJqcw75dg5/xSuN8iL/usksUHlh9RsAlEYDROIAB5VW3rL7xXZrMQCtsnG8R2Z1v+uN0GqV8hLk2f0BnsrKvGgNpu+uizm28muRF72WvGrbviTefN9kidM11jDna6FMlaFt9nW/cF24Z1xP5S5N5vAatPNEY/2aSIvP+WER909eES1f53bpgEG79a5kyV68K35803RM72J+L2xos9TB7EaxGhe/7Oh4VwxXMwxWHnDOCfA/c1iyZjdHrEuQ9UDCWpQW3Q3niRsVpg5asGQ9qHBLFYjkygBQwCZO3X3n4JbIVgRL2Ci27mgWKFv+zuR4lUKlY4FoCCxAY/I5gKlMdet4X+LX486oj4gDpdXJxC0+lTxXUnBhyXuO3gIqKjYwqPSOM0HeJH3QB1/HONb3j3zkI5XVq7EAcb0BcWUf52oHLQi69h7vlWcCLbNLWI+A6zq5LsBmdTNT/OR3qXIOjU99IApcLffosWcgBEdlykp2/7iXXAcNlkeTNYRZrslf/dVfVWXv4QqNtPiA2vUxsCedpiRyczkP67edoN3v1bukZc9MysxNM3HeFVMrP/iVWJquS3QluI0Md8bEuq5083Y+OPi10joigf7xm7yKJmL9QIJsSltuCNaaWAqsEBPSWWq+gwy96EUvqkaaVYi6Jbg3sUwBELxUFH/d0KwRlVflAFbx2VdFy08eAbB9gV9wPPjn15OwWqzYpLKJR0V3LjBQ+UDb31YNAytMpQN7FZAc69wACxKsUHkFZI1AtuJJ+sFFt1YZ+eu7/IGNRiFbuvIiTucTHyiYAmXVKo+/iqs+ACNtjs+gJ5AzdUo+W5W9cpIX1pzzKy/nsiqWHgV3DJg1Kzda0ir90iF91j+QNvkmYNVIsFLlN//mGOeVR3kVj+8aEz0fabBf7sKbRqVXwPqsW68kfa6nKYMEevKh3KTRNbFdIyY/3FI5T85nP+XlfnWcBt2++ZqAqfR5nNxnadZr09gbR+Aay1Z7O7TfoNUr3z09F1fcMhvnXTmdPqcfVxBw7snOrkYMDnVVMww8YtuZ+u8rDVnGs7fnnjLZiGcc1ags2Z5079TqzJoT6Kgo5siyCtx0Kpsb+aUvfWm1zN1SIZsFmCo06093jQA1j7qr2CqdoAJJgwqlwoCfCud4lULlAFrABV7wA3+wlm7HSC9QgKxQt1qzAEVgHYnbOYDEIAor1HmcQzwsWFZn7toCr++spNwdBVqV3DEsMI1ABgN4KwODaHoE1pI1c0OalWsdsgS04mB5KQvnBT0rZu0NtIACzmArP0AHtHoTPrcCiPidB9hBSVnVQZstTH/l0XQ/f8WfIcY6lFdpZt2CqCle2ep3jtwAulbWmG0GrbQpC8eLSx6VGXcE/7xr4rr77B6RNmVJrrfvrqN7It83ygRE8zUBV9dFepWRba6d+JStsQT5XzWgrUCXwHbD3bNx0db5p6AsRbhS6uppxMBgR/XWWq+j8QbZQ6GRZCidtSGBdn1HbByRjrUNWdIlAzSWitZdd1/FMwimkvh+IFJxVACVAajEA1asWgNMKl0GiArHGvU3WzW54pDjgEDlACxzNv0GlAasVDpxAgyYZSu0Lr9lyDm3Cu0czkVAIJ0sMHGJ3372l06WmorOqgIx+xOrKrtCSGMiDdwE4rJ+q7I0nQggWkGTJQZg4nE8NwPYgyYotDpG2QK6MpAPQFYOXB3+Sn8z0El6gR2gnIvlzLIzyCRvGbTyLo+um/wqp2zJk23ZtWI1M2vfOlZD5D4yyGm7PLh28l4HLQEc0OWycb3BXH6yXBPX2zWRVsrX0LXXsDqX9Lh3xJHTmGW7MjEQqdHzNgwGhIZB2bYqp+XQAb+c8Ts3zMSHL5mKH908E7fcs7DObIuYqmQ3pz3tt7eTPnhMbT/5N2VreLgzWQdcBp3zj9euoOazMVdZrxbvfsKmiCP5iAdWNh3tklaeJesvKJLpM25qN7HKsr8CDPBgbenyu/nzzQxWutCgl4GYgccCYcmwgoEfDB3HMgRiXVCBgIJVplKJR3oBbjGLlqTJfF7dSnlmkarYBExgBRr8qCBUBzawSSPfIauYNc0aBkj5U8mlFZSAg59aelhNKnozZOpS7qy3PPin/EAAFMCk1bHOKS2CcpY2oJN251VmrQCil8HvzYJ3LrDL07YEwMtStq4Dq9b+Zlw4nrKLRaOsURFsZ9Hnaycf5lTnmRat8iENGgxWbbY8wZqkX1kqB/FrSOty37imrqXzOr8y1JDUpSw18IK8upfc4/LQTh0waO9+YDa2Jqv2I5dNx1d/PBO7d0ynG3BhY02ub7M1rtFvBeWs6pgUqskDC/t1puvS3dcZmzek1mudrqZ31//kzdNOOVtHx1yctbFRvYbm6NFGDKb6t8LJaJtyt0ulEEjl09KrGAfarQIe8WYIZYkTwJrjzdaICqryqeS+2x9AgMPfXFmltQ448dm2Nwslp0nczsO6y9aPuFU8QACbVvl2vPJyXjAQh+C79Di/Y0E6p6VVXpuV89J8DfblP5QX6RFyOTif8y52nPhzHhxDOa3NZWe7/Z1HfvPoP0mbxjKXlzjq91KOW3psWyw9+RzZYgZpcZDjxM+q13j63qx6+lxL19Q1qStfV2mup2ex+2S5dMCg5ac1pevK2+bi+gTcHTvTRWvxgIDky0SVjxTMtVWg+zpplfHafkb3u7qTRZusx77++cdrU6wLW1dGppN1p57b5uHUMg6ktCRjabW+HvyRoFzpVFqfVQgVYynAWqrEK4BNrtQZinuDVF0ZcDmd9bSCQrsr8UpL/QWyennJa4bWckhZOoeypP0pz1bXNCvDtbkhabcOGLR1efmiV4lbtGoxKX/Zsu+BSJkc6jcSgGpvsqSLioqK9kfLAlo9A5D1t5UqNGU+2W/h4/5o3oI9tJKGR4qboKioaOW0LKAtKioqKlpch7gzXlRUVPTIVwFtUVFRUZtVQFtUVFTUZhXQFhUVFbVZBbRFRUVFbVYBbVFRUVGbVUBbVFRU1GYV0BYVFRW1WQW0RUVFRW1WAW1RUVFRm1VAW1RUVNRmFdAWFRUVtVkFtEVFRUVtVgFtUVFRUZtVQFtUVFTUZhXQFhUVFbVZBbRFRUVFbVYBbVFRUVGbVUBbVFRU1GYV0BYVFRW1WQW0RUVFRW1WAW1RUVFRm1VAW1RUVNRmFdAWFRUVtVkFtEVFRUVtVgFtUVFRUZtVQFtUVFTUZhXQFhUVFbVVEf8fFfbDfGuBf8gAAAAASUVORK5CYII=;" vertex="1" parent="1">
          <mxGeometry x="806.77" y="315.89" width="46.46" height="19.74" as="geometry" />
        </mxCell>
        <mxCell id="Ebmc-VcEYs3Wesn4mwOp-15" value="" style="shape=image;verticalLabelPosition=bottom;labelBackgroundColor=default;verticalAlign=top;aspect=fixed;imageAspect=0;image=data:image/png,iVBORw0KGgoAAAANSUhEUgAAAVoAAACTCAYAAADPwdG+AAAAAXNSR0IArs4c6QAAAARnQU1BAACxjwv8YQUAAAAJcEhZcwAAFiUAABYlAUlSJPAAAEOhSURBVHhe7d13kCZHff/x77M5h9u9090pBySEokEgAUYEk6MBY+yywWCwy6aMcZXtKttgY2z4x0W5XA4YjBPJPwMGY2OCiBIgklAAFECgdKecpdPFTb9+zW5Lo4dn7/bu9tnbFf2p69vneWamp7tn+t3f/nZPT2Pnzp1zUVRUVFTUNnUs/C0qKioqapMKaIuKiorarALaoqKiojargLaoqKiozSqgLSoqKmqzCmiLioqK2qwC2qKioqI2q4C2qKioqM0qoC0qKipqswpoi4qKitqsAtqioqKiNquAtqioqKjNKqAtKioqarMKaIuKiorarALaoqKiojargLaoqKiozSqgLSoqKmqzCmiLioqK2qwC2qKioqI2q4C2qKioqM0qoC0qKipqswpoi4qKitqsAtqioqKiNquAtqioqKjNKqAtKioqarMKaIuKiorarALaoqKiojargLaoqKiozSqgLSoqKmqzCmiLioqK2qwC2qKioqI2q4C2qKioqM0qoC0qKipqswpoi4qKitqsAtqioqKiNquAtqioqKjNauzcuXNu4XNR0YOanZ2N3bt3x/T0dPV5X+rs7Izu7u7o6Oiogu9FRUXzKqAtaimQve222+L++++vPu9LQ0NDMT4+Hj09PdHb21sFwC0qKjoI0M4kI2dqJuLmO3bHnXfviV1Tc8nyeWQzu6u7I3r7OuPwyZ6YGOmK7mS0dTQWNj7CdPfdd8cFF1wQP/zhD+Pmm29e+HVxASvYDg8Px+TkZBx99NFV2Lx5c3R1dRXoFv1U64BBu2P3XNy3Yza+8d374/s/2h7375hJ3cw1DNq5faS90Yj+oe4YneiNsx89GKce1RdjA43o7kqbFnZ5JGnLli3x7ne/O774xS/G9773vYVf9y4wHRsbi+OOOy6e8IQnxFOe8pQ4++yzY3R0NPr7+1MRPkJbpaKifeiAQfuDLbvi/Eu3xYWX74grt+yOqUgW7cK2taaOmenonk7d4wTbuYTN6ehIeXkICh2djegZ6I6RicGY3DQaR67vipMP745nn9QVm0Y6Ksv2kaatW7fGv/7rv8bnP//5uPjiixd+3buAlOtgcHAwJiYmKuCeeuqp8aIXvSge85jHVL8Xy7bop1H7DVo7cxtccNm2+Kf/vSMu37Intt41k/rVacNK1yFgnDt4vHfOzETX1K6EVqCN1Gh0LoA2fUtg6OrtjuF1AzE2ORxj64djoKcRx0x2xItO7YpTN3fG4aMdkVjM6H3E6MYbb4z3ve998bnPfS6+/e1vV78NDAzE4YcfXlmo3ARzVfnP3z67du2K7du3x6233lr5dQ2ijYyMxFFHHRWvetWr4mlPe1o8+tGPrgbMiop+2rTfoAXZnVNz8YkL74+//MAtsX33bKpUacOhgMzcdPo3tfDlwAWwoJ314Ce/JQute6Q/Nh45EQPDfcm6NaoeMdwTccL6Rvzs8Z3x7JO7o7erEV2PIGOtFWhB8xWveEWcddZZlbU6kxoogW655Zb48Y9/HJ/+9Kfj+9//fmzbtq36nc/2Z3/2Z+N5z3tevPKVr6wAXVT006b9RkO22hJvojd1mUEpo862tgU2ZgJrPcTsTAXJgw0PJd7f2sf039B4f0xuHIu+wZ7oTCT1G/7uSJm+/s7Z+O7W2fjGNdNx+7a16jhZurgFNm7cWA1yHX/88XHCCSfEiSeeWIWf+Zmfiac+9anx8pe/PJ75zGdWQDUtbMeOHXHFFVfE5ZdfHvfcc8+SZjAUFT3SdEA2GMgO9zfiqImu6OvtiN2z813u5VGKCcl+Iswm63XPwwLQLqvSafL5Gh3JQu3uitHxoVi3YTi6e/hGHpIZF3dsj7jylpk4/+rpuOGu2crSfyRPvOBf7evrq1wI/K2sVe4B4YgjjogzzzwzXvayl1XWq6le5tJOTU3F9ddfHz/60Y/irrvuqlwMiwmYWciOsV/qbVWg9heg/c4lkd0Vi0kc9svB930dY3s+fz7O970dd6DH5DzKk/zlPO7Zs6eKY2/HZ+V48nkF3+uSFr/ncvO96NCo8y1vecufL3xempJF15HMuo5EpdGBjrj5nunYctd09CQwsfYOSunmmZtlqaYwl26aeqhukn3fgHtXOj5HUaW1luDq5n4o/oGR/lh/7GHJoh1Illy2ex/av7J603/TKVn370xgTt9N9Vo32FG5Eda6+Fm/+93vxjXXXBM33XRT9ZsBLrMIWLSmcLUSH+x9991XTQt74IEHKr8tmeZ1xhlnVAAG6GaBANjce++9lZ/XrAfnvu666+L222+v4hIAA+wXeyBCPM4vOLcA2tJlmtliAiPA4/IQHAdmGheh1YwJYGw+xvmlzf6LHWNfc5TlkbvFX99zWZkqt68HPsRjCl4uYwFoHeu80mGbXoTyU27yId4yILny2m/QunUAxbSmdcOdcdcDs3H/9tnYvlPLPg+g/RLAGdCqQJf+slLz93pYFLL59/qJ/Za/146r4slK2x+2S/ovbWfJ9g31xfD60RjdNBrdyWK32/zgWD5gXvIKtNwIU9PJupmZi/GBdHwCbV/3w/ddazoQ0KrgYAaWV111Vdx5550VDGjTpk2Vxbt+/foKtnUBgfNccsklcemll1Y+XuHKK6+MH/zgB3HttddWMAJdc3oBBARZ1c1AAyBuClPS/AV8/mZWN3fGYtAUvzQ7P1fH1VdfXf1uWtpi4BOvMnIewTGALq/N55Eu55AnPm/pE+TTcfIvPr5ujQRo6jmIpxUYNUbnn39+dbzegjLSUBmsVP718pQf15OUgfwUraz236JdUHd3R4wOdsVwbyP6031w1ZY91bzarv215rgEZhKpKss1A3epmofjg6pu7IXfqmSk//YnvpSGzpT+iaOSJbthpIJG5cWdm/fmtlKu6PfumIv7UzAgpkwOG13bVsOBWrR0xx13VNACRRAl8OHHZdmKp66LLroo/vd//7cafPuf//mf+NrXvlZNKbvssssqkEiHfS688MIKHjfccEPlLzYgB4B1S5WF+fGPfzw+8pGPVHF96UtfqiB40kknVe6NbPE16ytf+Up87GMfq477zGc+Uz2sAeSHHXZYrFu3riWcpOeDH/xgdZ5PfepT1TFAZ/CvGY7K87zzzouPfvSj8e///u/VvvIkb/Ior9/61req34BTGvnBgbvVTA0Affvb316Vm7R/5zvfqazWJz/5yVXjJD3vf//74xOf+ERVnixb5eTamTVStLI6YBqwakH12M298aRTB+P5Zw3FY47sjV27+a0WdqprdroC6k+EyoJdgOP+QLFSSsSDlSbHsfA1q9r+kxXrYUrHzU7PRN/wUIwfsSH6Rgeii0924bClpIrFe8+uBI0bZlKYjqtvm6lcCj+N4ntkmWUrisCCVanbzxoFBdamubrg9uUvf7kCKCCw6HR9WXSOAa3sDhAvOIHiO9/5zgq8uctOAMU1wRLVRRcfy5o1yQrM+zUL3FiaGhXHsApZ0CzF5gE81ibrUXysUWkS75FHHllZ680gF698/t///V+VXukRv0Yhu0GkVf64EFi9Zns4BjSVVbPflqtDHDmt4vJZPr7+9a/HF77whSrtuTzFL83NftyildFBm13rx7rj9OP64wVnD8XZJ/ZFf+oys//m3NAV+IRktQJqAutPBP7YJaFsMdVBKp7muBaDbE7bfFA3BsaHYnTzZPQOek5/seNay/47pxtx1W2zccnWmbhsy1Tcvm2mcik4xU+DwEAXWcXWDQYAAkpAYRkCoMpuH1Yc6+6Tn/xkBU+wYG0BFguUT5cV7GEHU8uyy0HcQPKe97ynggo4gRGBFqtSyJYuKLGu7dcMWt+l2QMaoCkNJC9ACv58vHXQST+4G9wTL4B5Ik5aWc1ZuSy++tWvxgc+8IHKinUeZcBSZrGefvrpccopp8QxxxwTGzZsqCxnvYBvfOMblbXMvQCSewMksMu3ho1l+81vfvPBp/n0PASNj15AKzdEUft1wK6Dujo7GzE23Bk9qd/claB67wO74877dkdnA2yzS6C1JbH/AsaFjw9qXyRrsV2FS5DnV+3s7YrRyeEYnhiJ3qG+yk/bZJQsSW54Yeeeubj53tkY65qJ0d5kmfV1Rud+gvtQ60BcB6AFgio7EGb/LMv05JNPjmc/+9lVHMCnO+vxXt1l5wIA20wRe9Ob3hTPf/7zq2li5557btUV9xcogBB4gFVZ5661qWYAlq1lEGRJgiR4cV2A4KMe9aiHuRr4ewFYenXh6+I6kE8ABdIMKRau+MFQPpwP2J/xjGdUT8KZAke5QciPMUuLPILrL//yL8frXve6+Lmf+7l4+tOfHs95znMqtwpgcr3Ip3ISF6ueb7vuvmCtmrMM5PJsX+XiWgkaNnErN+nPrhPuljKXeeW1LM1bd1cjJke747Tj+uJ5TxiJM9PfjaNd0ZhrJJYlyGX3wJJl30WCP82/LaqF7c4tDbXA4naDdvV1xeBo6qKuH60g63HbA4FsFst221QjbrhnLi7aMhOXpmDAcPfU3tK5NqS8WGlAkwNrLluwQAUs2Seo8oOayg1wuVttG6sLkFm94lT5+RdNDQOsJz3pSfH4xz8+Hve4x8UTn/jEB2Hk9wwKVp5udu6OSw9QsRaBz/nASfxG98Gp2TIENG4FkAJsYM0+TDDNg1PizvLZ7xoScWtgQJmF6vgMe8DzCLM0Oo/47fOCF7yganRA0JoQ55xzTpW/Zz3rWdX6ENmXzGpWpvKnnBeT84G49HB3APZLX/rS6jzPfe5zq+AcroFGr2jltaz9iCM29MQzzx6NnztjLM48dig6u3piz+x+LgQAinsLewXrImJVN7ks5mYSaKMzhtcNxthhYzEwORrd/T0LBxycwHauozO+eWMjzvtRxPV3zcYDuw4g3atMIAUYrMAcgBJ0wMCgEL+iARrgIpYVWLKEgQ+UdI1BFoAAiQCKlWddBBYc6zULrIEMjMAjuxCkR1ecH1MagInVCZS64axYUAYh1rlBsXy+LOkEYDCVVpZx7v4Dl/hBvA46ZcDSzwN9JH0aFBZrbpA0PnzP5hFLl3xxh3gkmYXfLI8oA60HQORRPNKsrORtX3IOgNYb+LM/+7N44QtfWIFcgyWwtltNrStqv5YVtADT290Rjz9lMF7wxNE467iu2JCu6+6p2VTB6qBZgGarcCAgrYuLYiZVpnrgJliQU/jal6A6OTEUw+Mj0T00EHPJ0pJE6VyWkE40PduIm+6L+L8rZ+KSG2crl4JHmNeqWHhG5N/1rnfF2972tioY+TYolR/X5dNk8YEEywpgwUMlB09xsLq4CzL0gIV7gB8WsFi9zfIb14A4Wb6OIbAFfLDU5c7uBLDNft1sYYIlaAJlFljy8wI1KHu8WDebNAryIs31gT3gzoNmLGjde37l3EBIk/j4bx3vu7Sb3sYf63PdfZEFkuLQQOR0A6xGQJr1EPYmVjxLlqtAOYovu1YE52xVtkXt17J7xl3Hk47uj6ecORRPOa0/TtjMP7mwEeUeVIZqc9gfpf3FWQ8omh96yGHBP5y2VjdaR2dXqlT9Mb5+JPrHhqJrwZJ1Yy9naKR8370r4mvXzsbFW2fi+ruTZWtWhoSsQanwoGTE/73vfW8VWLAf+tCHKn8hqxb0WE1gASysUPAy2KOig5OuOlhlsQTtwxpsBaAsUDOgltdayAIhgM8+YfsBlm66/bOAlj82g9Y1Al7pBlxwYnGCIVCDJsvUMfJO4At+ddCygPmtHe87qBtIqw+++V3+/DUzgBXeHPwuXsdkf7DzO5/g894E+NwEuREqWj1adtBmrR/viReeOxnPOms8jt/QHYNdyarVIrvx5ok3v+PBCLGaXAKVm2ARzSYLs6urOzYkS3Zkw1h0bRiPzgRZN3W7gmyycC/ZMh0fuGh3XH37TLVIeqrjjzjJr0Ejgz2vfvWr4zWveU31SC4rNAuwAKgOWoACRFbXvmQf+zomC4BYnSCfldORB6YIrECeuwNk8wASy9M2FiDL9LTTTqssbL5e6QRxaXaM77mxAHbgPPbYYyuXQ24kgNI5WMEZtOLnRvi7v/u7eOMb3xhveMMbWoa3vOUt1SwMVn+WdIqvbom3EteH/JbBrtWntoG2v7cjjt3UF+ecMhwveOK6OOGIgejrTRXpQGcgIFPTgNbDZjQ8GBYjWCMa3V3ROTgQ/ZPJWhkbjI6+lB7+1HRMuwL5e/sDs/H9ZNV+47rpuOLW2diTkr7WpAKDkEEcg1b1wLcKqr/4i79YdV8N9rA8s6WXlS003eksgNOdBq19yT72dUwWmOmi1/2vBn2cO/tzCYgNigEleLFmuRtYuixglqn9WeP8pWANrNlPS84DoCxg8UmPLrtjc0MhPY4DxnwPOB93Ar+0gUAzFloF1rXz1V0V4lBuzf7lLL001need1wvm6LVobaBNvGreub/zBOH47UvOTwee/JErBvpcxem3jxA7qdJB6LN1ivYLlUpPR39fdE5PhQdk2PRGExpSWJw/IR/dZkDqSOeHvvCD6fjyz+aqqzatSaWJIC+/vWvjz/4gz94WGCJveMd76gGYX7rt36rGuWuW5NZIASyGUDEEgQKFvG+ZB/77s3FQPYxJapu3YGXubKsX+AySKWrLi0sWQNUGgXAAk+fgdWglmPIcQAL1kAKtMAs5DRlMIJrPZ/tUvZfSy/ILqXBKlpZtQ20WT0JtuODnfGMs0bi2eeMxbrh1KVucCPwny5yE1ZQTdsPFKpN0n33vq+xyaFq8e6OlCYVYGbmIatzJcRZ0pfq4s6Une8kq/bGbWsLtiw2swNYb7rK9QBUfJAgpaLPu03k+OHym+31bSw1UMrd7L3JPvatW3fOBTB1+AItP6u06tqDEDiyGPlPxQGg2Y9q4Ixv1n6s2mzRAi0Ys0Ydz43A4gRS5+CP1gDV59nKm7IScj7tZ/rWb//2b8db3/rWqkF685vfvKRgvq2pWdK2N7Uq76LVobaD1kDYQG8jHveogXj6Y4fjlOMGqsVo5q0aXf1FQjWQleD6oJsg/XYgSvdeV29X9A/3x3CyZgdH+qsKga8rBVmn6UpGhnIYGeiI6VQhrro7Ysv9c7Ftj9kJCzuucgEkCxFYTJ+qB3ACgqVYmhnGWbrZrMS6O2Ex2YfrAQCznFO6+CizxO88QGsWgbTxx5qWlf25Bp/4Wt0HLFgwYxmKC5yB2jb+Ua4Dwf7AC9Tg6TiWs/gzaP0Vj5DhpyHID2382q/9WhX4sZcSTNOSD/kpWptqO2iJG2F0sBGnH9sfr33+xnjSqSOJPmlD8zSsHA7Cen2Y0nkr0I8Px/gxR1TTuFZaFdCT5T6aIHv0pFHzrugY7Io7dzXi2nvm4mpzbBNsf1oEXlwKdT8iS9GAFODuSwDLIs2zAAhgDbiJu1ks7cc+9rEP89Xq8rNkLeBi8RsWbfbNSpfgu/jADTjB3XlBln+WRQ1+XCQGzerWq/0dy1+af7M/wIvH76z/5sZqsaBhA+1641S0trQioKXuzkb1iu7Hnjgc554xHk8/c7RyKUzvmU4gqlmyVVge8HT2dMfg5FgMrhuL7mTRdjArV1Csoc6OuRjsb6SK1xFj413R05es+VT5dqe25NYdET9Mlu31983FnTvm1uy0r/0RaIAfcGTpilv3APz2NrLOijTS73FWlmUW0IpT3M3yG+u0fj7HWh3MeQ2EZStd9591LOQ4TUvz2aAZt4PBNJ+BkyXLSgXVercdEG0TMhw1EKBuIR2wJfEuFrIf2vHiBu/6OYrWllYMtNTX0xkbJ/vjaY8di1c/Z0McPtmdKs/ygbVZ3emGHT18c/RP8J8d3KO1ByLZwvaxkWThJMgOjHXFXGpwqrHAtJ1Ve/W9jbjijrnYev/smn6YYaliyYGXrnYGB3gZcffQgQGrVi4dv4Ewv6rlCQ1qkTjEVV90pi7WI4sTvLLMWbW0IAvT7/zOQGtfcAM1oDMPNz9gwJJ1DFhm0AIziNcH3EgcrHYhAxLQgRrg+XvrMxKa5Xfxs/AdB9KL7Vu0NrQsi8rsryxCMzjQGb09qcVOANxy265qlSu/L4vSjT2wfl0MHzYRfSP90Ujxuk3dq8sd5k+3kO703RNh1e8pDKTescV2Jia6YsibF3rmYc+dkR/iYMXyHHg1js/dXB2rYNFwwNvfRWWWolxWIAcioKXrLjgnAAFY/s2gk9912z/72c9W66xayNqxgGYKmcVTrIFQH5DKYhHy63qMFeDEZx9WJZ8rGHpDr+PlK0s6pZGVDa78tNwVjvEXBLkNTG1zXmCuyznsl1f3kgcCTHmWpuw+8Vm6xJnn9VoQx6PMtgF5s1+7vqiMtIrLgwoG3Iovd/XpkIC2J9FkaKA7Roe6o5FuyK237qqmO+1J1q2bZqEu7qcS4FLF5B7o6euN4Y2TMbBuNDp7UsVL8fGTztN2mYPIF9Jc/ZQqkqquToDseLJiR0e6UkVIls383tW+ef/qrcLTjdgz04jdqbFJxRIjvamrmLYLh0rtAi1YZGCACwuV9QZGYAqAoAVofKGgAyrgauFsc1BBjyXKf2mhGU+feVKsbrVm8Z0CtsVZxCVfXBAGw0DdjAmwNMugOU/SArasUGlxrN/EZyDMfGJgA7k64N3D8ug8QMkHDfKOc04uC5+zKwTM5d10M9a9ubZ5dbM8R5d7Ql6yCmjXlg4JaMl7x4aSVVuF/p64d9tUXHvjjmr1LN38/RXIzkztjt7BvhjbuC510z1a6wGJBQuzrUonqJI8P22sO3HEDIMNG7pjfDRZ7V3z+UlJrMCaQ90ny4Ny355G9Kd9B5Nx1JfKQTyHSu0CLbFEQRI4gCbPS80DRs6rm279Vi4Fr2wRuAuky37SYFUvD0pYMCUPWrUSoAE6eOepWX4DOzMSwBrMwLNZ0iUt+fFeYsF6VNcaDhbMcV6waxbw8/OCtCe9uAAElqv0cCXII6iCOYvdal8ec7aYjLIwkKcR4BYpoF27OmSgdV9aXrEvWbcjQ13Jmp2LB3bOxs7dM+lmnKmAu1TNznjxXETvcH8MTYzF0Pp10dnfvonbldVd+XxTqOBa/VpZoOA4MtQZkxNdMTK8YMkuZMVu9VDJh7RdHFPJqvXZdK+BzrlgjJuHfCgEfiwrQACZDMcMWtA9UAETCLFc+UV9dq00UtmdAHDOKwCkYH9dfYumsCa5DDxmK12LQZZYlfIDXCxGwMrndzxYy0/uymdJD5CBHjhKo2NzOYAgP24ryJIy0+233V++3mzhsmxZ5vLnr7Sxam2zj/RY8Fw+gdbx9fs5g1a6bFOO9mPd1wf+ilaHDhlos7yufONETwKK0dWO2HrLzrjr/j3pppoH2d41j6vZmanoTIQb37whhtdPRE+yZjs4QXFrIY55GC6PWNzzg2sPj9spE98TZLtj4wYrJ0nA/LaWSsd5H9lDuzSqebX37Y4YMluhK/3tc56FzSsoIMhzTn1mJZn+xHpkpbUaeNpfsQzBRFzgkC0+FidIZbAoZxB0XgvVvOQlL6m6+9YjaDWlq5XEAZrmzubpVQbRwPLFL37xolagvHM5sH5zA8H6dW5gM9C2mJxTHuxv9TLHakg0Xn6XR+C2H7iKX5q4C1jKFojx1/e8X5YHJ7gWHKPxMZjHOreymfMUrS410oVfRgQduO68dyqu2boz/uvLd8aF370nfrhlW7X6lSe66vKbKWAzC10/GhkZiuGx4eg5bDI6B/sTdJsnzS+v+2D+fs83/XzcnYmyA/0dsWGyo/LNGuzbK2SzpOuhqKrPsryhby4eva4RZ29uVK8HWmk3AsCwmnR7WVzKmuWkMnMbtOpmH6hYq/yUgMai4x4wKARKBD6A6pwACbjSsFTISjuLlgvEjAMCKL+Li4VctxazbAdnU7JYnhoBQFQOZhuArMZiXxKPY/lpuS5Akq83NywsZ9DV2MirhsDUMHOD5dP5pLcOWnHxV2uUWOaO1xBai6LZMi869Fo1oKUHdszEly/eFl/49p3xmW/cHg/smomZdBO6v9yMANtIlh6yTacb1M3X09sTEwmwg5ProjE6FHNeQ3sIcjSUzM+x0c44bH1nZaXnWQUHo2MTR87Z2IjNQxHj/ck6SuVQq2ttlfLmx6zKfUEqerNltVzK5+N/9RfgwIgAltXregPigaYB8MRdlzjFt5gcI03LVQ7iAleNiMZM15+ym4E1Km7Bb4tpsbw4ph3Xp+jgtKpAOzM7F3dvm4lvXn5//L/zbokrr9seN965O0HLjILpZMU+9OSQwa/hkeHYsH4iOifGozNBtpFMQZmpZhisoNzXR2zujfUTySoxY2CJxuy+ZCxvLPUCzzmsEY9ZFzHQk2C7DABfqupwyWpnJXa+HFiOYELgmi1O5z+YNBxInpazHHL+5E3IcYsvW631sDctZ7qK2qtVBVoJMZnfvNrvXLUtPn3hrfG1y+6OHXsaVes9W4GWhZuA050syMmJWH/05kSkvpjrSS250agUSasbsC1Kp+nv74jR4c5YP9lVDYKlupLSt7D9ICU7wHpCsmxPSqA9aWy2mvrVqptbVFS0erWC9tG+hU98kUdv7IsXPmUyzjllKI6c6IzebiP78/QC2Y4Emp7+/ug26DUxEmFd2SSW7EpBVmqA0CIxmzd2x/Cgbu3yQZYYdHumGvHj+yIuvmMubts+Hbs82VBUVLSmtKpAm8UXaS3bcx+7Pl79kmPjmM0D0dUFoHPRlSzZ/pGhGDtyU+WXPSRKSelJidw83hEbxjoW3AXLSNisFGWjMZes/Ebcu6MRl97WEdfctyovWVFR0V60Kmstq9CY1glHDsW5j5uMJ58xHicePRw9Pd3ROzwcgxPrYmBiLLoH++f9sdmInWdx2wJj2Zo35v9aKGZirLNyF3gggXXbFqV4Wek7piKuu78jbri/Effvnn9kt6ioaG1oVZtHPakrvnldd/zSczbHC5+yKQaG+mNow2QMbdoYnb09FWRnpg2UIeBDIGxbsB7BzFwM9DVibF1n9I12R0f/CvhLE2xTNuOe3Y24LVm2Nz4wF9sfPuBcVFS0irWqQcuy9fryo9b3xPHHjsSRJx0eI+tHo7OvxRSW9LX6qR1hQcmgThZsR4yPd8bYiOX05ouvAvwKhJnZRvWorgHDFZ5YUVRUdBBa1aAlnLPC1+DIQBx2/MYYGvdM+8KGFKoHGDIMF74vZ8hyzv6+jliXIDueIDs0aIZBOqFBupUKSf43E6FtroqioqJlVw0lq1Pbds3Gly7fHeencPtdM7FzF1dB4s4KBS4JswnMKmDJHra+u5rSlWdBrJRY69Ix1BOxvs9g4cKGoqKiVa9VDdrb75+Ny2+aiW9cMx1X3Zwgu9uCyPrRaeMKBKBlyfb1NmJ0JFmyo13RP2Dwa+WLjb/6iMGIzSkM96bvq76JLCoqylrV1fXKW2bjvCun4/u3zsbt20HP0zMrY0lWftHZufB05tBAIybXcRckM7Lqxi/stIIa6pqLM9bNxYljCfxdK/uEWFFR0cFpVT0ZlnXXA7Px4ztm44IfTMW3rp2OO7fPVYtir+TjhZ4yA/UNE50xsa4zRhJku1b4zQfzg2BzceRoI44bjThlYi42JOgPJgv7UMvjo5YctCCMJ9VcG8FCL9YlsJpUeYKtqGheq+sR3JQSb1r4wa0z8cWrpuLi66fjmttnoyMBjiFb+UxXSN2pb97f3xmHb+qO9eMPAWPFCiudyBoP3Sk8fmMjTt3QiE2DjWTNLmw/hJqenn+flfVQvfnAAih5wRerYXltt2UB18K6qBoyITcURYdezU93PhKuy6oCLchedctMfPOaqfjClVNx946InVMKOm1Mwd/qGrQ5xWYbjAx3xqZNPTEyYDWu+Qv94PvA2qwqi+k/q3adMhlxwrpGHD7UqAbA2vEA2v7KkoGW+vunf/qn+OpXv1pBlqwc5SWJ3jzw2te+trJqV7s0GlbTstTg3lbxKlo5Veua1BYU2tsqZmtFqwa096dk3HLfbFzww6m46LrpuOJmSyTO+2UrtRm04hW/3q61ZMfXdcXG9d3VW2xzg2ofsG2nxO6lCsM9FpJpxNmHN2Kiv1F9Xy2ypqs30X7gAx+Ib33rWwu/ulYd1fqp3nzwx3/8xxV0V+PaqJZgzC9bzOvgWgDcWrsqdW44ilZGoGpdXdfE+seCBtCC5tbY3dvi6mtFq+aOum3bbFy2dSq+kkD7/ZtmYi7R7WEDX4lAebrVcgs7qwVp0ueuHu/66ooNCbReIyMFlm8U2g1ZMm2sK+XbWrQnJoPwiOFGNaVrNcmi097l5ZUzdakw+b1cAJbXk11tAtaLLrooPvGJT8Tf//3fxx/+4R/Gl770pWqN2GxJFa2cQNVC716d9MlPfjLe9a53xT/8wz9U12TLli0Le61tHXLQ7tw9GzfdvjsuvmZPnP+Dmbh928p0z+tisRr8GhvpjE0bumNk0OLS8y9anG0H2Zskv7MJsML6gbk4eWIuTl3fiCNH5mcX1JqbQyoQslg1kAKV19zww7Jc8zvE7OMNCd5KALarUd/73vfiYx/7WHzhC1+ofMzevmD92+KjPTTi7wdUr4T/zGc+U72xWIOt/j1SeheHLBfwZWGUux+Yictv3BMXXz8Vl26dift2pS0rfL+DmRW4vCFh/UR39QSY6+vtDisB/bmUYVn2Cpvslz1uvBGTA/O/rxbxneneAa030up6e/XKySefXL3XKgu4rrrqquplg6tRXtHjzbPetuv1NrlCCwW2Ky/3lUZZ4+xtwN6ppnfBP/tImbly6ECbemj3bZ+NK26Zi09cEXF5Mn7y6O9KzZWl2dm56k0GR010xORwR7X2Lbr5fSXV2zkXk/2zcfxYI05Y1xGDKzyVbClieXhtdt1SNZXLiwrNNMgCYFYJF8NqFD+swa/ii109Uu+bG7lWv61VHZK34M4kyG7fPRcXbZmJr187M2/JGpNjzFaFu7BjGzVvqSbI9jVifKQzNkx2RW9fZzS65l0GK4VZWe3qbMTGoUactj7ihPGOOGxwfjrbahNXwQUXXFC5DViF5NXjv/ALv1DBC1hZJ4BsJN+ruL3ldimWia47Szi/R0sQl+P2BkT+PedyHCvIZ8e5ho51P3FniDtv51++7LLLqu+Opyc+8YnVYFiOz/kpW7mtKrw0O5eGxQCO7m9++SKrzG+22Yf2lRcSZ86LkMshD9LJi16F3oJGzzlZ5dw19svvMms+T06jtDlGcD35RnO69nWNyPmVEf+72Sfy6fw57/zffPe2uwbS3SpeceTr4YWc8sKNoydEGnDXw4CYF2Dme8px8tcqTufL7q2ctuuvv75Km3szp8s+ymkp+V0uHRLQ7kn3tocQPnzxdFzwI3My5yFL8zf1/Od2qlpaMWlivDPWTXTH8Gi6QRPwuAtWUoAK9idNNOJZx3TExCpzF9SlQn30ox+tIKXi0gknnBC/8iu/Uj2ooDKwdgUVGIRZuvmlg3uTUWfwUPlBQ/Ab18Ri065ULJUPREEEgJwXrIDDjAd/VU5xq3zSaKbE5ZdfXn22jU4//fTK/aHyi8/5QSJXyFagBTYVV0UGiG9/+9tV1/eSSy6pLHqNkXNKJ192fvHi3iTP/JPgIz/SIY3KUHrkDZT4mU2tcy6Acj2kEaCcw751gaD9pFFDeemll1YgUl7i9rr1pbymXFqUmzTKH7+q+0F80mRGCrjZRxq8WLNVvMo5Xy/XzmvguQ48BEOOMyfbFEHps6+yln/XY7HZLK6Je0g80pYbVenSyICwewK8V3JGzIpO78K2qZm5+E6yZC+4eiq+c9103HRPMm/rA73tpkxKA5aaGzs02BGT6+ff9dXbm1q3xkrOk50f6BpK1/pnNkScPNmI40fNOJjfZ7VJhQeRt7/97VWFcsPyzZrK9bu/+7vVdlO+3ve+91U3OD372c+Ol73sZfG0pz2tgu7eBOL//M//XFW2LK/0/o3f+I045phjFn55uFgmYMHXahBFZVR5QNMrxM8+++yqsqvI0mVUWyVzjmuuuaaCgYpLHrBwvgxVQdqf/OQnV5WdqyELiPN5lUluIMAOKLMF6xgNhUptitKZZ54ZZ5xxRhVsa2VRieu8886roOgcpLF61ateVcHNK8ZBA9xBPJ/LK8o3bNhQDUw+4xnPiCc96UnVOez39a9/vWpYwAzAcwMDgIDm1ebnnHNOdb1YkK1e4w6M8giorq905gZBfNKRGzigl2fp0aN53OMeV5VjPc/SAoIaKNeCteke0CCQdMmL9Ch/19qA6ymnnFJdV2VYl3QoL3EqH/Eon3rDK13KybV49KMfHWeddVbVk3HP7KsBPFitqEW7c8/8XNmvJMh+5oqpuOcBC3ezYhd2aKecYwGifMAjw8l6nOhMF7Qrevrm355bV1t5myIH2tHU0B81EnHWpkYcM+x9aavXmtUlBNjPf/7zVSVTYVSec889t7ppVVpwYi2xuIiVxJI78cQTq0rXyirMEv973/ve+OIXv1gBUWVRuZ/5zGdWla2VVL48VeuDH/xgBQBWlorjGOd1TukFcU+yiZvFDQwszSwwNsDnvDloSMSh0gO2/VVclpEK/bnPfa6Kk/Uqz7ZJM4hpiIBJekCFhaUxkh5WpzS2enJO2sTJRSNIh3j1HIDdbAkNhXyLD+x8Bhnpch4WIJhIg2M+/OEPV5YvoGkkNEjOo1wcA3b2dZx50EKzWJPy6Pr/13/9V9XAyJe4HJt7FuAG7qxaeXcekNPQynO2bqXly1/+cnW9DUxKv/xkabDA1zldM2mUV/fUEUccUbmlCESBXjlpUEwPO//886t71f65ERC3tIhPupQZuU9cB/G2UytqP92xbTbOu3RXXHrNdDywbS5mE2TTNWi/Uv12g6tXelTrxkC2K7W63p+fIDubtgkL9c40qwd/a0MQP500HvGMoxuxebCxqiFL9QpJylPlAQAViAVz3HHHVZU1y43NMnPDqzh1sDULyFhS9eOXIpU4W6FZrbrOyyFgBzkW57/9279VFRpo5A2M+RRZ7z//8z9fWYes5GwpATBrEAgcq1xaST6kXb6ylCO4ffazn60Apsyf+9znVr0JZZ4lHdLDPQCu//3f/12BDGzBRMMoXY9//OMry65upbN4zV11jVsJsPg5WZ3S47tr7kEPjeFLXvKSypLOD30Q+IIaV40eh3soq1U+9yX7NlufGgDxKtd//Md/rBoUZeBauT9Z9i94wQviqU99avXd/SXtytH1cy00GO3Wili0Br+uvn2meuLrwmTNbr1nrnq0dh6A8/u0XQluXen6VO6CBNmhoa500VzkBL/5PR5MzHKvNZvz6DxgM9rbiEdPRJy+YX6xGKtxrcbBr7pMHmdhualVIJXkxS9+cXUjg0yutCoqS4R1w5JQoU477bTYvHlzZTUsVrF0/b7yla9UXT5QItbGC1/4wkUtWmXJglKZWZjOqRKyQlV4f6VLpZMWFU13EZh181lDGf5+BwrdXPAQPErMcpJuVqoKDBhAy4r1XVxcAioyyIIYwAIgny/L0rnBSblpqOTVE0/yBRz1RkGcgAwELE6SfnljCevqOpd0yp9uNfeE7bmbDLjKBRSVpXS4TnofrkXukttPOYjffs4t/UCu3OrXikWYFxFyTZ/whCdU8Zlxwk2jS8/1Il4Ql2cWvb+C8+TrQsrTtcruDuXhfI4hEOce4CZwHZxD2nL6uBHkVTnpWbg/NSjKWFyOcT2kjyvJ9XD95Ut65EeZybN0O8a1yK6N5VbbQes+3jU9F5+9cio+f9V0/PDWudi+J7VOXKIrBJd0HyVLMtINmbptY52xfrIneno7WwLVnNbllDx28P3Of0uJiTh6JOL5x3fEUaON6OtemcG/gxEYffzjH68m+KvMKqYb9hWveEVV8fPNaT/b3cAqgL9+41pQ2VWOxW5k8NGVBPLlAK3At6mryooBQ9Yc60ZlZlGqlCo88QX//u//fjzvec+rrMVnPetZFRQ0ItIsbuDi61UOIAU44n7Na14Tv/qrv1pZdkCmUjsWcPk+HcfSItaUhkj3XHkATb3bquLbVxc3gxZQgEH63/zmN1fwATblCjq60rrO2afLygN23zVwv/7rvx7Pf/7zKzBKF5eIOHSflZ00OUduFIGv2eJ1XTWCYCQOPmM+bA2UdMhzdrUod3nW5ad8PygLoCQgFQ8rWyOgQQJjDRiB4i/90i9VA63Kl/UOnspU2bn2roGy8iSZnobrCdbO8cY3vjGe85znVPenMuIrzveqvEife8d9J7+ug3jlrx1aut1+gLr2ztn49Pen4hIDX3fNpAs6D50KfvP0aZvEPzujy9GIngEjjV3pBuqungJ7yIxtr6o0JKDLb2f6ctrkXDx2Q1T+WYt5r3a5+XWtdBtVdmBSCdzE9YcUyE1spNjgVbbSWA+sXMHnQ6HcTRV8biWAVskEgBHqjQIo8QGCZBawaGzABtDqlimJA7BYVq9+9asrIGYBKQtMpd+XAEADAY7cK/Wuc3bZgJvrkdPg3Cw11pxgwCvL8axgUATWOuhZ3Nnar0s+NFbyohFynVuVp3ilR7ygqKHK0oDme6hZ4mmOK/8mNF8/cQC/hoJ/XdzOrYxyg6JsmiVNrNw84AfYroWGSoPTLrUNtJ76umf7bFx1y3Sc/4Op+NEtM3Gfwa8Ennp5AtFyhayHfU/n6umbf0PCyEhXDPTP+/Nqu7ddINuf7v9NQxGPmWzEo9Y1YrBnbSzercXnv2NduZlZs4ChwrFC6mJNAA4LgaWnYrA6DDIBreObK/BKCTTr4GyWbbky1yu1iijP8s96YgVlAQorM1fq5vh9BzFuCFZyfZCJtcmqBrVW4KmLewAcQEJ80pblu+vAxeG65DQArd80Bq5HHXj2YelrMKW9DlrXiEUs33XZRwPKMmRN1/Mr/QANomAlfcAsv/VGIbtODuQecK58PtJo50E353WfaSQBXnBuZWC/etA70sAAre2kEdWTkvbmfC+X2lbVH9g1G9/dOl1N4frelpm4Z4envlTG+eCzPIHQcoRcPvU4qTN1za1hsHljasUHFl6ouIKq0pNalyNHIp58VEecMNkR44Pzj/iuBemCmraVu7Gkm8VHV7eSCGizz802Foabm2+PxZBHgdeSVDx5YDXpCmt4sgCOtdjKcqpLWYCe8sgSn5F35ZsHGBcTyIEDP2IrAZAyFzKEQcQxGoM6oOqSfrDNMwEoA6kZOK6tOFvFBczuD/nReJi3CoDKqt6IAGyruMlvzb+3+i1LvOAIthnc8q6MQBZ4pYvboh40JOK0j8bAZ/tx2di2r0bvQNWW6n77fbNxxY0z8dWrp+PK9HfHblZB2rDAOGVXt2p9zt9bfW71W135u3jzdfFbd7IavYJmbKwz+nuNTjt4fvtKyEX0aO2Ro3PVo7XHp/o4mqzraunFhX1Wq1hxLBAgMFUmD1JQ7r7ZpnLloAvGxZAHJFgNygBIdLm5IOoW4VqQ9IMDaOiqygvYsNjlD2SzZbSYbLc/n6xjlB8QiEslV157E6vQQFjd8qwLBG0D8nxtQAdIQd72VmIBOq4OT/l17f1tlrg1lgbrrHxmOp7Vz4z2/8u//Eu1bOZ//Md/xH/+539WMw3At543cbaK90Akje4l96XPpBE3xc8MjXe/+91VuvytB2soG29wLV0DAmA9C8e3q8e1rKBVhtPJervODINrpuJrP5yOa+5IhYBvC1asMqmXtd/q94HvC/fKg9uE+m/1fSh/r8dtsG1goCM2HtadLNqu9H3lB50aKS0j3XPVDINHpXDY0Op4Q8JS5OYFAeDU9dc9y/K7ri93gPmU9cCa0RXT3WUxZPFF2p8lt5akHIBW+qVdZQQ+ecuzLRYDWV3Ax9pXLhmG4hbfvkArftOz9gZ08Qs5bvAEZw1B/q1Z4rXfYtvrAiAWn96JubQg9hd/8RfxR3/0R/GXf/mX8bd/+7cVbD/0oQ9VTw+a26xxzTBbbik796TrkkHr+6c+9akqLX/+538eb3vb26o01sM73vGOeM973lP1TuwP/Bo8n12HNWHR3r99Oq67eVdcePWeuPDamdi2Z95dQACYIeivssm/LZRTpVb75X3zb/V96MHvC79poNdPpG5Egmyv18WmNBiEW8ngMbgjR+bi9MMacephqUs9sO+beTVJBQFT0HQz1ysMCzdbMm7aHFgM5mK+//3vrx4PZTVk6ZoZUWYFryWpiCCTKzMBFOgB22qVdIPGcoGDK8A1Fzw0wRXEElQuLGcDZU9/+tPj5S9/ebz+9a+vZmAYjFvMCv9p07KA1qO1XkOz9a7Z+MbVU3HplgTcO2erNQ2yHoThgpo/5++tPrf6ra4H90mf3fssWTMMRpMlW/WKbEuJXKnQlUzZgWTJHjvWiJMmG3HEcEeMrIIXKu6PWFpGdPnAmrtU4GvOqyd6jMTXA8DmRWd0x7LAWuXMczvb1UVrh5q7u+Ci4WHp+ryU7rB98jF1gfZSLOIDUXMDcSCSbtdRr8YTa+ar8sNqZPiATbkCVYN9psaZjmd+tZkYBp725VY5GDWXHV+zgToDhwZrgX8pQR742vVSWvmgl0PLcoWtX+DNtd/ZMhsfvHgurrnr4V37lZJzDiTLcf1kZ/Qn2PpuucOVXvJwIN1bhydr9lEJsseOJeunPfWordKdYoHyvS4FJPsS60e3E7j51drVpVxu6VaDSr1C62LqFgPQUkFrP42Ncsj757jbVbmXQ2DtHtCL0UORB75dMHvDG94Qf/M3fxNvfetb4zd/8zerqW4e+vBwgYE54GqX1a/suHDEn10fXCWve93r4p3vfGc1t3ap4a//+q/jd37nd6pZFfWBweXUQSPAcodbkiX7uSum4pvXTsdd21O3sz1ujsWV7lv36siIBxJMLemqHml1Py8DI5Ys07UG+hpxzHgjnrC5Mw4fbES1Vs3aMmYryOri82PVu/+6iCaRmwxuIZnFwpve9Kb4vd/7vXjlK19ZTR5XAVRYlnH27fLz7kvZclys+wtYeSCjXRYyCKp8BpWM4PPLOi/L1LkNyOyr0QBmPkBBGRAIKU8DZPXZCKtNrkGeZyq/GhxpZwGyWs2mMH9X+fA/G+yTH/u5JsvRSLeS+J1LWuqNoPNxVwA9cC4l2Ne10IAsxV99IDpg0Co+ZXhnsmSvuGk6Pv3dqbj4hkPTHVQ2PT2NmBg3w6ArBgfmB79W0pKt0tCVQD/UiBMnOxJo55c8XIsCBF18lkye1qULyOfG//Ynf/In1RNKi4W3vOUt8ad/+qfVE0m6cAaBsoDWRH0+2+ZKCGrNlQaQuRpaSUVmWRqkOlhfpHO1goL0GIgyi0K3VOXOAvg8E6HVsVkAJY32B1r7AqxKroKbkbBaBbR6IVxBGhdWpMZGoyP9zRar/e2nTFi/bRtcStcF2IV8z2jwNArS67x7uyZku/QK+9r3YHXAoJ1OTN2+Z64a9Prk5dNx+wP8k/PbpHklw+BQgtpYZ/rbGd0Jdl6k2O6Ca5bzbhhuxJM3RZy492mVq158sHxyKkuWSeCeuOF3YzGAz2KBBcg68PACONUnywOtmQnNcyxVYHMbWb9ZeZRbepqVLWTpZHnvjysiV7C6pEUczb9nAaPJ//U5s9LGbwm2e6vYrEELmNSntnmyyuT/1WzNkjy5DwRlwzoHUN+b/c1kW74mzffQ/kh5iiv3AJrlfgF7jX+GvQbNOhQW0tGotUpfXfKiwXecz4td++XQAYPWa2iu3Dodl97g1eCzsWMXuC1sJJ/bHHTV+dpHEmhHkyXbtzBX1oBUtc8KyPMP3BSHj1goJoXxRqzvX5uWrEoFYMABDvXuvefFjSzneaNu9MVC9jvqTjqONQi2LA/+WZayaWNu8AwncYIPCy9331jW1l81bSw/Agy+KhHLxaBbnhy/P6DVCABc3TfKVcJqcw75dg5/xSuN8iL/usksUHlh9RsAlEYDROIAB5VW3rL7xXZrMQCtsnG8R2Z1v+uN0GqV8hLk2f0BnsrKvGgNpu+uizm28muRF72WvGrbviTefN9kidM11jDna6FMlaFt9nW/cF24Z1xP5S5N5vAatPNEY/2aSIvP+WER909eES1f53bpgEG79a5kyV68K35803RM72J+L2xos9TB7EaxGhe/7Oh4VwxXMwxWHnDOCfA/c1iyZjdHrEuQ9UDCWpQW3Q3niRsVpg5asGQ9qHBLFYjkygBQwCZO3X3n4JbIVgRL2Ci27mgWKFv+zuR4lUKlY4FoCCxAY/I5gKlMdet4X+LX486oj4gDpdXJxC0+lTxXUnBhyXuO3gIqKjYwqPSOM0HeJH3QB1/HONb3j3zkI5XVq7EAcb0BcWUf52oHLQi69h7vlWcCLbNLWI+A6zq5LsBmdTNT/OR3qXIOjU99IApcLffosWcgBEdlykp2/7iXXAcNlkeTNYRZrslf/dVfVWXv4QqNtPiA2vUxsCedpiRyczkP67edoN3v1bukZc9MysxNM3HeFVMrP/iVWJquS3QluI0Md8bEuq5083Y+OPi10joigf7xm7yKJmL9QIJsSltuCNaaWAqsEBPSWWq+gwy96EUvqkaaVYi6Jbg3sUwBELxUFH/d0KwRlVflAFbx2VdFy08eAbB9gV9wPPjn15OwWqzYpLKJR0V3LjBQ+UDb31YNAytMpQN7FZAc69wACxKsUHkFZI1AtuJJ+sFFt1YZ+eu7/IGNRiFbuvIiTucTHyiYAmXVKo+/iqs+ACNtjs+gJ5AzdUo+W5W9cpIX1pzzKy/nsiqWHgV3DJg1Kzda0ir90iF91j+QNvkmYNVIsFLlN//mGOeVR3kVj+8aEz0fabBf7sKbRqVXwPqsW68kfa6nKYMEevKh3KTRNbFdIyY/3FI5T85nP+XlfnWcBt2++ZqAqfR5nNxnadZr09gbR+Aay1Z7O7TfoNUr3z09F1fcMhvnXTmdPqcfVxBw7snOrkYMDnVVMww8YtuZ+u8rDVnGs7fnnjLZiGcc1ags2Z5079TqzJoT6Kgo5siyCtx0Kpsb+aUvfWm1zN1SIZsFmCo06093jQA1j7qr2CqdoAJJgwqlwoCfCud4lULlAFrABV7wA3+wlm7HSC9QgKxQt1qzAEVgHYnbOYDEIAor1HmcQzwsWFZn7toCr++spNwdBVqV3DEsMI1ABgN4KwODaHoE1pI1c0OalWsdsgS04mB5KQvnBT0rZu0NtIACzmArP0AHtHoTPrcCiPidB9hBSVnVQZstTH/l0XQ/f8WfIcY6lFdpZt2CqCle2ep3jtwAulbWmG0GrbQpC8eLSx6VGXcE/7xr4rr77B6RNmVJrrfvrqN7It83ygRE8zUBV9dFepWRba6d+JStsQT5XzWgrUCXwHbD3bNx0db5p6AsRbhS6uppxMBgR/XWWq+j8QbZQ6GRZCidtSGBdn1HbByRjrUNWdIlAzSWitZdd1/FMwimkvh+IFJxVACVAajEA1asWgNMKl0GiArHGvU3WzW54pDjgEDlACxzNv0GlAasVDpxAgyYZSu0Lr9lyDm3Cu0czkVAIJ0sMHGJ3372l06WmorOqgIx+xOrKrtCSGMiDdwE4rJ+q7I0nQggWkGTJQZg4nE8NwPYgyYotDpG2QK6MpAPQFYOXB3+Sn8z0El6gR2gnIvlzLIzyCRvGbTyLo+um/wqp2zJk23ZtWI1M2vfOlZD5D4yyGm7PLh28l4HLQEc0OWycb3BXH6yXBPX2zWRVsrX0LXXsDqX9Lh3xJHTmGW7MjEQqdHzNgwGhIZB2bYqp+XQAb+c8Ts3zMSHL5mKH908E7fcs7DObIuYqmQ3pz3tt7eTPnhMbT/5N2VreLgzWQdcBp3zj9euoOazMVdZrxbvfsKmiCP5iAdWNh3tklaeJesvKJLpM25qN7HKsr8CDPBgbenyu/nzzQxWutCgl4GYgccCYcmwgoEfDB3HMgRiXVCBgIJVplKJR3oBbjGLlqTJfF7dSnlmkarYBExgBRr8qCBUBzawSSPfIauYNc0aBkj5U8mlFZSAg59aelhNKnozZOpS7qy3PPin/EAAFMCk1bHOKS2CcpY2oJN251VmrQCil8HvzYJ3LrDL07YEwMtStq4Dq9b+Zlw4nrKLRaOsURFsZ9Hnaycf5lTnmRat8iENGgxWbbY8wZqkX1kqB/FrSOty37imrqXzOr8y1JDUpSw18IK8upfc4/LQTh0waO9+YDa2Jqv2I5dNx1d/PBO7d0ynG3BhY02ub7M1rtFvBeWs6pgUqskDC/t1puvS3dcZmzek1mudrqZ31//kzdNOOVtHx1yctbFRvYbm6NFGDKb6t8LJaJtyt0ulEEjl09KrGAfarQIe8WYIZYkTwJrjzdaICqryqeS+2x9AgMPfXFmltQ448dm2Nwslp0nczsO6y9aPuFU8QACbVvl2vPJyXjAQh+C79Di/Y0E6p6VVXpuV89J8DfblP5QX6RFyOTif8y52nPhzHhxDOa3NZWe7/Z1HfvPoP0mbxjKXlzjq91KOW3psWyw9+RzZYgZpcZDjxM+q13j63qx6+lxL19Q1qStfV2mup2ex+2S5dMCg5ac1pevK2+bi+gTcHTvTRWvxgIDky0SVjxTMtVWg+zpplfHafkb3u7qTRZusx77++cdrU6wLW1dGppN1p57b5uHUMg6ktCRjabW+HvyRoFzpVFqfVQgVYynAWqrEK4BNrtQZinuDVF0ZcDmd9bSCQrsr8UpL/QWyennJa4bWckhZOoeypP0pz1bXNCvDtbkhabcOGLR1efmiV4lbtGoxKX/Zsu+BSJkc6jcSgGpvsqSLioqK9kfLAlo9A5D1t5UqNGU+2W/h4/5o3oI9tJKGR4qboKioaOW0LKAtKioqKlpch7gzXlRUVPTIVwFtUVFRUZtVQFtUVFTUZhXQFhUVFbVZBbRFRUVFbVYBbVFRUVGbVUBbVFRU1GYV0BYVFRW1WQW0RUVFRW1WAW1RUVFRm1VAW1RUVNRmFdAWFRUVtVkFtEVFRUVtVgFtUVFRUZtVQFtUVFTUZhXQFhUVFbVZBbRFRUVFbVYBbVFRUVGbVUBbVFRU1GYV0BYVFRW1WQW0RUVFRW1WAW1RUVFRm1VAW1RUVNRmFdAWFRUVtVkFtEVFRUVtVgFtUVFRUZtVQFtUVFTUZhXQFhUVFbVVEf8fFfbDfGuBf8gAAAAASUVORK5CYII=;" vertex="1" parent="1">
          <mxGeometry x="343" y="297" width="100" height="42.48" as="geometry" />
        </mxCell>
        <mxCell id="Ebmc-VcEYs3Wesn4mwOp-17" value="" style="endArrow=classic;html=1;rounded=0;" edge="1" parent="1">
          <mxGeometry width="50" height="50" relative="1" as="geometry">
            <mxPoint x="402" y="470" as="sourcePoint" />
            <mxPoint x="402" y="350" as="targetPoint" />
          </mxGeometry>
        </mxCell>
        <mxCell id="Ebmc-VcEYs3Wesn4mwOp-18" value="Rejected" style="text;html=1;strokeColor=none;fillColor=none;align=center;verticalAlign=middle;whiteSpace=wrap;rounded=0;" vertex="1" parent="1">
          <mxGeometry x="769" y="403" width="59.5" height="17" as="geometry" />
        </mxCell>
        <mxCell id="Ebmc-VcEYs3Wesn4mwOp-23" value="" style="endArrow=classic;html=1;rounded=0;" edge="1" parent="1">
          <mxGeometry width="50" height="50" relative="1" as="geometry">
            <mxPoint x="460" y="320" as="sourcePoint" />
            <mxPoint x="520" y="320" as="targetPoint" />
          </mxGeometry>
        </mxCell>
        <mxCell id="Ebmc-VcEYs3Wesn4mwOp-24" value="" style="sketch=0;aspect=fixed;html=1;points=[];align=center;image;fontSize=12;image=img/lib/mscae/Azure_Boards.svg;" vertex="1" parent="1">
          <mxGeometry x="380" y="482" width="53" height="53" as="geometry" />
        </mxCell>
        <mxCell id="Ebmc-VcEYs3Wesn4mwOp-25" value="" style="endArrow=classic;html=1;rounded=0;" edge="1" parent="1">
          <mxGeometry width="50" height="50" relative="1" as="geometry">
            <mxPoint x="600" y="503" as="sourcePoint" />
            <mxPoint x="443" y="503.12" as="targetPoint" />
          </mxGeometry>
        </mxCell>
        <mxCell id="Ebmc-VcEYs3Wesn4mwOp-28" value="Test Plan is complete" style="text;html=1;strokeColor=none;fillColor=none;align=center;verticalAlign=middle;whiteSpace=wrap;rounded=0;" vertex="1" parent="1">
          <mxGeometry x="480" y="477" width="120" height="17" as="geometry" />
        </mxCell>
        <mxCell id="Ebmc-VcEYs3Wesn4mwOp-29" value="2" style="ellipse;whiteSpace=wrap;html=1;aspect=fixed;" vertex="1" parent="1">
          <mxGeometry x="250" y="403" width="30" height="30" as="geometry" />
        </mxCell>
        <mxCell id="Ebmc-VcEYs3Wesn4mwOp-30" value="Approval workflow is triggered" style="text;html=1;strokeColor=none;fillColor=none;align=center;verticalAlign=middle;whiteSpace=wrap;rounded=0;" vertex="1" parent="1">
          <mxGeometry x="280" y="416" width="120" height="17" as="geometry" />
        </mxCell>
        <mxCell id="Ebmc-VcEYs3Wesn4mwOp-32" value="3" style="ellipse;whiteSpace=wrap;html=1;aspect=fixed;" vertex="1" parent="1">
          <mxGeometry x="372" y="264.5" width="30" height="30" as="geometry" />
        </mxCell>
        <mxCell id="Ebmc-VcEYs3Wesn4mwOp-33" value="Adaptive card or email is sent for approval" style="text;html=1;strokeColor=none;fillColor=none;align=center;verticalAlign=middle;whiteSpace=wrap;rounded=0;" vertex="1" parent="1">
          <mxGeometry x="402" y="271" width="120" height="17" as="geometry" />
        </mxCell>
        <mxCell id="Ebmc-VcEYs3Wesn4mwOp-34" value="Approver" style="text;html=1;strokeColor=none;fillColor=none;align=center;verticalAlign=middle;whiteSpace=wrap;rounded=0;" vertex="1" parent="1">
          <mxGeometry x="773.27" y="264.5" width="120" height="17" as="geometry" />
        </mxCell>
        <mxCell id="Ebmc-VcEYs3Wesn4mwOp-35" value="Status updated in Boards" style="text;html=1;strokeColor=none;fillColor=none;align=center;verticalAlign=middle;whiteSpace=wrap;rounded=0;" vertex="1" parent="1">
          <mxGeometry x="890" y="396.5" width="59.5" height="17" as="geometry" />
        </mxCell>
        <mxCell id="Ebmc-VcEYs3Wesn4mwOp-37" value="Azure Boards" style="text;html=1;strokeColor=none;fillColor=none;align=center;verticalAlign=middle;whiteSpace=wrap;rounded=0;" vertex="1" parent="1">
          <mxGeometry x="777" y="526" width="120" height="30" as="geometry" />
        </mxCell>
        <mxCell id="Ebmc-VcEYs3Wesn4mwOp-38" value="EMAIL" style="text;html=1;strokeColor=none;fillColor=none;align=center;verticalAlign=middle;whiteSpace=wrap;rounded=0;fontStyle=1" vertex="1" parent="1">
          <mxGeometry x="706.27" y="199" width="190" height="40" as="geometry" />
        </mxCell>
        <mxCell id="Ebmc-VcEYs3Wesn4mwOp-41" value="" style="shape=image;verticalLabelPosition=bottom;labelBackgroundColor=default;verticalAlign=top;aspect=fixed;imageAspect=0;image=data:image/png,iVBORw0KGgoAAAANSUhEUgAAAuUAAAHSCAYAAABLrbV2AAAAAXNSR0IArs4c6QAAAARnQU1BAACxjwv8YQUAAAAJcEhZcwAAFiUAABYlAUlSJPAAAFzJSURBVHhe7d0JuB1Vnff7FSYFhJAEWgQZOoMtgg0KYUiAfqEJkMCj0AwJOPGC94SgL4NKAoGmX5ApYEugBRKu4aLtJWFQ8trkhEnyNCFhxtCi0JyTKARQr0kgREBROLd+a9d/n7Xr1N679nRqn5Pv50mlatewaq1Vw/5X7VV1hvREHAAAAIDcbBL3AQAAAOSEoBwAAADIGUE5AAAAkDOCcgAAACBnBOUAAABAzgjKAQAAgJwRlAMAAAA5IygHAAAAckZQDgAAAOSMoBwAAADIGUE5AAAAkDOCcgAAACBnBOUAAABAzgjK28TiqUPckCFRN3VxPAbof93Xj/f74fjr2Q+rabSuqGugcXx3YjBpSVBuXza1dgP6mFo8NbVM1o0fP9Vdv7jbdcezDwYVT4ZV6mPI+PGFOokCktbUSbe7frytb6rLsmv17rfj3fU+U4MpjSwWu2vPXe6Hlp+7MNN6Nl6N1hV1DQBI6GmBrtnjepR0rV1HZ5zAQNTZkVqmPt24jp7OrniZQGdHPH0AVULFPGetj7gbF6WRUi2N6ZrdM87WUa1eg3nHzQ5yMpjSyMCO3VqX2xg1WlfUNdC4gfjdCZTTkqC8nPY9eLp6Omd39IxTwByPqZkFoeNmlwaXXV3Rv86e2R3hhUrf9QzaoDxZHxLXia/zYp2oS79gaUR4gVipaotlSdk2gykN9JcmnFMAVFXxewgYYGhTLt2L3OXn3uKWF35Nbq7Ro6N/E905c5c5nT0KbnGXZ29TMPjEdTLxnLluWXRhGAWb8YRb3KQx2ZpnZDX6nItdsdYvvz69qcziqW7SLYXBjs65bmJhsGgwpYF+0spzCgBgUCIo708Tz3cWfy7/VVdhAFGw2coLlolurqW9/Fz3lT5pL3ZTe6NYNzc1ih1MaQAAgHZEUN6vRrtP7BUPPv9S+p3OjdXEua433ry2qXfLK6W9eOqk6DJAOlxnpSh2MKUBAADazgAIyrujYGO8G+/fJBF348e7qdXe2tG92F2fXG5I9Hlq78/+xTdUjDnXFX5lvsVNCudvp9fBdEf1cP1UN774Fg51hfIsLlMR9naU8fEd1e7F17upUd2VLt+qt5/UbuJxcbQZbYeFYdV3K9+F/Pa5OZzRxLmdcdOPaBvbdo3Svbx4Y7l6U4/BlEY5VV8vluG4qkkN+3XxeB1fbl29b6mxfT4peUwUNXB8hXVVyzmlUl0369hNXy6uP3tDUtn67KuY5wzLVCqfr2/tRyX1XXhL1eJoWrrFbmo8X1qSprgNKtSrTeuO6qC4L9dQD17N+0zv/mlZK2yf5PLltmujy9dR/hq3U9b9o+y+UXOdAoNM3La8X3TW+kBGZ/JBwERX5iGq8IG4vt24HnvZQeX5oq6WB0cqPdhY1NUze1x62pXqpqtaPQRlClmaertDxbJWzHN5FbdnpvpI6uyJgk2/XPhGijDvDb2pwvLk66v8tqhoMKWRouJ+mPG4yqrm/br4VpkyD09WfUNNbz2Fkxs9vsJ11XJOqVTXzTh2O0seLk92UR3aPlTLMVqs42rbu/dYThavq88D3lE5k59T6qRSmqFifVWoV03rU6811EN9+0zp/ld5X0nbxxtdvrby17WdSs5L8bg+0rdjM49DYKBq36A8fK2bTiDxaK8rOqgtCEmeSIPlOvq8yqMrykN0suozusqXfRYZvuB6T4J9Ty6V6qaw3Liejtkp9eDTS1/O0hw3Ll6+pOB6O0TvSbmeYLfi9qznCz+a0750SvJT3N7VAoFqguC12NW6zQdTGn2V3ab1HFdV1L5fp3+Zm9IgI6UuyhznjR5fqft/hnNKpeUbPXbDuhiXVq5w36nzGE0ttyl3/BeDtihf0fKl661Wrsrb3xTLXqFeXVSv2j596iaj+vaZ3rrriI6XvttVi/ceZ323S6PL11D+urdTbx7LfqcU0+6H4xAYYNo0KM9y4k8/QRdPyLV80bQ4KO/zSsQaTyy6Y1E2GC1zgpNimlFXrhp7T9I11Fes4vasUB/lZfzCb0QQXKor+8VRyWBKI6HcNq3ruKqinv26/D5n+05HFLCo3/cCrlyw1vDxlbavZjinVFq+OC3q0pKX4jx9tknvubH8PhEEOrVu0wp1UlAuMMuSr2A79dmG6ef8pHLbWcJ6beR4qW+fCc5vUVe2DMXlk/M0unzW8je2naqdKywPybRbchwCA0x7tinvXuTu9A0yKz2wNtFZE+TnX0ppbLb8Vy6X95ssP9eNKbaFK3Rjxkxy595SaGE6rqPTddX4EN7oc+a6c0bHH5LGfMpFX/6R511aNXjjZrvzy6yy2I47r/rqb12/itv6NmAwpVGrJu4n9ezXxf01+aC0nTM6jnPnf0pLLnd3Lio9ILp+VaitjuNKD4aGj69WqufYXbzQ2QO/F5ct2ER3fhTh1WXiccVnGkqe/TDB+btk/Znype3xg/gtVX23YfNUzkM1De8zld6OFLylK/W7TRpdvlL5G9xOo485uVD+5Xe6vptvsVvoEx/nTj6mNO22Pg6BftKWQXn3ojsLwUb0BVvuvCNj/JevvpN6v5KKJwQ9YFXxoaH+NC4Kxme7zq4etyw6k5Y/zVXT7RYvXuyuv36qm+ofvhkfPFBW3riTjym/zuLJrr2M+9SYeKiZel8ZOG5cvO+c+5UaHx4dTGlk19rjqob92gLCxBe+nTMUcFtel9+5KAjcLRjocImYPFDf8dVK9Ry7iwsFrXr+HF18FVStem+I3JISlZc7f2fNV5Sz4luqWvbq2Kp5yKrOc3LF89tod8zJ8TFdpvyNLl+p/A1vp9HHuMLqUy6qLOAfd7JLxOSB9jsOgf7SlkG53dFyt0wqueOc7MacG88X3jUbfY5b1jW78GW1PAogxoyJ5o0O7ApPpDfVuNmuq9AsKOiWRcH4OW5ivdF4dxSA+afRx7hJkya5c8+9xd1yy3K3fLD9ZZLiHTbn9vpE/Zcu5YSvDLx4We9dnnO/UsvbJwZPGjVpxXFV135tAeFyF8YBhXNGHHBbUBDeQe5+yT2v/rhPuT7hzCA9vlpzYVsw8fx4X7jl8sSF4GJ3rT8vj3Ozy9ziz5Ivu+HSthrcZzKf38q8OrfR5bOofzsFFwUlF8bR3hEH/B0XnxPNlbCxfM8BFQzO95QrgOjpcl2dHa5wEzE6sKMAf0wURExt1a3EVum+3o0fEwVg/ntunOuY3em6uqKyWcBvgdIgULzDZsFVM/X5S5ej3Tk/sCAz7Q/xpBhMadSjmcdVA/u1BQK9d2nju+DFO3t2B6+3eYXtW33uPA+646vbveSvPlqs3N3QTHdCB7j+3Gf2+kTp/lqrRpevU/GvD5f8olXh16qN6HsOqKQtg/Li1XdHZ+GArNYtS7nqjsaMnjjXLVsWTe/qdLM7lOZyd8u5Yyq+47bdFANV3YFftszNPScKwfRn6v3UwcTusEWa9tOyWZz+ly6jIPPi+Gf46k0/BlMajWjOcdXIfl1sSnPLwqg2InEgGN7Zs/bWhcC92y3yP8H0bcc6+I6v4A+UVdHdUPQeXQjGO1x4N7TindBYliYpxV9L21B/7DONlr8Z9dfYdur9Rcsu2rqvv7xwwZZyft94vueAytoyKC+2dWzWX70cPdGdM3dZ8S8hprWDbE8WTETnqnJtS/N42K/puoPmGOV/9q5XpbR7/xDPcnfuteX3i8GURtPUfVw1uF8X79IWHvoqBIKJgNvanvtzSJfzsUOfu7eD8/gqPmuTaDqQ1HDglmzf321/wCr9l67izRa7mCqr925/6UO5Y5wlUf4Bxt5t2hrN2WcqHyt2RzlZ/l6NLl9J49upwC6MC/uh1Vva+X1wHodAPdqz+UrxZN/cn+KLJ5uyBtqT3d3uevszjgNV92J3/fgxQXOMZeWfwK9H0NRj3OwfpKQ90c0tRpWT0u/2DqY0WqD6cVWravu1tVnVXbjrCwFIn4A7vlOngPH6uElFzT/lN+P46v9zSu/bL851Za/NigF0I+wNLoW7oXa3c9zs86MpfRWbNERb4/IK5/Xu67/iCj+aJYP74MHCchccwXMp+ci4z/Rpi9+reEe5zMWN1+jyFTS+nWLhRdvieLvU1axpEHzPAVn19KMoXsj8PtHed6C6lD9eIF3+DyV0dJS+C1V/FUx/UKHP/MEfIOj77tVs72WtyN6jWud7nMvVTcm7YMM/FKF3nwfvrPXTEyu2NCuWKcP7lMupuD0r1EdXV2Hblby7Pcp/3z9KE9O282XtW8bKerdr5e0Svv83WQ+DKY3qyu6HdR1X5TWyX3u23xb/CErfmWwdhT/Ak/5e52YcX+nns+r1Umn5Ro/dYtpRvvv+gZnCX060eqm8P1VR3A7R/uHrq/IxWvm8XvpHadKrtfcd3Mnl7Q/nFMtVoV7Tt1k29e8zpe8Z77N8ovx9t32jy2cvf8PbKWbpFP7YUXqepHXHITCwtG1QLuGJwbpxJQdo1CW+UJLLVJvf9H6JFTr/RVPLQd6ioDya0huM9el0ArMv5vInq3q/2KupuD2DL8+qXfSFnogbSpR8QVQqS0LvNu1bN30U6yHqgvIMpjSyKLdN6z2uyqt/vy4Ily8zT1gPZffvxo+vcnXcu80KnU8nbZumLG/T6j92o3Ilt1HYaZ0NnrMKEoFihrRSz+sln/VXHcunkqzXki4qVzH9CvWaNi27eveZ3rrShVJpsFnaKRDuq9Hlayt/o9vJy3QMSuuOQ2Agaeu3r4w+Z1nxYbLogPQKb0eKPo/rcLNnd7quxEOeo4+5OGX+aAnN39lV5qFQ5ybO7XKd4XJRN+5TheF8TXRzE3UghfeeL3PntO6tZy2ld2t3zC68u71n2dyKr4vUz/FR8SN9H9QrK2jq4Tourt4kJnhQstj0YzCl0aB6j6vyGt2ve9+VXfYn8WLb80jZh4dbd3zle06JyrUsWv/sjpJyRRssil2i7VV8QrhRvQ98SqUHPE3qed3/H32O631uhZ3c16vKVbLBml2uSpqxz0T1pu2TTCM+nvT3LCprdPnqGt1OXqZjUAbn9xxQqyGKzONhAMBGovv68YW/9aC3XDUSxEUXjUP8VWOH6+yJLrALY9FHt39+plDlPeX/ImdZjS4PoN0NzveUAwAqCN540dAfGep9CK/cA54AgGwIygFgI9O9+Nr4zRk1NAlL0fsGjsbSAQAQlAPAIKNmDvorq4tdd5832ulvAox3Y+whhSzPKJTRvfh695VCRO7SX9EJAKgFQTkADDr6K6uT3JgxQ9yQIWGnvwkQB9Idna6r1obJaj8epzVm0rmFB/+idJYRkQNAwwjKAWBQGe3O+UGnm518Q4lEIwpvtOjxb+hoKJTu1zeeAMDgx9tXAAAAgJxxpxwAAADIGUE5AAAAkDOCcgAAACBnBOUAAABAzgjKAQAAgJwRlAMAAAA5IygHAAAAckZQDgAAAOSMoBwAAADIGUE5AAAAkDOCcgAAACBnBOUAAABAzgjKAQAAgJwRlAMAAAA5IygHAAAAckZQDgAAAOSMoBwAAADIGUE5AAAAkDOCcgAAACBnBOUAAABAzgjKAQAAgJwRlAMAAAA5G9ITiYcHpA8+6HEv/ffrruul37pXXv6DeznqXn/tDff2239y77z9Z/fOO3/282211YfcVlt/yG299YfdTjsPc7vttoPbNerGfOJj7hN/t5PbZJMhfj4AAACgvw3IoHzNH95yS372vHvqqW7382d+7TZseDeeUp9tttnSfWbfv3Vjx452h/3jXm77HbaNpwAAAACtN2CC8vfe+2sUiP/Cdd77rHvqyW5/h7wVdMd87P6j3aRjPxsF6J92W2yxWTwFAAAAaI22D8rffec995MfP+5u//elbu3aDfHY/jFixDbu1C8d4v7phAPdllttEY8FAAAAmqttg/L33//A3Tl/mbvt1iVu/fp34rH5GDp0K3fa6Ye5k08Z7zbdlGdjAQAA0FxtGZQ/t+I37pqrFrqV3b+Lx7SHUaN3dNMvPM7tvc/u8RgAAACgcW0VlP/lL++7G2Yvcnff8Zhr0xv4bsiQIe7EyQe5s889xm2++abxWAAAAKB+bROUv/baOnfRjP/XvfjCa/GY9vbJPXZ2V8z6gtt55+HxGAAAAKA+bRGUP/3USnfBt/7d/fGPf4rHDAwf+ciH3dXf+ZLbb+yoeAwAAABQu9yfWvzZQ79w5/2vWwdcQC7Ks/KuMgAAAAD1yvVO+f+550k368p7WvbO8f6id5vPmHm8+/zx+8djAAAAgOxyu1Ouu8uDISAXlUFl4Y45AAAA6pHLnXK1IVezD71tZTDR21iu+7fTaWMOAACAmvR7UK63rHzl1BsGZBvyLPTw5w9uP5u3sgAAACCzfm2+ojvjeu3hYA3IRWVTGQfbrwDt6NFvj3MHj78s/gQAADBw9eud8n+99qfurgXL40+D20lTxrlvnv+5+BMAAABQXr/dKdefztdf6txYqKwqMwAAAFBNv9wpf//9D9yXT73Brez+XTymPTz+zNXxUHkH7ntBPFS7UaN3dD+8/Wy36aa5vw4eAAAAbaxfosU75y9rq4BcwXiWgLxRKrPKDgAAAFTS8qD83Xfec7fduiT+lK/+CsZDKrvqAAAAACin5UH5T378uFu//p3408ZHZVcdAAAAAOW0tE35e+/91R1/7Cy3du2GeEz/a/TOeCNtys2IEdu4e+6d4bbYYrN4DAAAANCrpXfKl/zsF7kF5Hk0VSlHdaC6AAAAANK0NCjvvPfZeKj/tFMwHsqjLgAAADAwtKz5ypo/vOU+N+kq98EHzUk+r0C7Gc1XZJNNhrifdl7ott9h23gMAAAAUNCyO+UP/+wXDQfkdte7He9810p1seRnz8efAAAAgF4tC8qfenJlPATz1FPd8RAAAADQqyVBue4Kr3j21/EnmJ8/8+umNecBAADA4NGSoPyl/37dbdjwbvxp4HrlB9fHQ82hOlHdAAAAAKGWBOVdL/02HkISdQMAAICklgTlr7z8h3gISdQNAAAAkloSlL9M4FkWdQMAAICklgTlr7/2RjyEJOoGAAAASS0Jyt9++0/xUP0Gw7vJ0zSjbgAAADC4tCQof+ftP8dD9RmsAbk0WjcAAAAYfFoTlL9D4FkOdQMAAICklgTlqGDIkHgAAAAAKGhJUL7VVh+Kh5D0kY98OB4CAAAACloTlG89OILyXb9yTjzUPATlAAAASGpJUL711gSe5RCUAwAAIKklQflOOw+Lhwa+Zr8JZvjwj8RDAAAAQEFLgvLddtshHkLSqNE7xkMAAABAQUuC8l0JyssaNYagHAAAAKVaEpSP+cTH4iEkjR4zuOtm/Tv8xVIAAIBatSQo/8Tf7eS22WbL+BPMlltu4XbffXD+ivD+Bx+4Z1a+6pY83x2PAQAAQFZDeiLxcFOd/40fuqX/+av4U23a7c/sH7jvBfFQY/7hf+zpZv3rl+JP9Vtx61R38xPxh1QHuGlzT3f7xJ9aTQH50l+tcptvtpkb/8nd47EAAADIqmVB+Z0LlrnvXvsf8afaDNag/OJ/OdEd+7n94k9N8rvF7rJ/Weg+Pm2uO72/ovCEZ1audn/6y/sE5AAAAHVqSfMVOfwfP+022YQ/KW9UF+MP/mT8aXBZvXY9ATkAAEADWhaUb7/Dtm7s/qPjT9j7M3/rhg3Sd5SP+dj28RAAAADq0bLmK3L/4p+7f7n4jvhT/bI2Z7FmJs1q/tKsZity5awvuMOP+HT8qYkyNF/p2wa9f9ucAwAAoLKWBuXvvfdXd/yxs9zatRviMRunHXfczv3kP6a7TTZpwQ8TFYPyFe7WqTe7J3Y+zl16yURnb0gvBOk7u+MuvcRN5LXpAAAAuWtZ8xXZYovN3KlfOiT+NPj8zUeHuhNPPshdd8P/dHf+5FtuydLL3M8eudTdfud57l+vP82dcNJBbrthW7sTonlaEpBXseLWvgG57HP6pe64nV9zCztXxGMAAACQp5ZHiv90woFu6NCt4k+Dg9rLz/znE9zCe2e4b834vDto/N+5XXfb3m251RZu660/5EaO+qh/qPP8Cz7vFt1/kZtyyvh4yf60wj37hHM7j/1MSUBesKP7zNidnXvi2WguAAAA5K3lQbkC1dNOPyz+NPAd8g+fcnf+5Jvuc8eNzXT3e9NNN3Gbb7FZ/Kl97Pixj8dDAAAAyFu/tKk4+ZTxbtTogd94+eQp492s73zJbbXVh+Ixzv3ujbfck12vuHuf/qW7c9kK32lY4zStXf3ut6/GQwAAAMhbvwTluls8/cLj3JAhA/e95bpDfu43jy2+e3392++6n/1Xl/vPX61yv/7/1rm3//wXpydm1WlY4zRN82je/reP++wBzr321M/d7+IxvX7nfv7Ua84d8Nl+ewPLX9//IB4CAABAUr8E5bL3Pru7EycfFH8aWNSG/NLLJxcD8t+/ucE9+F8vuTUb3nYf2nwz9/e7fcwd/ZlPupMO2tt3R+3zd26vXXf00zSP5tUy/W2fSce5nV9b6P7lssUlgfmKW//FLXztADetH/8E6L3P/CoeAgAAQFJLX4mY9Je/vO/+r/95k3vxhdfiMQODHupUG3LRXe+HoiD7rx/0uI+P2M7tP2YXt/mmm/ppSX95/333ZNdq9+raN91mUUB/xN9/wg3dest4apNUfU/579ziyxSExx8l5Y0srfTsqlfdyI+OcNs1u+wAAACDRL8G5fLaq2vdV77wb+6Pf/xTPKa96bWHesuKHur84IMPfHOUdVFgroA865+WX/bib3xgPjwKSv/x78fk8npEAAAAtK9+jw53/vgId/V3vuQ23zz97nK7OfQfPlUMon+//o8+IFezFN0hz0rzfjhaRssqDQAAACCUyy3b/caOcv/78inFNtrtTO8bN6vXvOn7Yz62fdkmK2k07yd22sEPWxoAAACAya0dxT8e8Wk3Y+bxbR+Y686++f36wsOaOw8f6vu12ClextIAAAAATK6Nmz9//P7u21ed2tZNWXbYYdt4yLl3//wX3992yw/7fi222bLwbnNLAwAAADC5BuWiO+bX/dvp7iMfqT3Q7Q8fBM/BNnJX/4MP+vV5WgAAAAwguQflojbmP7j9bPfJPXaOx7SP3/+utw34llts7vtvvVv7m2P++Kc/+76lAQAAAJi2CMpl552Hu//7/znLnTRlXFv95c/fBUH58I9s5fuvrVvv+7X4bfwn97ffdmvfBwAAAEzbBOWituXfPP9zbs73p7pRo/vrT9tUtmzpi/GQc7vtMMz3u3+7xv9hoKw070uv/8EP7x6nAQAAAJi2CsqN/iT/D28/251z3jFu6NDC3em8/Oyh/3Lvv/+BH95xu238HwD601/+6v9SZ1aaV8to2Y9GaQAAAAChfv+LnrV695333E9+/Li7/d+XurVr+/d1gjvuuJ074eSD3JRTxrvNt9jMjwv/zP4u/s/s7+o22zT92uavUTD/RNcrrf0z+wAAABjw2j4oN++991e35Ge/cJ33PuueerK7ZW8z0RtW9v7M37qTomD8fxy+Z/GveYZ+/+YGt/SFVe79KA/6655/t9MO/j3keu2h8rXhT392v133lnvpt39wf/7LX92mUZqH7DGSu+QAAABINWCC8tCaP7zlHo4C9KeeXOlWPPtrt2HDu/GU+my55RZu/wPGuEP+YQ//FzyHDf9IPKU83TF/susV/6fzK1GTFd1N5w45AAAAyhmQQXlId6Zf+u/XXddLv3WvvPwH93LUvf7aG+7tt//k3nn7z+6dd/4clXKIfw+6dcOjoHvk6I+60WM+5rvddtvebbZZ7X/A6IMPPvB3zVevXe/777z3nttkyCZuqw9t7nbY9iNulxFD/d3xtLvtAAAAgBnwQTkAAAAw0HELFwAAAMgZQTkAAACQM4JyAAAAIGcE5QAAAEDOCMoBAACAnBGUAwAAADkjKAcAAAByRlAOAAAA5IygHAAAAMgZQTkAAACQs377M/u7fefZeCjdLkO3cD88YbQbOfzD7v+8+Ib79N9s6Ydl1bo/ubP+49du2gE7us9/cpgfBwAAAAwW/RqU77HDlr5L878O3LEYkF9w/8tuxFabFYP0qx55zc158vduq803cVcftRuBOQAAAAaVfg3K/+lTw911k3aPx/RlAbmxwPzEBS+5v9l6c/fH9953a9/5K4E5AAAABpW2aVOuJioKyN/5ywfurAN29IG3AnAF5Oqr6YoCdAXqmk8BPAAAADAYtE1QrmYq++70ER90H/OJ7fydcAXm70ZBusapjfmjL2/w8ypwX/TfBOUAAAAYHNomKF/2yga39OW3/F3xL/+42985DwPzY/79RffPP1vt5z1z/4+6Wz4/0g8DAAAAA13bBOXjd93GB9uyev17fQJzsTbmFx66s/+8sXls1gQ3YeoCV7g0wcDymJs1YYKbuoCtBwAA+so1KFe78LBtuILtSoG57pjbuLJWL3BTo+Bn1mPx58GoxjKuXjDVTYjmL+2mOuLDRq12C6ZyoQQAABqXW1Bub1pJPrSZFpiraYsF5mHzluYr3M1s+4B+lynutCOce+iRahktlOf0eSPdZQ8+6B4Musui5QEAANAecgnKLSBXc5S0t6kkA/Ov3rOyZHrLrH7ZrYoH291Bhyoqv63C3W4F5Je4h464LArCZ7iD4rHmoBlz3ZRd4g+o0y5uytzoImfulGgIAACgfv0elOsOt4JwUfvwcq85DANzvW1F0y2Q1zL21z43Wged6s4YucotWZYela9ecJt7yB3hLpuRDMcBAADQbvo9KFcw/eXP7OAD7Ut+9qr/XC0w11/yPHrMdnUH5MUHJOO22NauOnzozs9z+jx/p/yhS+J5wnYsiWWT7YiL63hsVsn0LOsuiNsnB/OUrL+PXdz4w0a6VUuWpbRnXu2WLYlKcsShfe6QV+LzGq5/wiyXzEGhfbrGF5rG9Mlrsp4SZehdvm95+xa3ep1k3raJ7VXQ2yZ8Qdo8cZql2ypeJs5HetrJfFdov19lv+qrdP290sf32aYl05P5TE43iW3ty1MY12c/rrk8AADA01/07A+7XvtMz7mLfh1/6um58j9f9eO+cGeX/7xy7bs942/5Rc8nZ/+8Z+EL6/w4o2mZvTK/p+OII3quXh5/jiy/+oieI6JxR3TM73klHheN9OPC+dKW9eLxHfNt6Vd65ndE6QUzFteRWDjzuqNxvenL8p6rS9YZpxWmE89TPb/VFNIpTTte3xEdPWEyr8zvKJTniKujpWK2vg5NSxkfJNC7fHq6ddWJ0qtUv2n1LeH29vOUKWuFOu+zTeI0S/eDuH6jrqQ8feqn737VV7l5kuPjz8m8h8tlqN/WlwcAAEhuD3raXXC9m/yLd3VXvGPenKYqI90ZFwdtf33zjywPS652Cy6f51YdcZmbW2yEvYub4p+0TLbpLtdcJMO6D5oRpC8HOTUbT78TbgrzlCvDyN2ytXR+bNYl7qGRZ7hbE22jD5pxq28iM+/2ZPpReW4N2qnHD56uWuXSx6eU4YjLStu07zJlrn/49KHbgjurmeukSv2W2darly1xq6Jyn6oMH3RotPVKmwO9+vIqd8QZZ7iRq152r8bj3GOP+GZBh5b5CeKx26N9RXVZsh8c5GbcGqUTfyqoZb+qx6suyr474rRwm0b5CPOVoX7bpzwAAAxuuQXlUktgrrboDb1xZeRhbnwYf0QBw26KKqKAq2K8sHqZK7QESURhH98tCkpWuZeL0Vpk5G7u4/FgiczrLm1OcMlD8egKCg98PtKnmUl2j7lHovWMPGx8ELyZQhOZvumPdMl4/+O+QGXGh0Gtlx7Ups+boU6q1m9aOR5zt89bFZQ7DkiLG1T1EpVnvLbzQ87i+dWKdMtt50p1uYvSCdSyX9Xl474OHrqk2qsvK9VvO5UHAIDBLdegXNIC81lH7VZ8uNMC8X97/HfuxAUv+eE8FNuZWxe3P2+WQtvf092Sw26t7bWF/i7wQ+62MPKKA6ZVL1eMxjLZxUe3+ai7TlLsMuW06FKgN7i2O96nBXeKSy5wNN0H+xasqy4LbfXTL2Dq07r9qvBmmMuOWOXmnR6nndrevDn1a1p9nAAAMFjlHpRLMjCfEQXjogdCw6Yrekd5Xo64rBC0JLumvNxk9QJ320OFdZQ2J8gi7YHPcs08aufvDOehoTpJU6gTax7zmG4BJx+E9Xd1C4G7plvwrWDd16W/GzzSHVZ6W74hLd2vIgfNiNNUc5OHLul98LLp9VvQ6vIAADBYtUVQLmFgrneTa1jjcrfLeFdo+VB6l7H1Vvs2wVnsMv4wN3LVEhe+HfGgU9UWep67vGpj3koBfH1vcalulet7Ez/LurLXSRp/J1z19JgC0pHuDN+YPBBv61UvL/BNV4rBt4J1LbfsZbeqT1OZUKHJSGpd+jvzgbr3q3JNnwptyMvaZYqbq9vgif2kVLJ++6M8AABA2iYoFwvMcwvIU5t92MNqlyRe2feYm9Ws173F6w0Dmsdmne7mZQ1A/QOViQcy4yBs1bzTU19L99is3rbGFsCfnpivkIdWvOtcTSpKX7fYZ12N1kka39QnWvclengxLbi2Xx30AGgw3Qec0XLzeu+ep4v3FdVluLPoNYF9GsPXv18VLi7mud7NrXbhl5QGyUon2Vyl0EC8UK5M9ds/5QEAAG0WlIuC8fzukB/kZlggG7bBPWiGezAaX9pe9hLnSt5s0Yj4bRZqXhCnf9tut9bUvjf1gU/l+8Fb3RkuCqqK+S50l+ghxmLQGQXwKfNdsuoMd2vKXwNtXBR837qbuy1c10PRuJJ1NV4nfcUPfEbKBdeFXx2iyLRkerBctTfaqM4T+Z5wuXMXP3hZVOqEeveraLlbzxgZLHe6e/k0vSknnm7CPESd357FN+xkrN/+KA8AAHBD9F7EeLildvvOs+6fPjXcXTdp93hMbc7r/I37ya/WuZe/9dl4DErpj7lEAdBl7d1+V3886PR5IxMBeP/Je/2Dx8DY3wAAGCja7k456nWQO1V3T8P3fCOhVW3kN0K+TflIt1v6uyEBAECN+vVO+R47bOm7erzwh3d9x53ygS3PO9XcJa+d6uxyd3HpG1oem+UmXBKF5Gfc2tQ3twAAsDHr16C8GQjKB7Y8AuPCOvUEY7LdOqrSQ5193jWuv+ha+hdZAQBAY/otKAcAAACQjjblAAAAQM4IygEAAICcEZQDAAAAOSMoBwAAAHJGUA4AAADkjKAcAAAAyBlBOQAAAJAzgnIAAAAgZwTlAAAAQM4IygEAAICcEZQDAAAAOSMoBwAAAHJGUA4AAADkjKAcAAAAyBlBOQAAAJAzgnIAAAAgZwTlAAAAQM4IygEAAICcEZQDAAAAOSMoBwAAAHJGUA4AAADkjKAcAAAAyBlBOQAAAJAzgnIAAAAgZwTlAAAAQM4IygEAAICcEZQDAAAAOSMoBwAAAHJGUA4AAADkjKAcAAAAyBlBOQAAAJAzgnIAAAAgZwTlAAAAQM4IygEAAICcEZQDAAAAOSMoBwAAAHJGUA4AAADkjKAcAAAAyBlBOQAAAJAzgnIAAAAgZ5mD8lWrVrkhQ4b06UaPHu3OOussPx0AAABA7Yb0ROLhih599FF3yCGHuFGjRrmOjo54rHN33XWXe/rpp/3wrFmz3PTp0/0wAAAAgGxqDsqPOuood99998VjCzTtc5/7nHvjjTfcokWL3KRJk+IpAAAAAKppSpvygw8+2P30pz/1w2effbbvAwAAAMimaQ96KjDfb7/93MqVK/2d85A+T5kypaQd+jXXXBNP7aV26Wqfruk2r5Z77rnn4jkKlJ6mqX/RRRf54eHDh/eZL7R27Vq/zrFjxxbT1nBnZ2c8Ry9Nmzt3rk8vzLeGk23nlabWbcOWd/WVRtLRRx/tO6Vt86rMxvIZ1oHyuWDBgniOAo3TejV/kpbXcuF2yLoNquVP9ZWsw3A9AAAAqF1T375y0kkn+f7y5ct9XxRMqtmL2p2rzbm6YcOGuRkzZviAOqSgXvMfeeSRfr5p06a5O+64wx122GGpwed5553nbr75Zjdz5kwfcFbyta99za9TbeKVtpbRBcQxxxyTGlR+//vfd/vss4978803/fxqtqO8KG/JvKjZjoLTq6++2k2ePNmnvW7dOnfmmWemBubd3d2+TAp6rT5E6SogVj5tmtJS+qecckpJcKy61vi77747HtPrlltu8WnqQklq2QZSLn8KyFVfWq+lI+H2BgAAQB3UpjyLpUuXqu15TxScxmP6ioI0P4/6smbNmp4ooOuJgm0/HIqCVz9vFBjHY3p65syZEw/1ioJSP9+iRYviMb15UbdixYp4bGXz58/vkwelqTS0jpClrWVClucwn1bmZBmVL41X+UOqP41XWkmWVnQxEo8pULrRxYSfZuVVvdl6Q7ZeS6PWbVApf0pT05LpAAAAoDEtfU/5E088UbyL/MILL/g70tZZk48XX3zR92Xq1KnxUK+JEyf6/vPPP+/7Id1F3nvvveNPlelO+ogRI+JPBfZA6jPPPOP7Id0ZT959//rXv+77S5Ys8f3QddddV5K+8qU0VP60ZjU33nhjPNRLd7jl29/+tu8bpXv++ef74fvvv9/3R44c6dPX3e+wSY3dmbe6rHUbmLT8WV1/97vf9X0AAAA0R0uC8qFDh/q+BdJqYqLmE2GncbJ69WrfN2pqoSYV1rZZTVTKsfVkpUBU7agtbXW12GOPPXxfTVqy2HfffX1/w4YNvh9KXiCImtOoCU/atD333NP3f/Ob3/i+nHbaab4fNmFR/amJjgXQ9WwDScvDiSee6C8ErrzySh/QazvxfnoAAIDGNTUo1zvL5cADD/R9o7bhS5cuTe0U6InaU+turtpOK+jTHWF19g70Rqk9tgJRtaO2tO2u80A1YcIE397b7rCrzbfuittd9VCWbVCNAnW9DlOvvdSvCNpOugDQhQAAAADq17SgXE00FECHd2l33XVX39999939Q4dpnd2R1d1eLa87sStWrFBbd98paGyU8qa7wsqbAkpLW10t1BRE1HQkiwceeMD3d9ppJ9+vRgG26iDtodZf/vKXvh8211HdKTjWHXaV8d577/XjFaybWrZBVmr2c9NNN/ntpDyHD6ACAACgdk0JyhUQnnDCCX74hhtu8H3Zf//9fV9vJUkLNMM3k6xfv9739Z7zMPBsxps9rPnI5MmTS/6wkZqzlKO76Mk7wFa2Qw891PdDamYTllFp20VK1iDe2rDPmzfP943Svfbaa/1wGHDLscce6/t33nmnz6/KGK6vlm1QK20nlQ8AAACNafjP7D/88MPFZiDz58/v83Ck2nCryYjuqKoJhdqBKwDX6wX12kB1YumH86k5jO4C2yv47E/427zhuEoUjI4ZM8ano7R11/jZZ5/1edD6FLiGf6VU79/WeM2vO/eHH354sZxq8/3UU0/Fc5aWT5S+6M68lk/+hVO1Y1c6adWu9tlKP1yv6srSSqtf0asLVU/SyDaQSvmzNvjKl1id6IHbK664wo8Te4A0TBcAAAAVKCjPQq/N0+zJTq/a0ysFNb0cvXowCjKLy0SBvX+9XnIZzaf0bD69ls/WG76GcGn8SsS0VyiWo1cF2isA1Wk9Skf5Sr7+T9M1XvlRXvU5Cmh9OZOvA7TXGGpelSmZfpLSVVrlqLxKR/NYWspfWlrG8lAp3azboFL+tB6rD0tD45JsOgAAALLJfKd8Y6I75VFwWnL3vBy7C62272qfvbHT3f4oWPfNaHgAFAAAIJuWvqccGx9rD3/hhRf6PgAAAKojKEfTqO2+2r/X8kedAAAAQFBe1nbbbRcPZbPNNtvEQxsv+yNG3/jGN3wfAAAA2dCmHAAAAMgZd8oBAACAnBGUAwAAADkjKAcAAAByRlAOAAAA5IygHAAAAMgZQTkAAACQM4JyAAAAIGcE5QAAAEDOCMoBAACAnBGUAwAAADkjKAcAAAByRlAOAAAA5IygHAAAAMgZQTkAAACQM4JyAAAAIGcE5QAAAEDOCMoBAACAnBGUAwAAADkjKAcAAAByRlAOAAAA5IygHAAAAMgZQTkAAACQM4JyAAAAIGcE5QAAAEDOCMoBAACAnBGUAwAAADkjKAcAAAByRlAOAAAA5IygHAAAAMgZQTkAAACQM4JyAAAAIGcE5QAAAEDOCMoBAACAnBGUAwAAADkjKAcAAAByRlAOAAAA5IygHAAAAMgZQfkAMGTIEDdlypT4E5qBOgVa65prrvHH2XPPPRePQX/jPAcMLJmC8qOPPtof3NU6nYTRGm+++WY8NDjMnTvX7zPq52Ww1Snax/Dhw30H5zZs2BAPIQ/9cZ5LxgLlukcffdTPf9ZZZ6VOV5c8blatWuXn13ibZ+zYscXvDrv4q9YpjilH6wjTD5fp7OyM5+qlCx1Nz3rBqfQtzbT0zEUXXeTnUV7Kpa1plcpi0vIY5iPsRo8e7etY0xth6yxXRm03Tdd6lC8Na1wapaHpypeo3OrS8qhxmqZyiMUXqs80Vs8LFiyIx7SPTEH5aaed5mbNmlXsjjrqKD9+2rRpJePHjRvnxzebbeisbGNzkQD0Pzsh2hdwNRyvQH3a5dgJ4wB1o0aNSh2/0047+fEWWCVjCHVXXXWVnyZr1651++23n7v55pt9HGDzjBgxwt1zzz1+HsUd4fJKUxSnhOMVx5Tz+uuvuzfeeMPnO0znySefdMccc0yfm0d2oZP1gvPuu++Oh5z74Q9/GA/19cwzz/i+8jJjxgw/nKRpWaTlUeWUsJzqhg0b5utY4xvZly688ELf/+IXv+i3XUh1+PTTT7uZM2e6kSNHur333ttNnjzZj0uuU8ueffbZPl/f+ta3/DjtFyq7BekhpalpN9xwg/984okn+rJceeWVfb6HdMxovPYr7VNtp6cO0Ubs0aJLly6Nx7RWdHD59WWlfGl+5XMwUFlUB2ge6rR1aj0/DLbjFQX9/T2xMap27OR1nqv2nW3Tq+0bc+bMqVi+NPWcT2yZZF2tWLHCj1e3cuXKeGz2/JsoQPRdFAj2SStk6VZK36ZXk5ZGuXKKpkVBsJ++aNGieGztogDZpxHW/5o1a3za6jRsVA9p4+3ckdyGVn9ZyqQypI1Pq5d2QptyAADQdpYsWeL7rfoVvhq7mysvvvii79dKd2aj4NOdf/757pvf/KYf9+CDD/p+ORdffLHvV7q732wHH3yw++lPf+qHdZe6Xt/4xjf8HW7d6bdfRL773e/6O9m6261fOYzumF9wwQV+2j//8z/7cVrm6quv9ne6zzjjDD/OXHfddb4f1st5553n+1EA7/tm0qRJ/teS+++/v9hMRU1i9FnbVOVtRy0LylWxYTsw9fU5+ZOGPqfNJ6pIjVMlioZtnnLUpuiQQw7xw9opbJnw5yetUz+XaF6brp8xdPAkKQ9hm3otk/bzjuZRp3Jbcxt1VmZbp5VT86atrxLNb3mpVJ9aj7XdUqfhtDZeGpecr1qTA03XvOqntX+z7V6tbi2d5M+CWfKUdd8SLRumV26+crKWJ021uhJNC/eXcvuXqK4sH0pH8yktfQ7r0cYp3SQto2nJ/DfjeFUaGmc/u+o41Oe09RmVp9rxKjoOw+1o9ZRlW1qZNa8dP1o+VG07aFmN1/JpLF2jz6qbpCzbW+VMW1b1rGWSx7LVe7n2k8bWndx2yToM60tp2vzKV9p5JDmfypQ2XyW1nGdVBq0z3A/TzhP6rGna98LzipZRfpPlVtrqNL/Wr3lt3zZZ9kM71pP5EctTWLZazmchrTvLsSMqk9VvpfTrzUurfPazn/X9733ve76fB8vD6tWrfb9Wtj0mTJjgO/n+97/v++UoYFTzGQXz2uf6i9arZh1ab7j/qgzaH9K+U5IUdFsTJO072qesucjUqVP9+JACbwXgaj6jdX7nO98pNkUJA3hR/hRQK386hlQ31iRGF1BJFqjbPmxNYpSfthXfMa+J/bRQ7va/fvKxnyT0U4bmjyrSL6OfH0L2c0S0A/r51Ndyop82NE4/+2geDavTT1rlzJ8/36eh+fUzhS2jPIl+Iim3TnVap7GfzjS/pRPmJaR1aZrSsPWqb/lQGlYflj99Dn+yKcfmtbSUdliGkNWz+ppP67Nlw+1lP+0oz5rP0lS/EvupKFkeq1+NUxfWrebXuLCslk64vix5qmXfsnXYvOqUtm1D1WU1tq5q5UlTra60r2p6srwap3lDmhbOq3SUppVF44ytN618lo7mMc06XkXjbL+3edSVq6tqx6vY9LR6Ur/adtD8Nq+lofKZrNvByhXmTXTO0PgwTZs3lHU9Vt5wG4lt6+S+YeepSj85K8+2btvGlkf1Q5qm8cqb7RPqNE5deI6UMB0ta/uO5TdZjqR6z7Pqa7rVl7pw24THn/q2P1ra4faSMG0rS9p2sfWqs7TVt/3Q1ptMXywNy6f6Wp/Vs9K0+lOalWQ5djRNaYfzhPURaiQvSVqXlivHplfbN7SvhfmvNr9Y/Sv/WdkyWkeS1UG47qz5F+U/3BeS+0AorDc7r2h/C89xGpeWz6S0PFYqp1G9aZ6w/uwYTduny7H9zI63SnUVfverXyl/tk+EXaXvADt3Wdq17Bd5aElQrgpVRSV3OtuwOpmI7XThiS+N7VxZ2Y6XVvmWd8uDUV41PjxRKZ1kGbTxNV/yJGV5TJ7obEfQ/OGOYwdmpS9So/nUhXlWWpZ2mK7mSe6gtsOnfcEk563G6lZd2klF2zjJDoqwrGnbKEuesu5bYtsk3E+Vtp1kNb2arOVJU6mulA+VI7lfiOXPgh+bN3nyUZp24gvr0dabVr60YzdrnWY9XtPWUYnlNyyDsWmV6iltG4UsPzpekmlY3WbZDqoHfU6Wv9K+Z2pZjx2vYX1Y3StdpRGy5ZPphrR82v5q+0+4rNVXMq9WzrD85fY1rUvl1bRq+4Gmpx0floeQ1WvyPGt5U10Yy1ty31badu4Mx1vaYRqm1v0w7dwsyoumGa0zmT9J26fSWL7Sjh3RtGQ6YfnD/DWal5DVZTnhdlTewy5ZZ8qP5Vedlq20T1WrkzS2jNIOad0aH24zsfxXyofYsRzWnY1LO48m682+a8Ky6HMyn2nS8liunCGtK7nOeti61CWP1zSWX3V2LizH8qiu2n6p/cnORcnt2I6a3nxFPxGouUlUeP/Ur36OsM784he/8H21J4oqy91xxx1lf95utrvuusv3P/7xj5fkzZ5Qfuqpp3xf9FNJ8icR/ZwS7Tz+J5M0N910UzxUcOSRR/q+2kKFP8Uce+yxvv/888/7fjVaZ/jTkdKKvgz88AsvvOD7onmSP/mobZXYk91i5VJbr3pEJ4vUn4vSfp6aOHGi71cra7U81bJv2bzRl2hJ2zHVzY033hh/qq6R8pi0unriiSf8T3T6KVzbLyzL8OGFpgvWhtHmjU5sJdtWaV566aXxp/q0+/F6++23+77Kmdyv7Ul/ewtDNWk/h9ayHfTTs5U/dO211/rxlX7arWU9Ol6Vnp2rRG+B0Dj9/Kpzj34SNg888IA/FyTLFtK2s/NA6KSTTvL98BxikucsvdFAwvPI4sWLfT/ZBlXr0v6aRTPOs3acqi6S1GY1TF9pd3R0+OHHH3/c90Np54da90NLP2w7rJ/atQ+obbHUcuw1Ist3R3/lJUlNFtT0JuxeffXVeGqBtl13d7eLgi+fP+VTzXbSmjc1SutRuurU5GGfffbx42+77Tbfr5XetKLj1pqtiI4NlSN5Hklj7bPVxlrbaCAJt2MYV5WjujfV2u//5je/iYeq75fr16/3x52sW7eu5NzZjpoelNtBrpOpDpywO/PMM/206CrI90UnV1WUdn61eWt1+yk7ySfzpk7CvIk2oA5QndSszaG+ILPafffd46FS2267bTxUv6FDh8ZDpXQiVZ4tv+qS9AWrk7XaVikoUDvIWnbWcusWbUOlZ+u2BzGqqZanWvYtmzf5BSpp4yqptzwmra4soNeXUrIsGifWhtHmTUun0f2o3Y9X2/4HHHCA74cs0ApP5pWk1VUt20H7jc4Dqg8LVnRxos+VAnKpZT2i9LRN7Iv4kUce8Rf4Vg92DtL69YVz3HHH+c+VKC21DVWwYfvyLbfcEk+tLu24sQA9rW4rnSOSGj3Pii7A7cu3mr322sv39YWdlFbOWvdDu4AJg7mFCxf6vgVotR57zZTcNnnlZenSpbotXNIlL9CM9g3V8Zw5c/xnBfDhRUMzqIx2caBzmy4sV6xYUXJjJysdbwq89V02b968YrCvToG21lXt2Qvti8kHIftLLcdvksqu84zKqQtA7VdpzzoY1Ynqwy7kdZFf7iJE21znTMUKurhRvFDpJpHyIUpb9aibZO2sZQ966gSpAy6tCxvZ25ePDjQdcKeccoq/m1RugzRLWr7U2dPeooNSG10HqA4uXaGry3riz4N2QJ1IlWfLr7okHez33XefW7Rokd8G2iYqayNBlraZtp22odKzdWv7ZpE1T1n3rUY1Wp4sdKJIK4c6+2LvD+1+vLZa1u1w6qmn+r7dOb3zzjt9P+0XlTRZ12O/pOkOu+gO8GGHHeaPEX0ZKUgXO7bDO3Fp9KU1ZswYH2DpC8325VYFfbUYiOfZavTLhLaTyqGAXseHyqYARdNC/XU+y6Kd8lKOjjULrJYvX+77zaJtZhcHuvmgmxDlLhKqsXeTh4G+dfYdcu+99/p+JdOnT/fHh47b8CZVq9gvdAceeKDv1yN824p+eVJwrl+U0r4nVCZ728q3v/1t/3Cm6kwXMmnCt63YRa/qNI0uenQM6rjTttT21XHY7Iu5Zmp6UG5/HEBfHrq6TOuSJyV91oGmL3l9aWmHDV+230za8JKWL3XhAWhXWPrZbM2aNcWDVRu2HemLVweuyqjA1vKrrhz9lKadVXcDdOBYmeuhbaZtp/pRerZundBrUS5Ptexbe+yxh++nnQSyBpDNKk+aXXfd1ff1S0paOdSpnFLprt5bb70VD/XaZptt4qHq2v143W677XzfgtOQ3R1RIFGvWraD6LOOL7tQ1Alen6t9cde6Hmtqoi9tfWnpS8q+JA8//PBiM42HH364atMVsT+8oWBGadm+rC+2Ruy7776+n7Yfpu2vaZpxntUxrf3Qzu/VLFu2zPdtu1RTz35or21TExZrxhL+olHPsdcq7ZSXLBq5i9tf7A0rtj8nOzuPZPk+uvzyy31fbyZpJe3LdhzVezGi85Uu4JSGvie0T9nd/rSmqfa2FZVR8+ptLPreV6CevAhRfSl/+t5R/rRf6jyhwDvtVwdrVmcXlPaqyVp/7e5PTQ/KdeBqY6iS0q5GVHGVrvbsDlHIToh28qvGgpJnn33W90PWxls/lyQp/TDP2lF0otXdQfvSU94VjLQjaxevL2n7UpcsV4XawbN+oZVjX8I6EMIDut67Gck81bJvaXtpXh3A4X6jE6B+Gs+i2eUJ7b///r5frq1g+FPfJz/5Sd9XABjOq3LpL6clWV718384v+pH6wu14ni1L8xf/vKXvl9NpePVghj7S20he+1WlqYb5dSyHYyOL50b7CdXayNcSb3rUfBt7cltu+pLSOvV9tJ2y1J+++t+aqNqwZXykVbntfj0pz/t+8m/Uqgvz6x3Vus5zyZvHthdNTu/h1TnyXOANRmy7VJNPfth+Po7NV3RNlQZTaPHnlQ6dmrRjLy0gpp+pOVHF6OS1/vLq1Fd6btHx3A5dh6p9s5y0X6j495uurWCjpETTjjBD6ft51nZsRk23bLXHuqcEB6L2rYqk8pmx4bOAeFNBKPjVmnrONIddWM3FpJNXuz8rOl2zlMQr3rXtgnPucqTXvmYNTZoqeiKrWZRIf2TrEvLPHms8ZquLrqi8fOri068ftyK+OluzRdtqOI80QbwT8mqiyrTzyP29LeW13yavxqloWWUpjo98Szhk7jRjlDMW7Sh/Dity2h6OJ/Wa/nT+JDNm6TlND5ZV1ZHml6N5SEpmXZYNqtTK5fGh2lo2MqlzvKvuqqkUr5tmtaldDSPtpnlKVwmLZ0sebLl1FXat8Secrf8qNOwzav0K6mlPGkq1ZVofDJ99XVMaFxI4zWvpmk+lV2frSzJddj0cvMrbyZrnWq+LMer5tdyGm/rDqen0bxaRmmqs+NVLB9WFnUatvxWo/k1b1jmkE1XHrRufVZf69C4JJVF81uXVjbbd0O1rkdvFdD8SkvHcUjz2zp03Fdj67Y6DNer8WHd2Lxp9WX5Cdn20Xgta/lK29fS2Py2vLap8mV5C9m8mmZl0fw2LtwWWq+NV9/2Wy2nz6qDkKVdTj37oeWt3DyWR5tu6SaPvUqsfCqPuvDY0XiVK0nr0LRw2zQjL6ZaXdr0cD1hZ2zd6tu0anVu5QjTqcaWSaurNJXyr7S0HTS90ptB7DwZHtuV6i3cPlnyaWlpOWNphPuwOptXXVqe7VyUPA8l2XduWv7C85mx7Rvm0dh2tmlWp8pvkrZDOE3nAR0X6pLnRzt/h9PCus1bXTlQwZX5tIo02uG0Ae2Eob4+h8uocsKdQZ3mSR78qjirdJunGu0ctlG17nC9lp5NV6d8JHdGm8/KoPkVtKv8GhfS8slxYnWVLJPtBGk7WJLmSytzWtpW7xqvTju91qX8hWlo2bD8Gs6SF8t3ePESUr3bgaZO67SDIFwmLZ2secqyb5nkfqADW9vVlqkma3nSVKsrUfrhMaC8ap/TOpJUF1Zmzaf91daRrCeVUWW1+VUGrUt50efk/pilTrMer5LMq/JTSXI7hevVssl9Q+VJ+/JIo2W1TFo+TS3bQWzecvuQpqscSbWsx/ZTzZfch7RejVdaWYV1qHQtgNPnsG4q1ZfGJ8usfKoMmqbOzjnl9rUkWz7cX7Ss7UMhqzulGdaj8pSsw/DYsLTC9JPKbTNTz35oeVBXrh40Xvm3/Kmvz+ExUEmlY0fjkttLym3jRvNibNuUE+4vaZ2xOg/PwVnrXMtlpXJrmbS6SlMp/1qv7UvKfyVWz0brDz8n2Xqz5NPSCrexjhGNS3aqU50Pyp3v7Fiutl7bD8ulY9tRedI21LDKlMbOTVqn5Vvpp9F01aU6sXoqt59YgG/nAdv+2m55G6L/oswAGID0858e7I2+CPwDQcBgpp+X1cQiy9cWxwaAgaZlb18BAAAAkA1BOQAAAJAzgnJgEBgIrwgDmmHYsGHxUDYcGwAGCtqUAwAAADnjTjkAAACQM4JyAAAAIGcE5QAAAEDOCMoBAACAnBGUAwAAADkjKAcAAAByRlAOAAAA5IygHAAAAMgZQTkAAACQM4JyAAAAIGcE5QAAAEDOCMoBAACAnBGUAwAAADkjKAcAAAByRlAOAAAA5IygHAAAAMgZQTkAAACQM4JyAAAAIGcE5QAAAEDOCMoBAACAnBGUAwAAADkjKAcAAAByRlAOAAAA5IygHAAAAMgZQTkAAACQM4JyAAAAIGcE5QAAAEDOCMoBAACAnBGUAwAAADkjKAcAAAByRlAOAAAA5IygHAAAAMgZQTkAAACQM4JyAAAAIGcE5QAAAEDOCMoBAACAnBGUAwAAADlrWVB+9NFHu+HDh8efMNgMGTLETZkyJf7UPjbG/a5dtwUAAMguc1C+atUqH+woAAg7BUGdnZ3xXKXeeOONeAiD0ZtvvhkPtcbcuXP9PqZ+LbLud/WmX6trrrmmeLw899xz8dheOrbOOuuskuNLQfajjz4az1Fdq7cFAABorcxB+euvv+6DnVGjRrlZs2b5btq0ae7JJ590xxxzTMsDG8AoeNXF4ECggHvGjBlu2LBh/vOGDRt836xdu9btt99+7uabb/aBuB1XDzzwgDvkkENqCswBAMDAVXPzldGjR7vp06f77qabbnJLlizx488880wfgADNMnXqVNfT0+P7oWb9AlMu/WbSHXAF5Aq008ybN8+XZ86cOf54suPqRz/6kZ/+ve99z/cBAMDg1nCb8r333ttNnjzZD7/44ou+D8D5u9z333+/D7KHDh0ajy317LPP+v6ee+7p++aAAw7wfZqlAACwcWjKg56f/exnfX/16tW+X4kCFf1Mb21ndeddbW6TrJ2tpoftbNPa5Gr55HzJu/ZZ15tGTSXUad22HuUttGDBAjd27Nhi+hpOa2uvccn5wiYKGtZ4rSucV002LrroIt/cISlZNs2r/KXVgaarr+ZGVpZKdaF5w/wq3bQ8JGkeza98Jdl6k+moDjXe6s3ya02jtG59FgW7GlaXtg6lbfPbPMl9J5m+0TjVR1h2q9MsZTennXaab5qSlj9z2GGH+f7tt9/u++buu+/2/eOPP973s1D5tJ9Wyq/Kpekab/NqexilEe5LmkbTNAAA+kFPRkuXLu3R7EcddVQ8ptfkyZP9NM1jNF8y+fnz5/txo0aN6pk1a5bvoqDFj5s5c2Y8V8GwYcN8N23aND+f+ppP49asWRPP1eOX03itT/Pps9IP81LLetMobS2rdYfrMZa3ZB40btGiRfFcPX44LR/qG6tny5+V39JTXYesbMqb1qt5bXto3IoVK+I5y6et+fRZaYVsfkvbymV5UXkrsflCK1eu9OPUhXUjlm/bvrZ+qx991rDGhXUYpqM8abrybPNYuvocSqZvNM7qyLZpWGdZzJkzx8+vdYjSCD8bldXSVj5VPzZv1nVpXtuG1fJraWt6WD+idSsd2942rdp2BgAAjWs4KFfQp/HJgMeCI6PgQ1/2CgbCoFosaFJQYBTUJClQ0HxhEKb1Ks1yal1vGiuLBS8hq5dk8KN1KW9hvWgezZvMR8jSU57DgNrS0zQbb2VLzisWFIZ5Lpe2bcNkPVq5w0BS67R6qxas2fYKl1fgb9tD00M23lh+FRyGKq3b8pzcHpbncN+plL668CIlrP9K209su4R1b8FwWBdG81tdWZesm0psmSz5tXxoWrIcdoGXvFgCAACtV3Pzle7ubv8TuDr9PL7PPvv48bfddpvvl/PEE0/4B9rUHOCFF17wTQOs00/tErZJT3v4buLEib7//PPP+75EQZx7+umny76Wsdb1VnLjjTfGQ70WL17s+2pbH6atdUWBmYsC/mITAs0j3/3ud32/kgsuuKA4v4wYMcJ1dHT44ccff9z3H3zwQV+2KAAtmVdUf1r/HXfcEY/plUxbw1aPRnlWExGNP/jgg+OxhXyk1UOak08+2fetjuSRRx5xRx55pO/CvKnZhMry1a9+NR7TGLXjDn35y1/2/XDfqSQK7kuanajcUZDth7VtK9H2VVmuvPLKeExlSk91oe1l69Cy5ZoUpak1vzfccIOfJ7THHnv4vqbV0kwHAAA0ruagXEGmXvGmTm2AFRCuWLGiJHBLY8GQXv2mV72FncZJsk260lc7amvTfd5558VTel144YX+NY16LaO1fw0DinrWW04yiJFnnnnG9/X2mWT6FuS++uqrvn/iiSf64EkBly4IVLZa3liz1157+f769et9/5VXXvH98ePH+37S/vvv7/tZ1pEsmwVyaWVOG5dGwb62jV7vZzSsdtTKs/Yly5tdaEyYMMH3m23bbbeNh+pX7mHNkC4utH1nzZrlRo4cGY8tTxeT2lcUkHd1dfl9XvWi/UTHmPaRelXKb1p9aHvNnDnTX4xtv/32/qJbF5gAAKD1ag7KFSz0FJq9uHXr1vk7ksm7tJUoiF+6dGlqp6BVFFTrzvYpp5ziAxwFCerCO7lG69bd8Pnz5/ugXMHxmDFj+jzUl2W9jdAr7dLSVmf1o2D2vvvuc4sWLfJ3NVU2Ba0KxAYr3a3VdtM2VQCugPPAAw90kyZN8tP1nnu55557/F35LIFsO7vqqqt8XxdO9ouSuocfftiP1wOd+mwXjl/84hd9QK79wi52VAf6rH1D+0gtF26NuuKKK/xFtoJz7Ze6YFBwDgAAWqspb1/JYtddd/X93Xff3d9VT+ssKNGbJxTI6QJAAYJdBCjATaPlFOQqkFFwrqYDFhzVst56WBCpV9qlpa0uSQGpLmZUNgVkWYOeZcuW+b6Vye6E2vgkBbxKv55A15oypDVjSBtXjjU5UlMby49dpGj7qjmL6KKrWU1X2oGCaftFSZ3KJ/p1Rp/164nqUfuqftFI2wftrSj6w139SdtHwbnu3OtCSXlOXuQCAIDm6reg3JpSXH311alBXfjaNWuecfbZZ5fchV++fHk8VF6y+UMt663HoYce6vuXX36574e0vkp3wVU23Q1No/yGgZDSsuY2ViYrq8Yny6ZyKeAL2xnXQkGi8qaLo2Q+1JQoK12UKBBX8G3tyY1e96f6secBsjZdUXp2h73dqDx2ERl2as4iurDUZ217C8RVluTdcNWznt8Qu0Dqb8pfuL1E+4JelVjLPgAAAKrrt6Bcd2sVmChQVPMStZXVz/jq646g2oabcePG+b5+2rf51JxFgWqS2mYr8LRmAvZHV+zBvlrWWw+tW3d8dSdU6Vk+dPdb61u4cGE8Z+/7zm0eDSvoVdOaNHqIVuloXpVLZVCzArvzrb4+J8umdNWMR3c5v/3tb/t566EH/kRtwJW2Oq2nVqojtSW39uRGzViUd62nlqYrChS1XLjdByrbfiq/bWvVs7a3mvpoeiO/5NRC69ZxZvuR8qM7/sqbXRxv2LDB9+3OPwAAaJKejOy1eeFr3iqJAlX/WrgkvW5N05SWulGjRvnX10UBSDxHgeaLgoHifFqv5tFw+LpEjdd6bD4tk/ZKt6zrTVOuLCG9ai7Mr4Y1Lvk6Oq03zIPGhZYGr+lTZ2XTvGmviRS9yi5ct6WbfOWdpZ2WTqXtZXnW9ChI9OlqOOu+YOtVp/0oZOVL1oOUy6/SCLdlOL1cOdLSKpe+xqWVTXnUtGQZsrBltc4kbb+wPOr0WeOz0PxZ81upDMljTvWoYyTcj7Scpil/AACgeYbov+hLFm1Cb7vQw3VR8OSmT58ejwUAAMBg1m/NVwAAAACkIygHAAAAckZQ3qay/KEaAAAADA60KQcAAAByxp1yAAAAIGcE5QAAAEDOCMoBAACAnBGUAwAAADkjKAcAAAByRlAOAAAA5IygHAAAAMgZQTkAAACQM4JyAAAAIGcE5QAAAEDOCMoBAACAnBGUAwAAADkjKAcAAAByRlAOAAAA5IygHAAAAMgZQTkAAACQM4JyAAAAIGcE5QAAAEDOCMoBAACAnBGUAwAAADkjKAcAAAByRlAOAAAA5IygHAAAAMgZQTkAAACQM4JyAAAAIGcE5QAAAEDOCMoBAACAnBGUAwAAADkjKAcAAAByRlAOAAAA5IygHAAAAMgZQTkAAACQM4JyAAAAIGcE5QAAAEDOCMoBAACAnBGUAwAAADlrWVB+zTXXuCFDhrjnnnsuHgMAAAAgTV1B+dy5c93YsWN90K1u9OjR7qyzznKPPvpoPEevDRs2xEMAAAAA0tQUlK9du9YH42eeeaZ744033KxZs3x35JFHugULFrhDDjkknhMAAABAVjUF5V/4whfc008/7aZNm+a6u7vd9OnTfXfTTTe5devWufnz58dzAgAAAMgqc1Cupin333+/GzVqlA/C00yZMiUeAgAAAJBV5qD89ttv9/3LL7/c92uhhz6HDx/u25+r+UtnZ2c8pZSawIRt1Zsxr6Zp/Zrf8qBho2lqE2/p6MJi1apV8VQAAACg9TIH5U899ZTv77HHHr6f1ec+9zl39dVX+yYvM2fO9M1fjjnmmD6Brx4UPeWUU9yIESN8O3XNq3brmjcZbNcyr9x1111+fgXcmtdcdNFFbsaMGT4ot3SUv9dffz2eAwAAAGi9IT2ReLgi3UWWjLP7O9AKePfbbz933333+QBa9OYWPSiqAPiKK67w49Q0Rg+JKnAPm8bowdIDDjjAD6sNu9Qyr1i+58yZ46ZOneqHjYLxYcOGFS84AAAAgDzU9KBnPa677rpiQC4nnnii7z/zzDO+L4sXL/b9vffe2wfd1r3wwgs+aF65cqUPuqWWeY0uDJIBuWi87oyXayIDAAAA9IfMQbke8JRG21uHAbqxAF130HUXPOwUNMurr77q+7XMa9LWKRdeeKEvl5q96K657uInA3oAAACg1TIH5bqrLE8++aTvt4KamCxdujS1053xUC3zlqP5nnjiCf8qRwXlCvTHjBnDXyEFAABAv8oclB933HG+f9ttt/l+M40cOdL399xzT3fwwQendqaWebPQXXQ9AKp27wrO9cDoVVddFU8FAAAAWi9zUK7AVU099K5yPcSZJnzVYC0OPfRQ30973aKak4Tp1jJvrSZMmBAPAQAAAP2npgc9f/zjH/uHKe01ggrO1ekVhfqs1w7WQwH/UUcd5QP+ZLpqTrJw4cJ4ztrmrUbvLVd6loa9veXLX/6y74vamesNLuoDAAAArVBTUK422F1dXcV3fSs4V/fAAw+4I4880rfnTtpmm23ioVLbbbddPFSg5iN6V7gF/er0qsILLrjA3XjjjfFcBbXMK8l1GeVZebc0lN6iRYvcpEmT4jmcW79+fUkfAAAAaLbM7ynfWOkO/M033+xWrFiR+QFSAAAAoBYE5RWojfr222/vJk+e3FBbdQAAAKCSmpqvbGzmzZvnm7RceeWV8RgAAACg+bhTXoEeBFU79enTp8djAAAAgOYjKAcAAAByRvMVAAAAIGcE5QAAAEDOCMoBAACAnBGUAwAAADkjKAcAAAByRlAOAAAA5IygHAAAAMgZQTkAAACQM4JyAAAAIGcE5S1y9NFH+z/TP5DVUobnnnvOjR071g0ZMsQv09nZGU8BAABANXUH5aNHj/YB2EUXXRSPQdIbb7wRD6W75pprfB0uWLAgHlPKpqufRoFwq7dBtTKYww47zK1cudLNnDnTTZs2zb311lvxFAAAAFRTV1D+6KOP+gBMbr75Zt9H7fbaay/ff+SRR3w/6a677irpJ91///2+/+lPf9r386L9QcG7gvErrrjCd1OmTImnAgAAoJq6gvLbb7/d9ydPnuyDsXJ3elHZpEmTfD+t/tauXeuefvppP6z+qlWr/HDo4Ycf9v0JEyb4fl5effVV3x86dKjvAwAAoDZ1BeUKIhWQX3nllf7zwoULfR+1swsbNUUJPfHEE75/1FFH+f6TTz7p+yHdKd9vv/3ciBEj4jH5eOWVV+IhAAAA1KPmoFwBuYLI4447zo0cOdIHhXfccYe/s5ukttD2oKCGrR26+nPnzvXjQ5qm8QpQ1fxBn9VpOHmnWE0mNE19tanWsNYVBreaFqaj6WeddVZJWnogUdPS2m2rTFpGDzwalV+fLU2VpVyb7yzUFlsef/xx3zfLli3z/Ysvvtj3k01c7EHKk046yfdDyqM9dBnmMbmNstRhkupP81mZNTxjxgw/rL6tL5QlP7YdkvuFtpXGa/kky0vavgcAADCg9NRo8uTJPcOGDYs/9fTMnz+/R8nMmTMnHtNr1qxZfloUuPtlZs6c6TsNpy1j86p/1FFH+eXV1+dRo0b1rFmzJp6zp2fp0qV90p42bVrPihUr/HTLl01TWsq7jbP5lKY+q0tKlk19W6fSU6d8aZyGQ5bvalauXOnn0/whrUOdaB3J/KlMWs7KYVQHGq9lLI9Wp+rXUofJMigtfdY8RuNsPvX1OdyuWfNTrh5sG6gL8y7Ks9IAAAAY6GoKyhUUKTgKgzIblxYcWRAXBl+ioE/jk4GmxqlTIBayYDoM9iygVJcMTLUupa0uOc0Ca6VpLHBctGhRPKbA1quAUbTOtHVpnmT5kwFtJRbYG0tT9SeWv3DdWl+y/sIgO6xvqbUOJSyDBcfhtje2nS2/ptb8aD5bn9H6LB/h9lF+NU4XEgAAAANdTc1X7r77bt8/9dRTfV/UnjkKnMo+jCjXXXddSbvnvffe27eVTmtLrfHJN3d8/etf9/0lS5b4figKynx6oQcffLD4NpDktKlTp7oomPVNboyV59577/V9UVk0TxQ8+mY6cvDBB/dJT+VSnu2hzHpoHaJmJKL8y7hx43z/2GOP9X1724qaa2h9yXqyB3AvvfTSPu3ML7zwQt+/5557fD+UVochNT855ZRTfH3edNNN8djqas3PV7/6Vd8P33H+wAMPuOOPP943kwq3jzX3Ofnkk30fAABgIKspKP/+97/v+8uXL/dtgq1bt26dHz9v3jzfz2Lffff1/Q0bNvh+JXvssYfvv/nmm74fSnvjhz14OH78eN9P2n///X3fLiIUbI8aNcoHn9Y+2QJjtZ0PaRmVWQGx2parS3sIsxaWz8WLF/u+tR9XvuSAAw7wfXvbiuXt0EMP9X1j5bH5QxZ0d3d3+36o2ltT1HZbdEFTi1rzY2+Rsfb0Wl6v3jzwwAPdkUce6QN0ows0bbNKFxMAAAADReagXHe07W6wHugLO7vrHN59Hmg6Ojr83XULeHUBojvq4d1oBe0KBK3MunOtTss1wl6NaEGn+rr7bnSXWXeKtS5dNFjQ3l+vQvzRj37k+7qT3cqHKu3BYasHXexoGyjwnjhxog/QLdC3XzEAAAAGg8xB+Z133un7S5cuVaPfPp2aNihosiYY1VjgtdNOO/l+JfZ6QGtGUo3d+bU7rkkW7IXpnXjiib6v1zsq8EtrHmJ3jOfPn+/WrFlTLHsYQNdLAabWqYsf1ePhhx8eTymwt6yoLlR3Cl6TTUK2224737f6ClkzIS1XK100zJo1y+fva1/7Wjy2unryo3JqPdoGuvjQHXKxXw207Wwfo+kKAAAYLDIH5bozqUDWgqMka/ds7YhD5513XskdVgVVCrx01zkZaOtusO5Ih2644QbfTzbXKMfuIOuvjSbv7OqVe7qznQy47S6tymlt55PNNbSc5tGyFhAreExrElIrezWi7sKLtSc3Fvj/8Ic/9EF72qsQramN1Vfoqquu8v1kc5yspk+f7i8cVD9qvpNFPfmxcir41sWH1Yto/bpoUjMfmq4AAIBBpScDvfVCs+pNGJVEQXvJG0HsrRw2Xm/KUKdhjU++7cTmVT8Kzvzy6utzFAzHcxXYmz2Sb/wwWo+lp+FkWsm3gUj4+r0o6IvH9rLlLW+qDyubxods3qyiQLu47nLL2XrUpb0tRVQ2TVf+lUd1Gta45ParVofJMqjOLK1w22n5cunUkh+j6bbusJx6U4vqQGlqmwIAAAwWmaJGC7oUxFUyOX7Nnc1nyymAUwCmYXUKqtLS0jQFY5rfAjcLqpNBtAWU4Sv1khRkW1CozgLDtIBcNN4C37R0Nd0CcUtP8ylNjQupHMlx1VheVY9prA41XznKYxj42vzJ10xKtTpMK4OCZI0Lx2v5cunUkh9j+03aui2NavsiAADAQDJE/0VBTkuomYOaY0QBVNlmLyH9dcYoEHT33XdfPAYAAAAY/Gp6JSIAAACA5iMoBwAAAHLWL0H5NttsEw9VZ6/RAwAAADYWLW1TDgAAAKA6mq8AAAAAOSMoBwAAAHJGUA4AAADkjKAcAAAAyBlBOQAAAJAzgnIAAAAgZwTlAAAAQM4IygEAAICcEZQDAAAAOSMoBwAAAHJGUA4AAADkjKAcAAAAyBlBOQAAAJAzgnIAAAAgZwTlAAAAQM4IygEAAICcEZQDAAAAOSMoBwAAAHJGUA4AAADkjKAcAAAAyBlBOQAAAJAzgnIAAAAgZwTlAAAAQM4IygEAAICcEZQDAAAAOSMoBwAAAHJGUA4AAADkjKAcAAAAyBlBOQAAAJAzgnIAAAAgZwTlAAAAQM4IygEAAICcEZQDAAAAOSMoBwAAAHJGUA4AAADkjKAcAAAAyJVz/z9xE5ejqciXNwAAAABJRU5ErkJggg==;" vertex="1" parent="1">
          <mxGeometry x="663" y="34" width="276.23" height="173.71" as="geometry" />
        </mxCell>
      </root>
    </mxGraphModel>
  </diagram>
</mxfile>
